<svg xmlns="http://www.w3.org/2000/svg" xmlns:xlink="http://www.w3.org/1999/xlink" viewBox="0 0 285.87 83.49"><defs><style>.cls-1{stroke:#fff;stroke-miterlimit:10;stroke-width:1.82px;fill:url(#linear-gradient);}.cls-2{fill:#fff;}.cls-3{font-size:20.77px;fill:#f2f2f2;font-family:MVBoli, MV Boli;}.cls-4{letter-spacing:-0.01em;}.cls-5{letter-spacing:-0.01em;}.cls-6{letter-spacing:0em;}.cls-7{letter-spacing:-0.01em;}.cls-8{letter-spacing:-0.01em;}.cls-9{letter-spacing:-0.01em;}</style><linearGradient id="linear-gradient" x1="42.18" y1="-10.73" x2="41.35" y2="53.2" gradientUnits="userSpaceOnUse"><stop offset="0" stop-color="#006837"/><stop offset="0.25" stop-color="#02663a"/><stop offset="0.45" stop-color="#076044"/><stop offset="0.63" stop-color="#0f5655"/><stop offset="0.8" stop-color="#1b476d"/><stop offset="0.96" stop-color="#2b358b"/><stop offset="0.99" stop-color="#2e3192"/></linearGradient></defs><title>logo-2</title><g id="Layer_2" data-name="Layer 2"><g id="mont"><path class="cls-1" d="M39.22,80c1.59.44,1.79,1.22,1.46,2.17-.17.46-.54.61-1,.21a10.82,10.82,0,0,0-5-2.56,5.17,5.17,0,0,1-3.83-3A2.82,2.82,0,0,1,31,75.41a2.52,2.52,0,0,0-1.7-3,3.89,3.89,0,0,1-1-.75.48.48,0,0,1-.15-.43c.1-.3.48-.74.37-.84A5.9,5.9,0,0,0,26.61,69c-.66-.24-1.48,0-1.68-.93-.07-.3-1-.45-1.05-.75-.31-1.26-1.83-1.41-2.63-2.18a4.21,4.21,0,0,1-.78-1.57c-.27-.72-.36-1.61-1.65-1.43-1,.14-2.2-.37-3.13.41a.94.94,0,0,1-.63-.22c-1.08-1.21-2.16-2.43-3.14-3.7-.28-.36-.16-.93-.41-1.32-.08-.14-1-.06-1,0-.09,1-1.17.76-1.6.61a6.48,6.48,0,0,1-2-1.29c-.54-.47-.93-1.06-1.42-1.57-.05-.06-.28,0-.4,0a4,4,0,0,1-1.28-.45c-.85-.65-1.62-1.39-2.4-2.1-.19-.17-.49-.51-.44-.55.93-.86-.06-1.79.19-2.65A1.73,1.73,0,0,1,2,48.39c1-.47,2.06-.82,3-1.3.16-.07,0-.58,0-.89a3.07,3.07,0,0,1,.08-1c.28-.66.74-1.28,1-1.95.52-1.5.16-2.5-2-2.89a2.31,2.31,0,0,1-1.8-2.74c0-.1,0-.26.09-.28,1.49-.46.68-1.22.45-2a1.17,1.17,0,0,1,.33-1c.81-.89.88-1.59.1-2.44-.57-.62-.23-3,.47-3.62a2.2,2.2,0,0,0,.73-1.08c.1-.79.64-1,1.44-1.08,1.1,0,2.19,0,3.28,0,.86,0,1.3-.26,1.18-1-.19-1.33-.37-2.66-.51-4a3.22,3.22,0,0,1,1.44-3c.78-.61,1.65-1.25,1-2.35-.08-.15.15-.55.37-.66,1.09-.55,2.21-1.07,3.35-1.55.5-.21,1.07-.29,1.59-.48s1.18-.49.64-1.19c-.35-.46-.21-.88.47-1a5.88,5.88,0,0,1,2.44-.26c.75.23,1.86,1.1,1.76,1.49-.32,1.15.4,1.66,1.19,2.28.14.1,0,.46.1.57a15.94,15.94,0,0,0,1.31,1c.23-.27.45-.54.68-.8a17.5,17.5,0,0,1,1.44-1.55c.59-.49.79-.88.34-1.57A17.27,17.27,0,0,1,26.86,9.5c-.09-.22-.12-.53-.31-.63a1.69,1.69,0,0,1-1-1.6c0-.27-.71-.64-1.16-.72C23,6.3,23,6.23,23.14,5.05a2,2,0,0,0-.5-1.33c-.38-.48-1-.8.22-1.11a1.88,1.88,0,0,0,1.07-1.09c.3-.78.69-.76,1.21-.22a10.46,10.46,0,0,1,1.14,1.46c.34.52.62.9,1.47.53s2-.78,3-1.12a1.84,1.84,0,0,1,.81,0,9.84,9.84,0,0,1,1.75.32c.33.11.74.43.77.68a4.68,4.68,0,0,0,3.83,3.57,2.23,2.23,0,0,1,1.1.53c.88.9,2.16,1.1,3.35,1.48.3.1.72.31.77.51a2.67,2.67,0,0,0,1.75,2.34c.64.24.9,1.11,1.93.91a1.87,1.87,0,0,1,.22.68c0,1.62.67,2.28,2.45,3a4.35,4.35,0,0,1,1.77,1.38,3.56,3.56,0,0,0,3.23,1.74,10.64,10.64,0,0,1,2.83.65c.1,0,.18.21.2.34a1.64,1.64,0,0,0,1.81,1.45.5.5,0,0,1,.38.31c.19.69.54.53,1.21.37s1.25.24,1.9.33a2.37,2.37,0,0,0,1.16,0,1,1,0,0,1,1.52.44,12.33,12.33,0,0,0,1.59,1.74c.66.63,1.34,1.26,2.06,1.84.87.69,1.79,1.34,2.69,2a.58.58,0,0,0,.43.08c1.72-1,2.86.5,4.29.71a25.18,25.18,0,0,1,3.23,1.19c1.32.41,1.89,1,1.85,2.16a9.67,9.67,0,0,0,.28,1.36c.07.42.06.85.09,1.27H80.66c-.85,0-1.83-.45-2.43.45a.93.93,0,0,0-.2.67c.52,1.67-.56,2.86-2.51,2.35a6.94,6.94,0,0,0-2.84-.44c-.44.05-1-.46-1.47-.64-1.54-.56-3.2.34-3.23,1.73,0,1.71,0,1.71,2.08,2.49a2.23,2.23,0,0,1,1.06,2.37c-.08.19,0,.44-.05.65a3.29,3.29,0,0,1-.3.55c-.1.18-.32.37-.29.52.47,1.91.48,1.9-1.82,2.74a1.23,1.23,0,0,0-.69.65,2.05,2.05,0,0,1-2.77,1.19,1.36,1.36,0,0,0-1.74.36C63,52,62,52,61.24,52.27c-.18.07-.48.06-.55.17-.84,1.25-1.68.27-2.12-.15a8.22,8.22,0,0,1-2-2.78c-.24-.65.31-1.5.52-2.26,0-.09.19-.19.17-.25-.42-1-.85-2-1.3-3.07a.53.53,0,0,0-.26-.18c-.59.48-1.18,1-1.75,1.46-.12.11-.13.39-.25.41-1.17.23-2.91,1.92-2.75,2.9s-.39,1.41-1.16,1.94a4.53,4.53,0,0,0-1,1.26c-.65.91-1.27,1.83-1.93,2.74a11,11,0,0,1-1.15,1.32,6.82,6.82,0,0,1-1.62,1.41,2.21,2.21,0,0,0-1.43,1.93A3.79,3.79,0,0,1,41.84,61c-1.37,1.84-2.86,3.61-4.25,5.44-.13.17,0,.64.22.82,1,.87,2,1.71,3,2.52a1.31,1.31,0,0,1,.52,1.5,28.67,28.67,0,0,0-.52,4.88c0,.62.61,1.29-.7,1.47-.08,0-.23.54-.1.66C40.73,79,40.58,79.5,39.22,80Z"/></g><g id="Layer_3" data-name="Layer 3"><path class="cls-2" d="M10.92,52.93a4,4,0,0,1-2.49-.65,2.3,2.3,0,0,1-1-1.91,3,3,0,0,1,.18-1A23.2,23.2,0,0,1,9,46.51c.58-1,1.25-2.09,2-3.2s1.58-2.23,2.48-3.36,1.83-2.23,2.8-3.31,2-2.1,3-3.06A37.73,37.73,0,0,1,22.3,31l1.08-.78c.44-.31.93-.64,1.48-1s1.09-.66,1.68-1a19,19,0,0,1,1.81-.9,14.92,14.92,0,0,1,1.82-.66A6.54,6.54,0,0,1,32,26.44a7.73,7.73,0,0,1,2,.24,5.48,5.48,0,0,1,1.66.74,4,4,0,0,1,1.17,1.26,3.4,3.4,0,0,1,.35,2.45,6.75,6.75,0,0,1-.19.66l-1.64,5.34,1.59-1.46L38.69,34l1.63-1.45c.5-.44.92-.79,1.23-1.07l.46-.38,1.12-.89c.44-.34.93-.7,1.47-1.07s1.11-.75,1.7-1.12a21.08,21.08,0,0,1,1.87-1,13.83,13.83,0,0,1,1.89-.73A6.66,6.66,0,0,1,52,26a3.5,3.5,0,0,1,1.4.26,2.82,2.82,0,0,1,1,.74A2.76,2.76,0,0,1,55,28.12a4.32,4.32,0,0,1,.13,1.08,6.89,6.89,0,0,1-.2,1.61c-.13.48-.27.93-.42,1.33s-.19.7-.32,1.22-.3,1.21-.5,1.93-1.26,4.92-1.26,4.92c-.23.87-.45,1.74-.68,2.59s-.43,1.63-.62,2.37-.36,1.4-.52,2-.3,1.06-.4,1.39a6.7,6.7,0,0,1-.26.7,4,4,0,0,1-.64,1,3.69,3.69,0,0,1-1.11.88,3.62,3.62,0,0,1-1.73.39,2.82,2.82,0,0,1-1.18-.26,3.93,3.93,0,0,1-.89-.59,3.13,3.13,0,0,1-.66-.82,2.58,2.58,0,0,1-.3-.93l0-.4L48.52,33c-.3.18-.61.37-.93.58-.83.55-1.68,1.17-2.52,1.84s-1.71,1.4-2.56,2.17-1.67,1.53-2.43,2.3-1.29,1.27-2,2l-2.12,2c-.71.68-1.39,1.35-2.06,2s-1.25,1.3-1.79,1.91a8.18,8.18,0,0,0-.71,1,17.34,17.34,0,0,1-1,1.48,8,8,0,0,1-1.26,1.33,3,3,0,0,1-2,.71,4.53,4.53,0,0,1-1.24-.15,2.64,2.64,0,0,1-1-.49,2.06,2.06,0,0,1-.61-.83,2.34,2.34,0,0,1-.18-.91,3.68,3.68,0,0,1,.16-1c.08-.27.16-.53.25-.77q.54-1.44,1.11-2.85c.38-.94.78-1.9,1.18-2.88l1.26-3c.43-1,.86-2.15,1.31-3.32.1-.31.24-.69.39-1.11s.28-.8.41-1.21a10.6,10.6,0,0,0,.29-1.14,4.47,4.47,0,0,0,.11-.73,4.42,4.42,0,0,0-1,.32,10.45,10.45,0,0,0-1.89,1.07,21,21,0,0,0-1.95,1.57c-.66.6-1.29,1.23-1.89,1.87S22.76,38,22.24,38.62s-1,1.19-1.34,1.69c-.1.14-.23.3-.4.5s-.34.42-.59.75-.56.75-.92,1.27-.78,1.14-1.29,2S16.62,46.53,16,47.64s-1.4,2.41-2.22,3.91a2.62,2.62,0,0,1-1.26,1.06A4,4,0,0,1,10.92,52.93Z"/><path class="cls-2" d="M10.54,47.73A20.65,20.65,0,0,1,11.85,45c.57-1,1.22-2,2-3.12s1.55-2.19,2.43-3.31,1.81-2.2,2.76-3.26,1.93-2.06,2.94-3a36.23,36.23,0,0,1,3-2.52L26,29c.43-.3.9-.61,1.42-.93s1.07-.64,1.64-1a18.43,18.43,0,0,1,1.73-.85,12.84,12.84,0,0,1,1.69-.61A5.44,5.44,0,0,1,34,25.44a6.72,6.72,0,0,1,1.73.21,4.33,4.33,0,0,1,1.34.6,2.92,2.92,0,0,1,.87.92,2.32,2.32,0,0,1,.31,1.19,2.64,2.64,0,0,1-.06.55c0,.18-.1.37-.16.56l-2.77,9,1.05-1L37.79,36l1.76-1.63c.61-.57,1.22-1.11,1.8-1.64L43,31.33l1.22-1,.45-.37L45.74,29c.43-.33.91-.68,1.43-1s1.08-.73,1.66-1.08A17.75,17.75,0,0,1,50.59,26a14,14,0,0,1,1.77-.69A5.9,5.9,0,0,1,54,25a2.64,2.64,0,0,1,1,.17,1.74,1.74,0,0,1,.64.48,1.71,1.71,0,0,1,.35.7,3.33,3.33,0,0,1,.1.84,5.91,5.91,0,0,1-.17,1.37,10.24,10.24,0,0,1-.4,1.25c-.08.31-.2.73-.34,1.29s-.3,1.2-.49,1.93-.4,1.51-.61,2.35-.44,1.7-.66,2.57-.45,1.73-.67,2.58-.43,1.64-.62,2.38-.37,1.39-.53,2-.28,1-.38,1.35c-.05.15-.13.36-.24.62a2.91,2.91,0,0,1-.47.75,2.71,2.71,0,0,1-.82.65,2.67,2.67,0,0,1-1.26.27,1.72,1.72,0,0,1-.76-.17,2.53,2.53,0,0,1-.64-.42,2.31,2.31,0,0,1-.45-.56,1.53,1.53,0,0,1-.19-.54l5.18-15.92c0-.15.09-.28.12-.4a1.4,1.4,0,0,0,0-.34.79.79,0,0,0-.06-.32c0-.1-.08-.19-.11-.28l-.15-.26a22.59,22.59,0,0,0-2.4,1.4c-.86.56-1.72,1.19-2.59,1.88S44.71,34,43.84,34.81s-1.69,1.56-2.47,2.35c-.62.61-1.27,1.25-2,1.93l-2.12,2c-.72.68-1.41,1.36-2.08,2s-1.28,1.34-1.83,2a8.19,8.19,0,0,0-.82,1.16,15.3,15.3,0,0,1-.93,1.39,6.79,6.79,0,0,1-1.1,1.16,2,2,0,0,1-1.33.48,3.59,3.59,0,0,1-.95-.11,1.83,1.83,0,0,1-.61-.3,1.13,1.13,0,0,1-.33-.43,1.62,1.62,0,0,1-.1-.54,2.45,2.45,0,0,1,.12-.75c.07-.24.15-.48.23-.7.35-1,.72-1.89,1.1-2.82s.77-1.89,1.18-2.87l1.25-3c.43-1,.87-2.16,1.32-3.34l.4-1.12q.23-.63.42-1.26c.13-.42.24-.84.32-1.23a4.86,4.86,0,0,0,.13-1.07,1.78,1.78,0,0,0-.1-.67.37.37,0,0,0-.37-.24,4.76,4.76,0,0,0-1.94.44,11.49,11.49,0,0,0-2.07,1.17,19,19,0,0,0-2.06,1.66c-.68.62-1.33,1.26-1.94,1.92S24,35.34,23.47,36s-1,1.22-1.37,1.74c-.09.11-.2.26-.36.44s-.37.45-.62.79-.58.77-.95,1.3-.81,1.19-1.32,2S17.76,44,17.1,45.13s-1.41,2.43-2.24,3.93a1.58,1.58,0,0,1-.78.63,2.9,2.9,0,0,1-1.16.24,3.22,3.22,0,0,1-1.9-.45,1.33,1.33,0,0,1-.61-1.11A1.78,1.78,0,0,1,10.54,47.73Z"/><path class="cls-2" d="M64.14,52.79a15.37,15.37,0,0,1-3.54-.36,8.31,8.31,0,0,1-2.66-1.08,5,5,0,0,1-1.72-1.82,4.93,4.93,0,0,1-.58-2.38,7.13,7.13,0,0,1,.51-2.54,10.69,10.69,0,0,1,1.27-2.3,14.23,14.23,0,0,1,2.21-2.4,21.24,21.24,0,0,1,3.19-2.32,29.17,29.17,0,0,1,4.26-2.09,10,10,0,0,1,1.3-.36,11.88,11.88,0,0,1,1.49-.21,5.7,5.7,0,0,1,2.93-.69,8.69,8.69,0,0,1,3.7.73,7.15,7.15,0,0,1,2.55,2c.2.26.38.5.55.74a4.89,4.89,0,0,1,.49.9,5.19,5.19,0,0,1,.44,2.19,7.16,7.16,0,0,1-.71,3,12,12,0,0,1-1.93,2.82A17.79,17.79,0,0,1,75,49.21a24.45,24.45,0,0,1-3.77,2.17,15.1,15.1,0,0,1-3.19,1A18.84,18.84,0,0,1,64.14,52.79Zm5-12.54a7.52,7.52,0,0,0-1.41.47,11.79,11.79,0,0,0-1.53.8,14.82,14.82,0,0,0-1.44,1,12.29,12.29,0,0,0-2.16,2.19,3,3,0,0,0-.47.8,2.92,2.92,0,0,0-.17.54,2.6,2.6,0,0,0,0,.46,1.32,1.32,0,0,0,.12.57,1,1,0,0,0,.34.39,2.75,2.75,0,0,0,.86.37,6.13,6.13,0,0,0,1.48.15,9,9,0,0,0,3.16-.55A11,11,0,0,0,70.56,46,10.33,10.33,0,0,0,72.5,44.2a6.69,6.69,0,0,0,1-1.71c.15-.37.27-.7.37-1a1.84,1.84,0,0,0,.11-.61.41.41,0,0,0-.07-.23,6.73,6.73,0,0,0-.54-.72l-.29-.37a5.6,5.6,0,0,1-.59.23,11.28,11.28,0,0,1-1.36.28C70.65,40.13,70,40.19,69.16,40.25Z"/><path class="cls-2" d="M59.08,43a9.6,9.6,0,0,1,1.16-2.08,13.36,13.36,0,0,1,2-2.24,20.56,20.56,0,0,1,3.05-2.2,28.12,28.12,0,0,1,4.11-2,9.91,9.91,0,0,1,2.74-.51,4.47,4.47,0,0,1,2.61-.68,7.48,7.48,0,0,1,3.27.64,6.16,6.16,0,0,1,2.2,1.73l.51.69a4.19,4.19,0,0,1,.39.72,4,4,0,0,1,.26.81,4.25,4.25,0,0,1,.1,1,6,6,0,0,1-.62,2.59A10.47,10.47,0,0,1,79.15,44a17.56,17.56,0,0,1-2.77,2.41,22.94,22.94,0,0,1-3.62,2.07,13.79,13.79,0,0,1-3,1,17.67,17.67,0,0,1-3.65.35,14.73,14.73,0,0,1-3.32-.33,7.46,7.46,0,0,1-2.33-.94,4,4,0,0,1-1.39-1.47,3.9,3.9,0,0,1-.46-1.9A6,6,0,0,1,59.08,43Zm4.13.21a3.47,3.47,0,0,0-.27,1.34,2.38,2.38,0,0,0,.21,1,2,2,0,0,0,.68.79,3.89,3.89,0,0,0,1.18.52,7.18,7.18,0,0,0,1.73.18,9.91,9.91,0,0,0,3.52-.62,12.32,12.32,0,0,0,2.9-1.55,11.7,11.7,0,0,0,2.12-2,7.66,7.66,0,0,0,1.21-2c.15-.38.27-.73.38-1.07a2.92,2.92,0,0,0,.16-.92,1.37,1.37,0,0,0-.23-.78,9.53,9.53,0,0,0-.61-.81l-.45-.57c-.15-.2-.28-.4-.4-.59a2.56,2.56,0,0,1-.42.39,2,2,0,0,1-.67.31,9.81,9.81,0,0,1-1.22.25c-.51.07-1.18.14-2,.19a8.58,8.58,0,0,0-1.67.55,14.49,14.49,0,0,0-1.65.87,15.17,15.17,0,0,0-1.54,1.08,14.1,14.1,0,0,0-1.32,1.18,13,13,0,0,0-1,1.19A4.42,4.42,0,0,0,63.21,43.18Z"/><path class="cls-2" d="M99.15,52.56a3.6,3.6,0,0,1-1.88-.38,1.83,1.83,0,0,1-.84-1.6,4.77,4.77,0,0,1,.26-1.41,13.53,13.53,0,0,1,.65-1.57c.27-.54.58-1.11.93-1.72S99,44.65,99.4,44s.62-1,.92-1.47.56-.93.79-1.37a8.3,8.3,0,0,0,.52-1.19,2.32,2.32,0,0,0,.17-.83.29.29,0,0,0-.08-.21h0a2.2,2.2,0,0,0-.51,0,5.94,5.94,0,0,0-1.6.23,14.46,14.46,0,0,0-1.94.67c-.68.29-1.39.62-2.1,1s-1.44.76-2.14,1.16c-.39.22-.75.41-1.09.58a6.71,6.71,0,0,1-.89.37,6.58,6.58,0,0,0-.45.63c-.24.38-.48.8-.71,1.25s-.47.93-.69,1.41-.38.91-.52,1.31a4.27,4.27,0,0,0-.17.56c0,.23-.12.47-.19.73s-.15.53-.24.82-.22.63-.36,1a2.08,2.08,0,0,1-.77,1,3.45,3.45,0,0,1-.82.4,3.37,3.37,0,0,1-.8.17l-.51,0a4.54,4.54,0,0,1-2-.39,2.11,2.11,0,0,1-1.15-2c0-.18,0-.37,0-.58a3.07,3.07,0,0,1,.21-.83c.35-1,.72-1.92,1.06-2.76s.71-1.63,1.06-2.34.72-1.38,1.09-2,.72-1.25,1.1-1.88.76-1.29,1.17-2,.83-1.4,1.29-2.21a2.18,2.18,0,0,1,1.38-.92A5.78,5.78,0,0,1,92.11,34a4.85,4.85,0,0,1,2,.36A1.86,1.86,0,0,1,95.27,36c.61-.27,1.24-.53,1.87-.75a20.07,20.07,0,0,1,2.53-.73,12.1,12.1,0,0,1,2.59-.29,8.05,8.05,0,0,1,4.25,1,3.81,3.81,0,0,1,1.82,3.42,6.93,6.93,0,0,1-.62,2.66,26.14,26.14,0,0,1-1.39,2.83c-.54,1-1.12,2-1.75,3.08s-1.18,2.13-1.69,3.19a5.84,5.84,0,0,1-.57.94,2.74,2.74,0,0,1-.85.74,3.45,3.45,0,0,1-1.08.39A7.28,7.28,0,0,1,99.15,52.56Z"/><path class="cls-2" d="M103.21,35.92a7.05,7.05,0,0,0-1.86.26,16.52,16.52,0,0,0-2.07.72c-.71.3-1.43.64-2.17,1s-1.47.78-2.18,1.19c-.36.2-.71.39-1,.55a5.11,5.11,0,0,1-1,.38,6.92,6.92,0,0,0-.73,1c-.26.4-.51.84-.76,1.32s-.48,1-.71,1.46-.41,1-.56,1.4a5.53,5.53,0,0,0-.2.66c-.05.21-.1.44-.17.68s-.14.5-.24.78-.2.59-.33.94a1.07,1.07,0,0,1-.4.49,2.16,2.16,0,0,1-.57.28,2.08,2.08,0,0,1-.57.12l-.42,0a3.6,3.6,0,0,1-1.55-.29,1.13,1.13,0,0,1-.59-1.13,4,4,0,0,1,0-.48,2.28,2.28,0,0,1,.15-.55c.36-1,.72-1.94,1.06-2.76s.68-1.57,1-2.27.7-1.36,1.06-2,.72-1.24,1.09-1.87.76-1.28,1.17-2,.84-1.42,1.3-2.23a1.22,1.22,0,0,1,.79-.46A4.54,4.54,0,0,1,94.11,33a3.9,3.9,0,0,1,1.56.27.88.88,0,0,1,.61.79.46.46,0,0,1-.06.18,1.46,1.46,0,0,1-.14.28L95,36.22c.7-.35,1.42-.71,2.18-1.06a23.57,23.57,0,0,1,2.32-1,18,18,0,0,1,2.4-.69,10.93,10.93,0,0,1,2.38-.27,7.14,7.14,0,0,1,3.73.83,2.81,2.81,0,0,1,1.34,2.57,5.9,5.9,0,0,1-.54,2.27,26.16,26.16,0,0,1-1.34,2.73q-.81,1.47-1.74,3.06c-.62,1.07-1.2,2.16-1.73,3.27a4.76,4.76,0,0,1-.46.76,1.89,1.89,0,0,1-.56.49,2.35,2.35,0,0,1-.76.26,5.34,5.34,0,0,1-1,.08,2.71,2.71,0,0,1-1.35-.23.84.84,0,0,1-.37-.75,3.68,3.68,0,0,1,.21-1.1,10.12,10.12,0,0,1,.6-1.44c.26-.52.56-1.07.89-1.67s.71-1.19,1.11-1.8.63-1,.93-1.48.58-1,.82-1.44a10.58,10.58,0,0,0,.59-1.32,3.43,3.43,0,0,0,.22-1.16,1.32,1.32,0,0,0-.33-.88A1.68,1.68,0,0,0,103.21,35.92Z"/><path class="cls-2" d="M121.28,51.93a11,11,0,0,1-3.16-.42,7.35,7.35,0,0,1-2.43-1.19,5.4,5.4,0,0,1-1.59-1.86,5,5,0,0,1-.56-2.33,10.35,10.35,0,0,1,.52-3.12c.18-.55.37-1.09.55-1.61l-.08,0a7.42,7.42,0,0,1-1.39-.35,3.85,3.85,0,0,1-1.19-.64,1.78,1.78,0,0,1-.72-1.43,2,2,0,0,1,.18-.77,2.78,2.78,0,0,1,.45-.7,2.53,2.53,0,0,1,.78-.6,2.41,2.41,0,0,1,1.13-.26H117l.07-.16c.21-.61.42-1.17.62-1.64l.49-1.16c.12-.3.22-.55.29-.74a1.27,1.27,0,0,0,.05-.16c0-.06,0-.16,0-.25a5.1,5.1,0,0,1,0-.65v-.16a2.87,2.87,0,0,1,.05-.52,3.46,3.46,0,0,1,.33-.87,2.61,2.61,0,0,1,.88-.95,3,3,0,0,1,1.73-.45,4.23,4.23,0,0,1,1.49.24,3.22,3.22,0,0,1,1.12.69,2.92,2.92,0,0,1,.68,1A3,3,0,0,1,125,32a2.92,2.92,0,0,1-.19,1.08l-1.2,3,2.8-.35q1.13-.13,1.95-.27l1.43-.22,1-.14a5.63,5.63,0,0,1,.82-.07c.3,0,.6,0,.91.05a4.86,4.86,0,0,1,.92.17,2.36,2.36,0,0,1,.88.49,1.59,1.59,0,0,1,.53,1.21,2.12,2.12,0,0,1-.45,1.31,3,3,0,0,1-.89.75,4.93,4.93,0,0,1-1.07.46,8.46,8.46,0,0,1-1.09.23l-1,.14-3,.45-3.54.58c-.56.09-1,.16-1.43.2l-1,.1h0c-.2.41-.37.81-.53,1.2-.22.57-.41,1.1-.56,1.59s-.25.89-.32,1.25a4.48,4.48,0,0,0-.09.76,1.51,1.51,0,0,0,.08.53.57.57,0,0,0,.16.27,1.11,1.11,0,0,0,.43.23,3.19,3.19,0,0,0,1,.12,6.43,6.43,0,0,0,2.24-.41A11.6,11.6,0,0,0,126,45.57a17.79,17.79,0,0,0,2.08-1.5c.68-.56,1.31-1.09,1.88-1.6a2,2,0,0,1,1.43-.54,3.56,3.56,0,0,1,.52,0,3,3,0,0,1,.63.17,2.08,2.08,0,0,1,.65.42,1.37,1.37,0,0,1,.45,1,1.62,1.62,0,0,1-.08.52,8.54,8.54,0,0,1-1.41,2.31q-.84,1-1.71,2a4.87,4.87,0,0,1-1,.86,13.44,13.44,0,0,1-1.15.71q-.6.33-1.26.63c-.43.19-.83.37-1.2.52a9.4,9.4,0,0,1-2.32.6A18.32,18.32,0,0,1,121.28,51.93Z"/><path class="cls-2" d="M116.54,44.13a9.24,9.24,0,0,1,.47-2.81c.32-1,.65-1.9,1-2.79a12.28,12.28,0,0,1-1.32-.13,7.75,7.75,0,0,1-1.22-.31,3,3,0,0,1-.89-.48.81.81,0,0,1-.35-.65.93.93,0,0,1,.1-.37,1.67,1.67,0,0,1,.29-.44,1.4,1.4,0,0,1,.48-.37,1.47,1.47,0,0,1,.67-.15h3.33a.72.72,0,0,0,.65-.27,2.36,2.36,0,0,0,.27-.52c.22-.63.42-1.17.61-1.62s.35-.85.49-1.16l.31-.78a1.53,1.53,0,0,0,.11-.47c0-.14,0-.28,0-.41a3.51,3.51,0,0,1,0-.53v-.16a1.69,1.69,0,0,1,0-.34,2.09,2.09,0,0,1,.23-.59,1.49,1.49,0,0,1,.55-.58,2,2,0,0,1,1.17-.28,3.17,3.17,0,0,1,1.14.18,2.09,2.09,0,0,1,.77.47,1.85,1.85,0,0,1,.45.66A2,2,0,0,1,126,30a2,2,0,0,1-.12.72l-1.82,4.52,2.39-.28,2.09-.26c.76-.09,1.42-.18,2-.27l1.43-.22,1-.14a4.82,4.82,0,0,1,.68-.06c.27,0,.54,0,.81,0a3.54,3.54,0,0,1,.72.14,1.24,1.24,0,0,1,.51.27.62.62,0,0,1,.2.47,1,1,0,0,1-.24.68,2,2,0,0,1-.6.52,3.61,3.61,0,0,1-.85.35,6.64,6.64,0,0,1-.94.21l-1,.14L130.8,37l-1.58.24-1.59.26-1.95.32c-.54.09-1,.15-1.38.2l-.93.09c-.24,0-.44,0-.59,0-.31.61-.59,1.21-.82,1.8s-.43,1.14-.58,1.65A11.07,11.07,0,0,0,121,43a5,5,0,0,0-.11.94,2.82,2.82,0,0,0,.12.83,1.69,1.69,0,0,0,.42.69,2.24,2.24,0,0,0,.81.46,4.22,4.22,0,0,0,1.28.17,7.5,7.5,0,0,0,2.59-.47,12.94,12.94,0,0,0,2.42-1.19,19,19,0,0,0,2.19-1.57c.69-.57,1.32-1.11,1.9-1.62a1,1,0,0,1,.77-.29l.36,0a1.76,1.76,0,0,1,.41.11,1.23,1.23,0,0,1,.34.21.43.43,0,0,1,.14.31.47.47,0,0,1,0,.19,7.26,7.26,0,0,1-1.23,2c-.55.67-1.12,1.34-1.7,2a3.83,3.83,0,0,1-.78.69,10,10,0,0,1-1.06.65c-.38.21-.78.41-1.19.6l-1.17.51a8.27,8.27,0,0,1-2.07.53,16.08,16.08,0,0,1-2.16.14,10,10,0,0,1-2.87-.37,6.81,6.81,0,0,1-2.11-1A4.51,4.51,0,0,1,117,46,4,4,0,0,1,116.54,44.13Z"/><path class="cls-2" d="M145.21,52.47c-.42,0-.91,0-1.47,0s-1.17-.11-1.78-.21a13.61,13.61,0,0,1-1.86-.45,7,7,0,0,1-1.76-.85A4.65,4.65,0,0,1,137,49.5a3.92,3.92,0,0,1-.57-2.13,5.56,5.56,0,0,1,.13-1.1,1.58,1.58,0,0,1-.7-1.34,2.47,2.47,0,0,1,.93-1.94,3.75,3.75,0,0,1,1.61-.79c.18-.21.4-.46.67-.74a17.74,17.74,0,0,1,1.5-1.39,21.23,21.23,0,0,1,2-1.5,17.81,17.81,0,0,1,2.53-1.38,16.84,16.84,0,0,1,3-1,14.59,14.59,0,0,1,3.43-.4,12.92,12.92,0,0,1,2.72.25,7,7,0,0,1,2.06.74,4,4,0,0,1,1.39,1.29,3.28,3.28,0,0,1,.5,1.73,3.51,3.51,0,0,1-.31,1.46,4.44,4.44,0,0,1-1.62,2,11.25,11.25,0,0,1-2.44,1.3,19.88,19.88,0,0,1-2.94.9c-1,.23-2,.42-3.08.57s-2,.28-3,.36l-1.9.15a1.17,1.17,0,0,0,0,.11,1.49,1.49,0,0,0-.1.52c0,.08,0,.29.56.54a7,7,0,0,0,2.74.43,12.54,12.54,0,0,0,2.08-.16,17,17,0,0,0,1.92-.41c.61-.17,1.19-.36,1.72-.55s1-.41,1.49-.6c.63-.27,1.23-.5,1.79-.69a5.71,5.71,0,0,1,1.74-.32,2,2,0,0,1,1.55.55,1.62,1.62,0,0,1,.42,1.08,2.17,2.17,0,0,1,0,.37,1.77,1.77,0,0,1-.07.36A3.09,3.09,0,0,1,158,49a4.49,4.49,0,0,1-1.23.95,21.84,21.84,0,0,1-5.57,2A29.67,29.67,0,0,1,145.21,52.47Zm5.57-12.17a5.66,5.66,0,0,0-1.82.31,10,10,0,0,0-1.81.85l-.34.21.19,0a17.17,17.17,0,0,0,2.46-.52,6.75,6.75,0,0,0,1.56-.64l.22-.14A2.32,2.32,0,0,0,150.78,40.3Z"/><path class="cls-2" d="M138.85,42.92a1.48,1.48,0,0,1,.57-1.17,3.21,3.21,0,0,1,1.52-.65c.18-.23.47-.55.85-1a15.64,15.64,0,0,1,1.41-1.32,21.51,21.51,0,0,1,1.93-1.42,16.56,16.56,0,0,1,5.2-2.27,13.16,13.16,0,0,1,3.19-.37A12.27,12.27,0,0,1,156,35a6,6,0,0,1,1.77.63,2.84,2.84,0,0,1,1,.95,2.15,2.15,0,0,1,.35,1.2,2.5,2.5,0,0,1-.22,1,3.63,3.63,0,0,1-1.29,1.58,10.89,10.89,0,0,1-2.23,1.19,18.92,18.92,0,0,1-2.78.84c-1,.23-2,.41-3,.57s-2,.26-2.9.34l-2.41.19a2.62,2.62,0,0,0-.39.73,2.46,2.46,0,0,0-.16.86A1.59,1.59,0,0,0,145,46.58a7.7,7.7,0,0,0,3.15.52,14.65,14.65,0,0,0,2.24-.17,17.29,17.29,0,0,0,2-.44c.63-.17,1.24-.37,1.8-.58s1.08-.41,1.54-.62,1.17-.47,1.7-.65a4.62,4.62,0,0,1,1.43-.27,1.06,1.06,0,0,1,.8.21.64.64,0,0,1,.17.42,2,2,0,0,1,0,.25.88.88,0,0,1,0,.2,2.3,2.3,0,0,1-.49.84,3.57,3.57,0,0,1-1,.73A20.67,20.67,0,0,1,153,48.9a28.24,28.24,0,0,1-5.8.57c-.4,0-.87,0-1.41,0a14.73,14.73,0,0,1-1.68-.2,11.2,11.2,0,0,1-1.71-.41,6,6,0,0,1-1.51-.73A3.74,3.74,0,0,1,139.84,47a2.91,2.91,0,0,1-.42-1.6,5.13,5.13,0,0,1,.33-1.69,1.25,1.25,0,0,1-.61-.22A.6.6,0,0,1,138.85,42.92Zm15.57-4.46a.3.3,0,0,0,.05-.14v-.15a.7.7,0,0,0-.5-.65,2.87,2.87,0,0,0-1.19-.22,6.36,6.36,0,0,0-2.15.37A11.49,11.49,0,0,0,147,39.79a9.72,9.72,0,0,0-1.12,1.15c1.2-.06,2.29-.17,3.29-.31a19,19,0,0,0,2.59-.55,7.92,7.92,0,0,0,1.79-.74A2.08,2.08,0,0,0,154.42,38.46Z"/><path class="cls-2" d="M178.33,52.56a3.56,3.56,0,0,1-1.87-.38,1.83,1.83,0,0,1-.84-1.6,4.46,4.46,0,0,1,.26-1.41,11.43,11.43,0,0,1,.65-1.57c.27-.54.57-1.11.92-1.72s.73-1.23,1.14-1.85.61-1,.92-1.47.55-.93.78-1.37a9,9,0,0,0,.53-1.19,2.55,2.55,0,0,0,.17-.83.29.29,0,0,0-.08-.21h0a2.2,2.2,0,0,0-.51,0,6.06,6.06,0,0,0-1.61.23,14.85,14.85,0,0,0-1.93.67c-.68.29-1.39.62-2.11,1s-1.44.76-2.14,1.16c-.38.22-.74.41-1.09.58a6.6,6.6,0,0,1-.88.37,6.58,6.58,0,0,0-.45.63c-.24.38-.48.8-.71,1.25s-.47.93-.69,1.41-.39.91-.53,1.31c-.07.21-.13.39-.17.56s-.11.47-.18.73-.15.53-.25.82-.21.63-.35,1a2.11,2.11,0,0,1-.78,1,3.12,3.12,0,0,1-.82.4,3.29,3.29,0,0,1-.79.17l-.51,0a4.51,4.51,0,0,1-2-.39,2.11,2.11,0,0,1-1.16-2c0-.18,0-.37,0-.58a3.11,3.11,0,0,1,.22-.83c.35-1,.71-1.92,1.06-2.76s.7-1.62,1.06-2.34.72-1.39,1.08-2,.73-1.25,1.1-1.88.77-1.29,1.18-2,.83-1.4,1.29-2.21a2.16,2.16,0,0,1,1.37-.92A5.8,5.8,0,0,1,171.3,34a4.77,4.77,0,0,1,2,.36,1.89,1.89,0,0,1,1.2,1.62c.61-.27,1.24-.53,1.87-.75a19.46,19.46,0,0,1,2.52-.73,12.17,12.17,0,0,1,2.59-.29,8.12,8.12,0,0,1,4.26,1,3.81,3.81,0,0,1,1.81,3.42,6.9,6.9,0,0,1-.61,2.66,30.46,30.46,0,0,1-1.39,2.83c-.54,1-1.12,2-1.75,3.08s-1.18,2.13-1.69,3.19a5.43,5.43,0,0,1-.57.94,3.08,3.08,0,0,1-.86.75,3.65,3.65,0,0,1-1.07.38A7.41,7.41,0,0,1,178.33,52.56Z"/><path class="cls-2" d="M182.4,35.92a7.12,7.12,0,0,0-1.87.26,16.4,16.4,0,0,0-2.06.72c-.71.3-1.44.64-2.18,1s-1.46.78-2.17,1.19c-.37.2-.72.39-1.05.55a5,5,0,0,1-1,.38,6.23,6.23,0,0,0-.73,1,13.51,13.51,0,0,0-.76,1.32c-.25.47-.49,1-.71,1.46s-.41,1-.56,1.4a5.53,5.53,0,0,0-.2.66l-.17.68q-.1.36-.24.78c-.09.28-.2.59-.34.94a1,1,0,0,1-.39.49,2.5,2.5,0,0,1-.57.28,2.14,2.14,0,0,1-.58.12l-.42,0a3.58,3.58,0,0,1-1.54-.29,1.14,1.14,0,0,1-.6-1.13,4.12,4.12,0,0,1,0-.48,1.63,1.63,0,0,1,.15-.55Q165,45.2,165.5,44c.34-.81.69-1.57,1-2.27s.7-1.36,1.06-2l1.09-1.87,1.17-2c.41-.67.84-1.42,1.31-2.23a1.22,1.22,0,0,1,.78-.46A4.61,4.61,0,0,1,173.3,33a3.81,3.81,0,0,1,1.55.27.87.87,0,0,1,.61.79.62.62,0,0,1-.05.18,1.1,1.1,0,0,1-.15.28l-1.09,1.67c.69-.35,1.42-.71,2.17-1.06a23.75,23.75,0,0,1,2.33-1,17.22,17.22,0,0,1,2.4-.69,10.77,10.77,0,0,1,2.37-.27,7.11,7.11,0,0,1,3.73.83,2.79,2.79,0,0,1,1.34,2.57,5.87,5.87,0,0,1-.53,2.27,28.32,28.32,0,0,1-1.34,2.73q-.81,1.47-1.74,3.06c-.63,1.07-1.2,2.16-1.73,3.27a4.76,4.76,0,0,1-.46.76,2.17,2.17,0,0,1-.56.49,2.43,2.43,0,0,1-.76.26,5.38,5.38,0,0,1-1.06.08,2.69,2.69,0,0,1-1.34-.23.82.82,0,0,1-.37-.75,3.68,3.68,0,0,1,.21-1.1,10.12,10.12,0,0,1,.6-1.44c.25-.52.55-1.07.89-1.67s.71-1.19,1.11-1.8l.93-1.48c.31-.5.58-1,.82-1.44a9.18,9.18,0,0,0,.58-1.32,3.46,3.46,0,0,0,.23-1.16,1.28,1.28,0,0,0-.34-.88A1.64,1.64,0,0,0,182.4,35.92Z"/><path class="cls-2" d="M198.55,52.47c-.41,0-.9,0-1.46,0s-1.17-.11-1.78-.21a12,12,0,0,1-1.86-.45,6.84,6.84,0,0,1-1.76-.85,4.8,4.8,0,0,1-1.36-1.41,4,4,0,0,1-.56-2.13,5.51,5.51,0,0,1,.12-1.1,1.59,1.59,0,0,1-.69-1.34,2.47,2.47,0,0,1,.93-1.94,3.75,3.75,0,0,1,1.61-.79c.18-.22.4-.46.67-.74a16.32,16.32,0,0,1,1.5-1.39,19.65,19.65,0,0,1,2-1.5,18.24,18.24,0,0,1,2.52-1.38,17.23,17.23,0,0,1,3-1,14.59,14.59,0,0,1,3.43-.4,12.92,12.92,0,0,1,2.72.25,7.09,7.09,0,0,1,2.06.74A4,4,0,0,1,211,38.05a3.25,3.25,0,0,1,.5,1.73,3.64,3.64,0,0,1-.31,1.46,4.5,4.5,0,0,1-1.62,2,11.25,11.25,0,0,1-2.44,1.3,19.88,19.88,0,0,1-2.94.9c-1,.23-2.06.42-3.08.57s-2,.28-3,.36l-1.9.15a.76.76,0,0,1,0,.11,1.49,1.49,0,0,0-.1.52c0,.08,0,.29.55.54a7,7,0,0,0,2.75.43,12.54,12.54,0,0,0,2.08-.16,17,17,0,0,0,1.92-.41c.61-.17,1.19-.36,1.72-.55l1.49-.6c.62-.27,1.22-.5,1.79-.69a5.71,5.71,0,0,1,1.74-.32,2,2,0,0,1,1.55.55,1.62,1.62,0,0,1,.42,1.08c0,.13,0,.25,0,.36a1.74,1.74,0,0,1-.07.37,3.12,3.12,0,0,1-.71,1.22,4.3,4.3,0,0,1-1.22.95,21.78,21.78,0,0,1-5.58,2A29.52,29.52,0,0,1,198.55,52.47Zm5.57-12.17a5.75,5.75,0,0,0-1.82.31,9.91,9.91,0,0,0-1.8.85l-.34.21.19,0a17.17,17.17,0,0,0,2.46-.52,6.94,6.94,0,0,0,1.56-.64l.21-.14A2.19,2.19,0,0,0,204.12,40.3Z"/><path class="cls-2" d="M192.2,42.92a1.48,1.48,0,0,1,.57-1.17,3.17,3.17,0,0,1,1.52-.65c.18-.23.46-.55.84-1a17.39,17.39,0,0,1,1.42-1.32,20.17,20.17,0,0,1,1.93-1.42,16.29,16.29,0,0,1,5.2-2.27,13.1,13.1,0,0,1,3.19-.37,12.27,12.27,0,0,1,2.51.23,6.08,6.08,0,0,1,1.77.63,2.84,2.84,0,0,1,1,.95,2.24,2.24,0,0,1,.35,1.2,2.67,2.67,0,0,1-.22,1,3.59,3.59,0,0,1-1.3,1.58,10.55,10.55,0,0,1-2.22,1.19,19.44,19.44,0,0,1-2.79.84c-1,.23-2,.41-3,.57s-2,.26-2.89.34l-2.41.19a2.62,2.62,0,0,0-.39.73,2.46,2.46,0,0,0-.16.86,1.59,1.59,0,0,0,1.14,1.45,7.75,7.75,0,0,0,3.16.52,14.74,14.74,0,0,0,2.24-.17,16.69,16.69,0,0,0,2-.44c.64-.17,1.24-.37,1.81-.58s1.07-.41,1.54-.62,1.16-.47,1.7-.65a4.62,4.62,0,0,1,1.43-.27,1.08,1.08,0,0,1,.8.21.64.64,0,0,1,.17.42,2,2,0,0,1,0,.25.88.88,0,0,1,0,.2,2.2,2.2,0,0,1-.5.84,3.52,3.52,0,0,1-.94.73,20.93,20.93,0,0,1-5.31,1.88,28.34,28.34,0,0,1-5.81.57c-.39,0-.86,0-1.4,0a14.73,14.73,0,0,1-1.68-.2,11.2,11.2,0,0,1-1.71-.41,6,6,0,0,1-1.51-.73A3.77,3.77,0,0,1,193.18,47a3,3,0,0,1-.41-1.6,5.13,5.13,0,0,1,.33-1.69,1.25,1.25,0,0,1-.61-.22A.6.6,0,0,1,192.2,42.92Zm15.56-4.46a.22.22,0,0,0,.05-.14v-.15a.69.69,0,0,0-.49-.65,2.89,2.89,0,0,0-1.2-.22,6.4,6.4,0,0,0-2.15.37,11.65,11.65,0,0,0-2,.93,11.28,11.28,0,0,0-1.65,1.19,9.72,9.72,0,0,0-1.12,1.15c1.2-.06,2.29-.17,3.28-.31a19.19,19.19,0,0,0,2.6-.55,7.92,7.92,0,0,0,1.79-.74A2,2,0,0,0,207.76,38.46Z"/><path class="cls-2" d="M217.37,59.59a3.29,3.29,0,0,1-.66-.08,2.78,2.78,0,0,1-.74-.29,2.14,2.14,0,0,1-.65-.55A1.65,1.65,0,0,1,215,57.6a1.84,1.84,0,0,1,.14-.72,4.45,4.45,0,0,1,.53-1.07,2.7,2.7,0,0,1,1-.88,5.53,5.53,0,0,1,1.41-.47c.5-.11,1.16-.22,2-.33.48-.06.93-.13,1.36-.21a4.82,4.82,0,0,0,.82-.21,12.88,12.88,0,0,0,1.93-1.35,9.53,9.53,0,0,0,1.35-1.45,9.7,9.7,0,0,0,.92-1.53l.24-.54a18.29,18.29,0,0,1-1.7.75,17.52,17.52,0,0,1-2.3.73,10.7,10.7,0,0,1-2.44.29,6,6,0,0,1-1.76-.3,8.86,8.86,0,0,1-1.72-.77,5.75,5.75,0,0,1-1.47-1.17,2.74,2.74,0,0,1-.75-1.83,3.82,3.82,0,0,1,.2-1.16l.28-.82a9.1,9.1,0,0,1,1.32-2.34,15.26,15.26,0,0,1,1.92-2,22,22,0,0,1,2.35-1.8,29.66,29.66,0,0,1,2.62-1.56,14.77,14.77,0,0,1,3.52-1.34,15.85,15.85,0,0,1,3.71-.42c.54,0,1,0,1.55,0a10.35,10.35,0,0,1,1.51.23,6.22,6.22,0,0,1,1.42.54,4.88,4.88,0,0,1,1.25,1,2.09,2.09,0,0,1,.35.56,1.74,1.74,0,0,1,.14.66,4.11,4.11,0,0,1-.13.84c-.08.35-.18.78-.31,1.29s-.28,1.08-.45,1.7l-.54,1.88c-.18.64-.37,1.26-.55,1.87s-.36,1.17-.53,1.66a24.73,24.73,0,0,1-1.1,2.73,18,18,0,0,1-1.63,2.8,16.52,16.52,0,0,1-2.26,2.58,13.79,13.79,0,0,1-3.05,2.16,16.36,16.36,0,0,1-3.88,1.46A20,20,0,0,1,217.37,59.59Zm12.47-20.35a5.76,5.76,0,0,0-.65.17,12.42,12.42,0,0,0-1.51.6c-.54.26-1.1.55-1.65.87s-1.08.66-1.58,1-.95.66-1.35,1a6.86,6.86,0,0,0-.87.76c-.34.35-.64.68-.91,1a3.72,3.72,0,0,0-.55,1l-.11.3a5.13,5.13,0,0,0,1.5-.32,14.26,14.26,0,0,0,2.07-.9,17.74,17.74,0,0,0,2-1.19,8.35,8.35,0,0,0,1.38-1.15c.18-.18.39-.41.66-.7s.51-.59.77-.92a11,11,0,0,0,.67-.95,2.49,2.49,0,0,0,.22-.43Z"/><path class="cls-2" d="M219.37,56.59a2,2,0,0,1-.45-.06,1.46,1.46,0,0,1-.45-.18,1.22,1.22,0,0,1-.37-.3.67.67,0,0,1-.14-.45,1,1,0,0,1,.07-.36,3.93,3.93,0,0,1,.42-.87,1.78,1.78,0,0,1,.65-.55,4.32,4.32,0,0,1,1.14-.38c.48-.1,1.11-.21,1.89-.32q.75-.09,1.41-.21a5.12,5.12,0,0,0,1.08-.3,13.66,13.66,0,0,0,2.15-1.5,10.49,10.49,0,0,0,1.49-1.6,10.07,10.07,0,0,0,1-1.7c.27-.58.53-1.17.78-1.78a4.39,4.39,0,0,0,.26-.63c.08-.22.17-.47.29-.75-.63.35-1.28.71-2,1.06a20.63,20.63,0,0,1-2.09.95,17.21,17.21,0,0,1-2.18.69,9.24,9.24,0,0,1-2.2.26,4.85,4.85,0,0,1-1.45-.25,8.09,8.09,0,0,1-1.53-.68,5,5,0,0,1-1.22-1,1.74,1.74,0,0,1-.5-1.16,2.67,2.67,0,0,1,.15-.84l.27-.81a8.23,8.23,0,0,1,1.17-2.06,13.84,13.84,0,0,1,1.79-1.9,22.39,22.39,0,0,1,2.24-1.72,27.78,27.78,0,0,1,2.54-1.5,13.82,13.82,0,0,1,3.28-1.26,15,15,0,0,1,3.48-.39c.51,0,1,0,1.48,0a8,8,0,0,1,1.34.2,4.65,4.65,0,0,1,1.18.45,3.92,3.92,0,0,1,1,.78,1.2,1.2,0,0,1,.16.27.74.74,0,0,1,.06.27,5.07,5.07,0,0,1-.11.63c-.08.34-.17.76-.3,1.26s-.27,1.06-.45,1.68-.35,1.24-.53,1.86-.37,1.25-.55,1.86-.35,1.15-.52,1.63a22.26,22.26,0,0,1-1.06,2.63,16.93,16.93,0,0,1-1.54,2.64,15.52,15.52,0,0,1-2.12,2.43,12.93,12.93,0,0,1-2.84,2A15.72,15.72,0,0,1,224,56.08,18.93,18.93,0,0,1,219.37,56.59Zm2.46-13.34c-.05.13-.09.26-.13.39a1.44,1.44,0,0,0-.06.4,1,1,0,0,0,.19.61.89.89,0,0,0,.72.26,6.17,6.17,0,0,0,1.93-.38,14.64,14.64,0,0,0,2.21-1,20.3,20.3,0,0,0,2.09-1.26A9.63,9.63,0,0,0,230.34,41l.66-.71c.27-.3.54-.62.82-1s.51-.7.73-1.05a2.78,2.78,0,0,0,.4-.92.79.79,0,0,0-.18-.51,2.33,2.33,0,0,1-.29-.65h-.23a4.71,4.71,0,0,0-1.37.24,14.57,14.57,0,0,0-1.62.66c-.58.27-1.15.57-1.73.91s-1.13.68-1.64,1-1,.69-1.41,1a8.54,8.54,0,0,0-1,.87,13.42,13.42,0,0,0-1,1.07A4.73,4.73,0,0,0,221.83,43.25Z"/><path class="cls-2" d="M242.52,52.53a3.36,3.36,0,0,1-2.22-.68,2.3,2.3,0,0,1-.69-2.69c.21-.75.46-1.57.74-2.46s.57-1.82.87-2.74.59-1.83.87-2.72.47-1.55.66-2.22a1.62,1.62,0,0,1,0-.21v-.27a6.08,6.08,0,0,1,.12-1.19,6,6,0,0,1,.33-1.11,2.74,2.74,0,0,1,1-1.28,2.88,2.88,0,0,1,1.62-.38,4.11,4.11,0,0,1,1.55.26,2.78,2.78,0,0,1,1.07.78,2.58,2.58,0,0,1,.53,1.15.43.43,0,0,0,0,.11,14.08,14.08,0,0,1,3.77-1.64,9.31,9.31,0,0,1,2.31-.29c.32,0,.64,0,.95,0l.9.14c.34.06.71.14,1.1.24a5.93,5.93,0,0,1,1.22.44,5.84,5.84,0,0,1,1.67,1.23,2.79,2.79,0,0,1,.83,1.91,2.12,2.12,0,0,1-.27,1,2.78,2.78,0,0,1-.63.79,3.07,3.07,0,0,1-.87.55,2.81,2.81,0,0,1-1.17.24,5.62,5.62,0,0,1-1.25-.16,4.45,4.45,0,0,1-1.28-.47,2.48,2.48,0,0,1-.56-.42l-.4-.4-.21-.24H255a5.93,5.93,0,0,0-2.07.36,10.83,10.83,0,0,0-2,.94,14.8,14.8,0,0,0-1.71,1.2l-1.24,1c-.31.81-.65,1.67-1,2.58s-.76,1.88-1.13,2.88v.22c0,.36,0,.72-.05,1.08a2.9,2.9,0,0,1-.46,1.33l-.17.21a3.35,3.35,0,0,1-1.13.61A4.73,4.73,0,0,1,242.52,52.53Z"/><path class="cls-2" d="M242.56,47.48c.21-.75.46-1.57.74-2.48s.57-1.81.87-2.74.59-1.83.87-2.72.52-1.71.72-2.45c0-.11,0-.2,0-.28v-.27a4.92,4.92,0,0,1,.1-1,4.2,4.2,0,0,1,.27-.91,1.84,1.84,0,0,1,.61-.83,2,2,0,0,1,1.08-.22,3.1,3.1,0,0,1,1.16.18,1.77,1.77,0,0,1,.68.5,1.45,1.45,0,0,1,.32.7,4.28,4.28,0,0,1,.08.81,4.6,4.6,0,0,1,0,.5c0,.18,0,.33,0,.43.46-.31,1-.63,1.48-1a13.15,13.15,0,0,1,1.66-.89,12.12,12.12,0,0,1,1.87-.65,8.11,8.11,0,0,1,2.05-.26,7.55,7.55,0,0,1,.83,0c.28,0,.55.07.84.13s.67.12,1,.21a6.37,6.37,0,0,1,1,.38,4.65,4.65,0,0,1,1.38,1,1.82,1.82,0,0,1,.56,1.23,1.16,1.16,0,0,1-.15.53,2,2,0,0,1-.41.51,2.12,2.12,0,0,1-.61.39,1.92,1.92,0,0,1-.77.15,4.81,4.81,0,0,1-1-.13,4,4,0,0,1-1-.37,1.61,1.61,0,0,1-.36-.27l-.35-.36-.3-.33a1.17,1.17,0,0,0-.21-.2l-.27,0H257a7,7,0,0,0-2.42.42,12.3,12.3,0,0,0-2.13,1,15.2,15.2,0,0,0-1.83,1.29c-.56.46-1,.87-1.46,1.23-.33.87-.7,1.8-1.1,2.78s-.81,2-1.21,3.09v.4a8.15,8.15,0,0,1-.05,1,1.89,1.89,0,0,1-.3.89,2.18,2.18,0,0,1-.78.41,3.81,3.81,0,0,1-1.18.17,2.41,2.41,0,0,1-1.57-.44,1.32,1.32,0,0,1-.52-1A1.38,1.38,0,0,1,242.56,47.48Z"/><path class="cls-2" d="M268.48,52.79a15.46,15.46,0,0,1-3.55-.36,8.41,8.41,0,0,1-2.66-1.08,5.22,5.22,0,0,1-1.72-1.82,4.93,4.93,0,0,1-.58-2.38,7.13,7.13,0,0,1,.51-2.54,10.77,10.77,0,0,1,1.28-2.3,14.14,14.14,0,0,1,2.2-2.4,21.76,21.76,0,0,1,3.19-2.32,29.68,29.68,0,0,1,4.26-2.09,10,10,0,0,1,1.3-.36,11.88,11.88,0,0,1,1.49-.21,5.72,5.72,0,0,1,2.93-.69,8.66,8.66,0,0,1,3.7.73,7.15,7.15,0,0,1,2.55,2c.2.26.38.5.55.74a5.28,5.28,0,0,1,.5.9,5.64,5.64,0,0,1,.44,2.19,7,7,0,0,1-.72,3,11.43,11.43,0,0,1-1.93,2.82,18.12,18.12,0,0,1-2.93,2.55,24.09,24.09,0,0,1-3.78,2.17,15,15,0,0,1-3.18,1A19,19,0,0,1,268.48,52.79Zm5-12.54a7.21,7.21,0,0,0-1.4.47,11.18,11.18,0,0,0-1.53.8,14.55,14.55,0,0,0-1.45,1,11.92,11.92,0,0,0-1.22,1.09,12.77,12.77,0,0,0-.94,1.09,3.55,3.55,0,0,0-.47.8,2.78,2.78,0,0,0-.16.54,2,2,0,0,0-.05.46,1.32,1.32,0,0,0,.12.57,1,1,0,0,0,.35.39,2.55,2.55,0,0,0,.86.37,6,6,0,0,0,1.47.15,9.06,9.06,0,0,0,3.17-.55A11.44,11.44,0,0,0,274.9,46a10.26,10.26,0,0,0,1.93-1.82,7.07,7.07,0,0,0,1.06-1.71c.14-.37.26-.7.36-1a1.87,1.87,0,0,0,.12-.61.36.36,0,0,0-.08-.23,6.73,6.73,0,0,0-.54-.72l-.29-.37a4.86,4.86,0,0,1-.59.23,9.62,9.62,0,0,1-1.36.28C275,40.13,274.32,40.19,273.49,40.25Z"/><path class="cls-2" d="M263.42,43a9.13,9.13,0,0,1,1.15-2.08,13.81,13.81,0,0,1,2.05-2.24,21.1,21.1,0,0,1,3.05-2.2,28.63,28.63,0,0,1,4.11-2,10.12,10.12,0,0,1,2.74-.51,4.51,4.51,0,0,1,2.61-.68,7.48,7.48,0,0,1,3.27.64,6.08,6.08,0,0,1,2.2,1.73l.51.69a4.24,4.24,0,0,1,.4.72,4.8,4.8,0,0,1,.26.81,4.87,4.87,0,0,1,.1,1,6.14,6.14,0,0,1-.62,2.59A10.81,10.81,0,0,1,283.48,44a17.12,17.12,0,0,1-2.77,2.41,22.5,22.5,0,0,1-3.62,2.07,13.44,13.44,0,0,1-3,1,17.64,17.64,0,0,1-3.64.35,14.67,14.67,0,0,1-3.32-.33,7.42,7.42,0,0,1-2.34-.94,4.13,4.13,0,0,1-1.39-1.47,3.9,3.9,0,0,1-.46-1.9A6.07,6.07,0,0,1,263.42,43Zm4.12.21a3.47,3.47,0,0,0-.27,1.34,2.38,2.38,0,0,0,.21,1,2,2,0,0,0,.68.79,3.85,3.85,0,0,0,1.19.52,7,7,0,0,0,1.72.18,9.87,9.87,0,0,0,3.52-.62,12.13,12.13,0,0,0,2.9-1.55,11.7,11.7,0,0,0,2.12-2,7.39,7.39,0,0,0,1.21-2c.15-.38.28-.73.39-1.07a3.24,3.24,0,0,0,.16-.92,1.38,1.38,0,0,0-.24-.78,9.53,9.53,0,0,0-.61-.81l-.45-.57c-.14-.2-.28-.4-.39-.59a3.1,3.1,0,0,1-.43.39,2,2,0,0,1-.67.31,9.59,9.59,0,0,1-1.21.25c-.52.07-1.19.14-2,.19a8.5,8.5,0,0,0-1.66.55,13.83,13.83,0,0,0-1.66.87,15.17,15.17,0,0,0-1.54,1.08,14.1,14.1,0,0,0-1.32,1.18,13,13,0,0,0-1,1.19A4.42,4.42,0,0,0,267.54,43.18Z"/></g><g id="Layer_4" data-name="Layer 4"><text class="cls-3" transform="translate(44.58 75.2) scale(2.07 1)"><tspan class="cls-4">H</tspan><tspan class="cls-5" x="14.99" y="0">o</tspan><tspan class="cls-6" x="25.81" y="0">l</tspan><tspan class="cls-7" x="31.07" y="0">i</tspan><tspan class="cls-8" x="36.1" y="0">d</tspan><tspan class="cls-9" x="47.26" y="0">a</tspan><tspan x="57.21" y="0">y</tspan></text></g></g></svg>