<svg xmlns="http://www.w3.org/2000/svg" viewBox="0 0 214.5 100.34"><defs><style>.cls-1{fill:#e6e6e6;}</style></defs><title>logo-lt2</title><g id="Layer_2" data-name="Layer 2"><g id="Layer_1-2" data-name="Layer 1"><path class="cls-1" d="M38.37,95.28c1.6.53,1.8,1.48,1.47,2.62-.17.56-.54.74-1,.25a10.33,10.33,0,0,0-5-3.08A5.49,5.49,0,0,1,30,91.45a4.06,4.06,0,0,1,.1-1.65,3.16,3.16,0,0,0-1.7-3.55,5.25,5.25,0,0,1-1-.91c-.13-.13-.35-.34-.14-.51s.82-.56.4-1c-.57-.65-1-1.56-1.94-1.72-.76-.13-1.51,0-1.71-1.09-.07-.35-1-.54-1.05-.9-.31-1.51-1.8-1.72-2.64-2.61a3,3,0,0,1-.82-1.9c-.08-.89-.31-2-1.61-1.74-1,.18-2.19-.44-3.11.51-.32.32-.47-.1-.67-.26a11.47,11.47,0,0,1-3.09-4.48c-.21-.43,0-1.13-.4-1.61s-1-.67-1.1,0c-.21,1.21-1.07.82-1.62.75a2.51,2.51,0,0,1-2-1.56c-.32-.74-1.13-1.13-1.41-1.91-.08-.22-.28-.06-.4,0-.64.32-1-.06-1.3-.52A8.35,8.35,0,0,0,.47,62.16C.23,62-.1,61.64,0,61.5c.92-1,.06-2.14.14-3.2,0-.64.32-1,.92-1.08,1.24-.09,1.82-1.42,3.07-1.56.47-.06.41-.7,0-1.07a.69.69,0,0,1,.07-1.22c.84-.58.85-1.45,1-2.34.36-1.83.11-3-2-3.49-1.36-.29-2-1.92-1.81-3.3,0-.12,0-.31.1-.34,1.48-.55.71-1.48.43-2.36a1.2,1.2,0,0,1,.31-1.22,2,2,0,0,0,.13-2.91c-.57-.75-.28-3.62.5-4.35a1.74,1.74,0,0,0,.74-1.32c0-1,.61-1.27,1.41-1.3,1.1-.05,2.19,0,3.29,0,.85,0,1.2-.32,1.19-1.25,0-1.62-.61-3.16-.56-4.8a4.79,4.79,0,0,1,1.47-3.58c.79-.75,1.66-1.52,1-2.83-.16-.33.11-.62.38-.82a8.31,8.31,0,0,1,3.35-1.88,7.77,7.77,0,0,0,1.6-.55c.63-.27,1.18-.59.64-1.44-.35-.55-.21-1.06.47-1.21a4.9,4.9,0,0,1,2.45-.31c.74.28,1.82,1.5,1.75,1.78-.37,1.38.41,2,1.2,2.76.14.12,0,.47.09.71.17.67.87.82,1.36,1.1.24.13.51-.53.64-.91a3.47,3.47,0,0,1,1.42-1.89c.7-.45.8-1,.37-1.87A10.81,10.81,0,0,1,26,10.36c-.05-.27-.12-.64-.31-.76a2,2,0,0,1-.93-1.94c0-.74-.6-.82-1.19-.9C22.14,6.57,22,6.41,22.32,5a1.57,1.57,0,0,0-.51-1.64c-.52-.46-1-1,.2-1.28A1.5,1.5,0,0,0,23.1.75c.17-1,.64-.92,1.18-.28s1,.94,1.19,1.75.59,1.13,1.42.64,2.16-.59,3-1.35a.78.78,0,0,1,.81,0,4,4,0,0,0,1.76.38c.58,0,.77.31.79.84A4.93,4.93,0,0,0,37.1,7a1.64,1.64,0,0,1,1.11.65C39,8.77,40.34,9,41.56,9.4c.41.12.75.08.8.65a3,3,0,0,0,1.72,2.82c.63.29.88,1.28,1.92,1.1.35-.06.23.52.23.83a3.28,3.28,0,0,0,2.47,3.55A3,3,0,0,1,50.5,20a3,3,0,0,0,3.18,2.1c1-.08,1.77.94,2.85.81,0,0,.16.26.19.4.15,1.06.66,1.73,1.81,1.74.23,0,.35.17.39.39.16.83.55.78,1.19.4s1.24.38,1.89.52c.47.09.8.2,1.2-.08.73-.53,1.2-.25,1.48.51a4.68,4.68,0,0,0,1.61,2.09,9.67,9.67,0,0,1,2.06,2.22,11.7,11.7,0,0,0,2.7,2.41c.13.11.28.22.43.1,1.72-1.24,3,.36,4.25.92,1.07.49,2.23.81,3.29,1.34,1.25.62,1.93,1.27,1.82,2.62a3,3,0,0,0,.31,1.65,1.45,1.45,0,0,1,0,1.5c-.32.46-.87.09-1.34.06-.85-.08-1.79-.53-2.46.5-.19.3-.31.46-.2.83.58,2-.53,3.44-2.48,2.83a5.94,5.94,0,0,0-2.85-.53c-.44.06-1-.55-1.47-.78a2.29,2.29,0,0,0-3.23,2.09c0,2.07,0,2.07,2.08,3a2.81,2.81,0,0,1,1,2.85.82.82,0,0,0,0,.79c.14.31.44.72-.3.68-.47,0-.35.35-.3.61.49,2.31.51,2.34-1.83,3.26a1,1,0,0,0-.71.82,1.91,1.91,0,0,1-2.74,1.45,1.23,1.23,0,0,0-1.74.43c-.49,1-1.44,1-2.22,1.35-.18.09-.48.08-.56.21-.83,1.5-1.56.27-2.13-.18a4.94,4.94,0,0,1-2-3.34c-.07-.8-.43-2,.48-2.75.09-.07.21-.26.18-.29-.84-1.1-.25-2.69-1.29-3.71a1,1,0,0,0-.28-.22,8.49,8.49,0,0,0-1.73,1.76c.19.32.2.46-.25.54-1.19.2-2.92,2.28-2.77,3.45a2.13,2.13,0,0,1-1.18,2.31,2.61,2.61,0,0,0-1,1.53A8.22,8.22,0,0,1,46,64.51a3.35,3.35,0,0,0-1.12,1.64,2.67,2.67,0,0,1-1.61,1.72,2.17,2.17,0,0,0-1.41,2.3,4.58,4.58,0,0,1-.79,2.35A50,50,0,0,1,36.71,79c-.35.48,0,.75.24,1,1,1,2,2,3,3a1.45,1.45,0,0,1,.48,1.81,13.26,13.26,0,0,0-.5,5.87c.06.78.62,1.54-.68,1.78-.37.06-.37.54-.12.81C39.9,94.14,39.74,94.73,38.37,95.28Z"/><path class="cls-1" d="M79.51,87.53a5.16,5.16,0,0,1,.07-.77c0-.32.1-.65.17-1s.14-.66.22-1,.13-.56.17-.76l8.27-34.58a1.25,1.25,0,0,1,.23-.31.89.89,0,0,1,.27-.23.93.93,0,0,1,.42-.09h.35a1.36,1.36,0,0,1,1.24.72,2.22,2.22,0,0,1,.26.75,5.49,5.49,0,0,1,.07.93c0,.28,0,.57,0,.87s-.07.6-.11.88-.09.56-.14.8-.08.43-.11.57L86.59,72.83l1.94-.24q3.25-.9,6.63-1.88l6.63-1.89a2,2,0,0,0,.65-1A14.14,14.14,0,0,0,103,66c.19-.78.39-1.7.6-2.75s.49-2.21.8-3.5l.43-1.79q.27-1.31.48-2.67a23.56,23.56,0,0,1,.52-2.49,6.22,6.22,0,0,1,.78-1.83,1.39,1.39,0,0,1,1.2-.72,1.86,1.86,0,0,1,1.62.85,3.7,3.7,0,0,1,.57,2.12,12.89,12.89,0,0,1-.48,2.71c-.32,1.26-.72,2.81-1.2,4.63-.17.68-.37,1.37-.57,2.08s-.39,1.39-.56,2-.31,1.25-.42,1.8a6.93,6.93,0,0,0-.16,1.31,4.14,4.14,0,0,0,.1.93,4.31,4.31,0,0,1,.1,1,3.57,3.57,0,0,1-.49,1.95A8.22,8.22,0,0,1,105,73.19c0,.14-.06.36-.11.65s-.1.6-.17.91l-.27,1.33c-.19,1-.35,1.91-.48,2.86s-.24,1.9-.35,2.84-.21,1.87-.32,2.81-.26,1.87-.44,2.79a2.76,2.76,0,0,1-.36.92,3.07,3.07,0,0,1-.59.69,2.69,2.69,0,0,1-.71.44,1.65,1.65,0,0,1-.69.16,1.14,1.14,0,0,1-.8-.29,2.2,2.2,0,0,1-.48-.68,3.19,3.19,0,0,1-.23-.8,5.07,5.07,0,0,1-.06-.7c0-.21,0-.56.07-1s.11-1,.19-1.68.18-1.34.29-2.08.22-1.5.33-2.27q.38-2.66.89-5.8h-.14a5.37,5.37,0,0,0-1.14.14c-.41.1-.9.23-1.47.41-.26.1-.65.24-1.16.41l-1.74.6-2.12.73-2.25.78-5.54,1.93c-.26.67-.5,1.41-.72,2.19S84,83,83.78,83.85s-.37,1.6-.53,2.38-.3,1.52-.43,2.21a2.63,2.63,0,0,1-.26.63,3.92,3.92,0,0,1-.45.62,2.84,2.84,0,0,1-.53.47,1,1,0,0,1-.52.18,1.11,1.11,0,0,1-.75-.25,1.93,1.93,0,0,1-.48-.65,3.36,3.36,0,0,1-.25-.91A6.73,6.73,0,0,1,79.51,87.53Z"/><path class="cls-1" d="M110.52,78.34a21.85,21.85,0,0,1,1-3.36,22.79,22.79,0,0,1,1.68-3.61,24.5,24.5,0,0,1,2.5-3.56A22.78,22.78,0,0,1,119,64.55a5.15,5.15,0,0,1,.94-.5,3.77,3.77,0,0,1,1.31-.33,2.5,2.5,0,0,1,2.14-1.09,3.8,3.8,0,0,1,2.69,1,7.84,7.84,0,0,1,1.81,2.8c.15.38.28.76.41,1.12a9.82,9.82,0,0,1,.33,1.16,12,12,0,0,1,.21,1.31,12.65,12.65,0,0,1,.09,1.59,18,18,0,0,1-.51,4.19A22.56,22.56,0,0,1,127,80a23.92,23.92,0,0,1-2.28,3.9,21.16,21.16,0,0,1-3,3.34,8.27,8.27,0,0,1-2.44,1.57,7.55,7.55,0,0,1-3,.56,6.39,6.39,0,0,1-2.73-.53,5.11,5.11,0,0,1-1.92-1.52,6.7,6.7,0,0,1-1.14-2.37,11.27,11.27,0,0,1-.38-3.07A18,18,0,0,1,110.52,78.34Zm3.39.34a10.29,10.29,0,0,0-.18,1.14c0,.35,0,.69,0,1a7.27,7.27,0,0,0,.17,1.6,3.57,3.57,0,0,0,.57,1.28,2.77,2.77,0,0,0,1,.83,3,3,0,0,0,1.42.3,4.74,4.74,0,0,0,2.89-1,11,11,0,0,0,2.38-2.51,17.38,17.38,0,0,0,1.74-3.24,17.59,17.59,0,0,0,1-3.19c.12-.61.23-1.18.32-1.72a9,9,0,0,0,.13-1.48,4,4,0,0,0-.19-1.26c-.13-.39-.3-.83-.5-1.32-.13-.29-.25-.6-.37-.92s-.23-.64-.33-.95a4.27,4.27,0,0,1-.35.64,1.67,1.67,0,0,1-.55.49,4.05,4.05,0,0,1-1,.4,10.5,10.5,0,0,1-1.65.32A5.18,5.18,0,0,0,119,70a11.47,11.47,0,0,0-1.36,1.41,18.07,18.07,0,0,0-1.26,1.74,17.34,17.34,0,0,0-1.09,1.91,19.54,19.54,0,0,0-.83,1.92A9.12,9.12,0,0,0,113.91,78.68Z"/><path class="cls-1" d="M138.34,52.63a12,12,0,0,1,.32-1.92,5,5,0,0,1,.6-1.47,1.14,1.14,0,0,1,1-.59,1.93,1.93,0,0,1,.73.16,2.81,2.81,0,0,1,.75.43,2.57,2.57,0,0,1,.61.66,1.62,1.62,0,0,1,.24.86,2.24,2.24,0,0,1-.06.48c0,.18-.07.36-.1.53l-5.11,26.08c-.2,1-.37,2-.51,3s-.24,1.72-.3,2.33v.62q0,.78-.09,1.71a9.07,9.07,0,0,1-.3,1.72,4,4,0,0,1-.62,1.32,1.23,1.23,0,0,1-1,.54,1.62,1.62,0,0,1-1-.3,2.5,2.5,0,0,1-.67-.77,3.59,3.59,0,0,1-.39-1,4.61,4.61,0,0,1-.12-1c0-.28,0-.62.06-1s.09-.83.15-1.28.13-.88.2-1.32.13-.83.2-1.16l5.27-26.65C138.21,54,138.27,53.33,138.34,52.63Z"/><path class="cls-1" d="M142.67,83.55c.2-1,.45-2.18.74-3.51s.58-2.75.9-4.25.65-3,1-4.58.64-3.07.92-4.55a1.6,1.6,0,0,1,.15-.35,2.11,2.11,0,0,1,.34-.5,2.36,2.36,0,0,1,.57-.43,1.8,1.8,0,0,1,.82-.18,2.59,2.59,0,0,1,.68.09,2.23,2.23,0,0,1,.58.28,1.38,1.38,0,0,1,.41.48,1.52,1.52,0,0,1,.15.69v.17a1,1,0,0,1,0,.17l-.57,2.76q-1,4.62-1.95,9.29c-.66,3.1-1.31,6.22-1.93,9.34,0,.1-.07.23-.13.39a2,2,0,0,1-.22.47,1.63,1.63,0,0,1-.35.39.79.79,0,0,1-.49.15,1.69,1.69,0,0,1-.94-.27,2.52,2.52,0,0,1-.69-.69,3.31,3.31,0,0,1-.43-.91,3.2,3.2,0,0,1-.14-.94v-.23a.75.75,0,0,1,0-.24ZM148,56.61a9.9,9.9,0,0,1,.37-1.32,3.37,3.37,0,0,1,.94-1.41,4.12,4.12,0,0,1,.79-.43,2.07,2.07,0,0,1,.68-.19.69.69,0,0,1,.42.18,2.72,2.72,0,0,1,.37.39,4.07,4.07,0,0,1,.39.57.74.74,0,0,1,.67.47,3,3,0,0,1,.15,1,4.22,4.22,0,0,1-.06.75c0,.23-.08.41-.11.55a2.47,2.47,0,0,1-.46,1,3.69,3.69,0,0,1-.8.78,3.75,3.75,0,0,1-.94.51,2.55,2.55,0,0,1-.86.18,1.16,1.16,0,0,1-.72-.2,3.54,3.54,0,0,1-.65-.89,1.8,1.8,0,0,1-.25-.61,2.87,2.87,0,0,1,0-.38,3.89,3.89,0,0,1,0-.51C148,56.9,148,56.75,148,56.61Z"/><path class="cls-1" d="M152.62,79.39a23.59,23.59,0,0,1,.71-2.81,20.37,20.37,0,0,1,1.09-2.79A18.68,18.68,0,0,1,156,71.1a16.94,16.94,0,0,1,2.1-2.51A21.6,21.6,0,0,1,159.8,67a15.45,15.45,0,0,1,1.85-1.29,10.67,10.67,0,0,1,1.89-.87,5.61,5.61,0,0,1,1.87-.32,4.37,4.37,0,0,1,1.19.14,4.28,4.28,0,0,1,1,.4c.14-.6.5-2.24,1.09-4.89s1.32-6.35,2.18-11.09a3.45,3.45,0,0,1,.63-1.17,1.26,1.26,0,0,1,1-.47,3.08,3.08,0,0,1,.8.1,1.53,1.53,0,0,1,.69.36,1.81,1.81,0,0,1,.49.74,3.43,3.43,0,0,1,.19,1.22l-4.11,20.9c-.12.59-.24,1.39-.35,2.38s-.21,2-.3,3.17-.17,2.2-.23,3.29-.08,2-.08,2.79a16.35,16.35,0,0,1-.26,2.89c-.09.42-.17.77-.26,1.06a2.1,2.1,0,0,1-.36.7,1.24,1.24,0,0,1-.56.39,2.55,2.55,0,0,1-.85.12,2.27,2.27,0,0,1-.92-.16,1.15,1.15,0,0,1-.49-.43,1.55,1.55,0,0,1-.19-.62c0-.24,0-.49,0-.76s0-.54,0-.83a3.15,3.15,0,0,0-.17-.82l-.68.55-.87.69-.82.65-.57.43c-.32.22-.67.46-1.07.71a11,11,0,0,1-1.27.7,9.13,9.13,0,0,1-1.43.54,5.54,5.54,0,0,1-1.5.21,4.3,4.3,0,0,1-3.34-1.59,6.18,6.18,0,0,1-1.1-2,9.43,9.43,0,0,1-.4-2.91,11.52,11.52,0,0,1,.05-1.18A12.54,12.54,0,0,1,152.62,79.39Zm3.53-.21a8,8,0,0,0-.16,1.51,9.22,9.22,0,0,0,.1,1.42,3.54,3.54,0,0,0,.38,1.15,2.19,2.19,0,0,0,.74.8,2.12,2.12,0,0,0,1.19.3,2.29,2.29,0,0,0,.88-.19,6.6,6.6,0,0,0,.93-.45c.3-.18.59-.37.86-.57l.68-.54c.52-.43,1-.86,1.44-1.27A9.58,9.58,0,0,0,164.38,80a8,8,0,0,0,.93-1.62,10.51,10.51,0,0,0,.65-2.07c.13-.69.25-1.33.35-1.9s.2-1.13.28-1.68.16-1.11.22-1.68.14-1.2.21-1.9a1.54,1.54,0,0,0-.28-.3.83.83,0,0,0-.52-.14,5.54,5.54,0,0,0-1.8.35,11,11,0,0,0-2,1,14.34,14.34,0,0,0-2,1.59,15.63,15.63,0,0,0-1.84,2.1,14.6,14.6,0,0,0-1.48,2.53A12.42,12.42,0,0,0,156.15,79.18Z"/><path class="cls-1" d="M185.25,87.19a13.27,13.27,0,0,1,.15-1.81,20.9,20.9,0,0,0,.14-2.61c-.45.42-.95.91-1.49,1.48s-1.11,1.12-1.7,1.64a12.48,12.48,0,0,1-1.74,1.32,3.19,3.19,0,0,1-1.63.53,2.9,2.9,0,0,1-1.16-.24,2.8,2.8,0,0,1-.94-.62,7.43,7.43,0,0,1-1.56-2.19,6.22,6.22,0,0,1-.48-2.54,10.7,10.7,0,0,1,.09-1.36c.06-.47.15-1,.28-1.61a25.84,25.84,0,0,1,2.66-7.61,21.42,21.42,0,0,1,4.69-6,5.2,5.2,0,0,1,2.16-1.23,7.85,7.85,0,0,1,3.2-.2l1.05.16a6.17,6.17,0,0,1,.77-.18,3,3,0,0,1,.62-.06,2.2,2.2,0,0,1,1,.21,1.78,1.78,0,0,1,.65.56,2.28,2.28,0,0,1,.36.81,3.69,3.69,0,0,1,.11,1,5,5,0,0,1-.16,1.29c-.11.4-.22.82-.33,1.23l-2.69,13.72c-.06.74-.1,1.43-.14,2.05a12.7,12.7,0,0,1-.25,1.75l-.15.58a2.33,2.33,0,0,1-.81,1.24,1.31,1.31,0,0,1-.8.23,3.93,3.93,0,0,1-1-.1,1.38,1.38,0,0,1-.58-.3.88.88,0,0,1-.26-.47A2.41,2.41,0,0,1,185.25,87.19Zm-6.78-7.86c-.05.25-.11.59-.17,1a10.47,10.47,0,0,0-.09,1.36,4.43,4.43,0,0,0,.16,1.26.7.7,0,0,0,.72.56,2.91,2.91,0,0,0,1.6-.48,8,8,0,0,0,1.4-1.16c.58-.61,1.18-1.29,1.79-2s1.17-1.55,1.71-2.38A21.69,21.69,0,0,0,187,74.92a11.76,11.76,0,0,0,.91-2.61c.11-.51.2-1.09.28-1.75a17.08,17.08,0,0,0,.11-1.77,1.72,1.72,0,0,0-.13-.66.45.45,0,0,0-.47-.32,4.57,4.57,0,0,0-2,.49,8.77,8.77,0,0,0-2,1.33,13.08,13.08,0,0,0-1.78,2A20,20,0,0,0,180.43,74a20.38,20.38,0,0,0-1.19,2.66A19.65,19.65,0,0,0,178.47,79.33Z"/><path class="cls-1" d="M195.24,100.34a.81.81,0,0,1-.55-.21,1.58,1.58,0,0,1-.42-.55,3.25,3.25,0,0,1-.28-.74,3.45,3.45,0,0,1,0-1.65,2.94,2.94,0,0,1,.26-.64,1.72,1.72,0,0,1,.32-.43,2.22,2.22,0,0,1,.32-.23c.33-.11.71-.22,1.15-.34a10.23,10.23,0,0,0,1.41-.54,12,12,0,0,0,1.64-.91,10.7,10.7,0,0,0,1.78-1.47,28,28,0,0,0,1.93-2.12,19,19,0,0,0,1.95-2.84A25.86,25.86,0,0,0,206.51,84a27.92,27.92,0,0,0,1.35-4.8L207,80.39c-.33.46-.69.93-1.07,1.4s-.78.94-1.19,1.38a13.72,13.72,0,0,1-1.22,1.2,6,6,0,0,1-1.2.84,2.29,2.29,0,0,1-1.09.32,3.54,3.54,0,0,1-2.33-.8,7,7,0,0,1-1.77-2.61,5.47,5.47,0,0,1-.35-1.35,11.94,11.94,0,0,1-.12-1.7c0-.93,0-1.84.1-2.73s.17-1.8.31-2.76.29-2,.48-3,.39-2.21.62-3.48q0-.5.06-.93c0-.25,0-.48.05-.71a4.11,4.11,0,0,1,0-.41,2.39,2.39,0,0,1,.24-.84,2.52,2.52,0,0,1,.47-.67,2.26,2.26,0,0,1,.59-.45,1.45,1.45,0,0,1,.62-.15,4.19,4.19,0,0,1,.86.09,1.1,1.1,0,0,1,.67.4,3.24,3.24,0,0,1,.52,1.23,5.84,5.84,0,0,1,.18,1.35,4.8,4.8,0,0,1-.18.94,8.63,8.63,0,0,1-.5,1.45c-.32,1.57-.59,2.89-.79,4s-.37,2-.48,2.71-.2,1.29-.25,1.72a8.68,8.68,0,0,0-.07,1,5.53,5.53,0,0,0,.37,2.24c.24.56.54.83.9.83a2.05,2.05,0,0,0,.7-.15,3.48,3.48,0,0,0,.85-.52,17.56,17.56,0,0,0,3-3,17.76,17.76,0,0,0,2.12-3.54,26.8,26.8,0,0,0,1.53-4.25q.64-2.33,1.18-5.1A1,1,0,0,1,211,64a1.6,1.6,0,0,1,.37-.31,2.43,2.43,0,0,1,.46-.22,1.35,1.35,0,0,1,.47-.09,2,2,0,0,1,1.66.74,3.14,3.14,0,0,1,.59,2,10.39,10.39,0,0,1-.19,1.51c-.12.7-.26,1.43-.43,2.2s-.33,1.51-.5,2.21-.3,1.22-.4,1.55l-1,3.62c-.45,1.63-.85,3.13-1.21,4.5s-.75,2.65-1.16,3.84a29.26,29.26,0,0,1-1.37,3.37,21.13,21.13,0,0,1-1.85,3.1,27.27,27.27,0,0,1-2.57,3,39.18,39.18,0,0,1-3.56,3.16,15.39,15.39,0,0,1-2.48,1.57A5.59,5.59,0,0,1,195.24,100.34Z"/></g></g></svg>