<svg xmlns="http://www.w3.org/2000/svg" viewBox="0 0 290 99.32"><defs><style>.cls-1{fill:#29abe2;stroke:#fff;stroke-miterlimit:10;}.cls-2,.cls-3{fill:#fff;}.cls-3{font-size:27.65px;font-family:MVBoli, MV Boli;}.cls-4{letter-spacing:-0.01em;}.cls-5{letter-spacing:-0.01em;}.cls-6{letter-spacing:0em;}.cls-7{letter-spacing:-0.01em;}.cls-8{letter-spacing:-0.01em;}.cls-9{letter-spacing:-0.01em;}</style></defs><title>logo-mne</title><g id="Layer_2" data-name="Layer 2"><g id="mont"><path class="cls-1" d="M38.8,95.68c1.6.53,1.8,1.47,1.47,2.6-.17.56-.54.75-1,.26a10.33,10.33,0,0,0-5-3.08,5.47,5.47,0,0,1-3.82-3.62,4,4,0,0,1,.09-1.64,3.16,3.16,0,0,0-1.7-3.55,4.63,4.63,0,0,1-1-.91.68.68,0,0,1-.14-.51c.09-.36.48-.9.37-1A6.16,6.16,0,0,0,26.2,82.5c-.66-.28-1.48,0-1.68-1.12-.07-.35-1-.54-1.05-.9-.31-1.51-1.83-1.69-2.63-2.62a5.56,5.56,0,0,1-.78-1.9c-.28-.86-.36-1.94-1.65-1.72-1,.17-2.2-.45-3.13.49-.06.07-.51-.09-.64-.26C13.57,73,12.49,71.55,11.51,70c-.28-.44-.16-1.12-.41-1.6-.08-.16-1-.06-1.06,0-.08,1.24-1.16.91-1.59.73a6.46,6.46,0,0,1-2-1.55C5.91,67,5.51,66.29,5,65.67c0-.07-.28,0-.4,0a3.69,3.69,0,0,1-1.28-.54c-.85-.79-1.62-1.67-2.4-2.53C.76,62.38.46,62,.5,61.93c.93-1-.06-2.16.2-3.19a1.92,1.92,0,0,1,.88-1.07c1-.57,2.06-1,3-1.57.16-.09,0-.7,0-1.08a4,4,0,0,1,.08-1.21c.28-.8.74-1.54,1-2.35.52-1.8.16-3-2-3.48-1.36-.29-2-1.91-1.8-3.29,0-.12,0-.32.09-.34,1.49-.56.68-1.48.45-2.37a1.58,1.58,0,0,1,.33-1.18,2.11,2.11,0,0,0,.1-2.94c-.58-.74-.23-3.56.47-4.36A2.68,2.68,0,0,0,4,32.2a1.32,1.32,0,0,1,1.45-1.3c1.09,0,2.19,0,3.28,0,.85,0,1.29-.31,1.18-1.24-.2-1.6-.37-3.2-.51-4.81a4.21,4.21,0,0,1,1.44-3.57c.78-.74,1.64-1.51,1-2.83-.08-.18.15-.66.37-.79,1.09-.67,2.21-1.29,3.35-1.88.49-.25,1.07-.34,1.59-.57s1.18-.59.64-1.44c-.35-.55-.21-1,.47-1.21a4.86,4.86,0,0,1,2.44-.31c.74.28,1.86,1.32,1.75,1.79-.31,1.38.41,2,1.2,2.74.13.13,0,.56.1.7a16.3,16.3,0,0,0,1.31,1.17c.23-.32.45-.65.68-1a17.7,17.7,0,0,1,1.44-1.86,1.38,1.38,0,0,0,.34-1.9,23.18,23.18,0,0,1-1.15-3.08c-.09-.26-.13-.63-.32-.75a2.15,2.15,0,0,1-1-1.93c0-.32-.71-.78-1.16-.87C22.6,7,22.55,6.9,22.73,5.48a2.68,2.68,0,0,0-.5-1.6c-.38-.58-1-1,.22-1.33a2.12,2.12,0,0,0,1.06-1.31c.31-.95.69-.93,1.22-.27a12,12,0,0,1,1.14,1.76c.34.62.62,1.08,1.47.63a32.86,32.86,0,0,1,3-1.35,1.48,1.48,0,0,1,.81,0,8.39,8.39,0,0,1,1.75.39,1.35,1.35,0,0,1,.77.82,5.16,5.16,0,0,0,3.83,4.3,2.11,2.11,0,0,1,1.1.63C39.5,9.23,40.79,9.46,42,9.92c.3.12.72.37.77.62.23,1.18.44,2.23,1.75,2.82.64.28.9,1.34,1.93,1.09a3,3,0,0,1,.22.83c.05,1.94.67,2.73,2.45,3.59a4.53,4.53,0,0,1,1.76,1.66c.78,1.24,1.58,2.14,3.24,2.1a9.36,9.36,0,0,1,2.83.78c.1,0,.18.26.2.4a1.74,1.74,0,0,0,1.81,1.75.62.62,0,0,1,.38.38c.19.83.54.64,1.21.44s1.25.29,1.9.4a2,2,0,0,0,1.16,0c.78-.43,1.12-.16,1.52.54a14.41,14.41,0,0,0,1.59,2.09c.66.76,1.34,1.51,2.06,2.21S70.54,33.2,71.45,34c.1.08.35.15.43.09,1.72-1.23,2.86.61,4.29.86,1.12.2,2.12,1,3.22,1.43A2.41,2.41,0,0,1,81.25,39a13.23,13.23,0,0,0,.28,1.63c.07.51.06,1,.09,1.53l-1.37,0c-.85,0-1.84-.54-2.43.54a1.28,1.28,0,0,0-.2.8c.52,2-.56,3.44-2.51,2.83a6,6,0,0,0-2.84-.53c-.44.07-1-.54-1.47-.77a2.29,2.29,0,0,0-3.23,2.09c0,2.06,0,2.06,2.08,3A3,3,0,0,1,70.71,53c-.09.23,0,.52,0,.78a4.93,4.93,0,0,1-.3.67c-.1.2-.32.44-.29.61.47,2.31.48,2.3-1.82,3.31a1.36,1.36,0,0,0-.69.78,2,2,0,0,1-2.77,1.44,1.22,1.22,0,0,0-1.74.43c-.49,1-1.44,1-2.22,1.35-.18.08-.48.07-.56.2-.83,1.5-1.67.33-2.11-.18a10,10,0,0,1-2-3.34c-.24-.79.31-1.81.52-2.73,0-.11.19-.23.17-.3-.42-1.24-.86-2.47-1.3-3.7a.62.62,0,0,0-.26-.21c-.59.57-1.18,1.15-1.75,1.75-.12.14-.13.47-.25.5-1.17.28-2.91,2.32-2.76,3.49a2.36,2.36,0,0,1-1.15,2.33,5.54,5.54,0,0,0-1,1.52c-.65,1.1-1.27,2.21-1.93,3.3a16.15,16.15,0,0,1-1.15,1.6,7.45,7.45,0,0,1-1.62,1.69,2.66,2.66,0,0,0-1.43,2.33,5.13,5.13,0,0,1-.81,2.31c-1.37,2.21-2.86,4.34-4.25,6.54a1.09,1.09,0,0,0,.22,1q1.44,1.56,3,3a1.71,1.71,0,0,1,.51,1.8,42.8,42.8,0,0,0-.51,5.87c0,.76.61,1.56-.7,1.78a1,1,0,0,0-.11.79C40.32,94.54,40.17,95.12,38.8,95.68Z"/></g><g id="Layer_3" data-name="Layer 3"><path class="cls-2" d="M16.26,58.85a4.58,4.58,0,0,1-2.87-.79,2.19,2.19,0,0,1-.93-1.77,2.84,2.84,0,0,1,.15-.87,23.41,23.41,0,0,1,1.29-2.84c.54-1,1.17-2.09,1.87-3.19s1.48-2.23,2.32-3.36,1.72-2.23,2.63-3.3,1.86-2.11,2.82-3.07a35.4,35.4,0,0,1,2.88-2.6l1-.78c.42-.32.88-.65,1.4-1s1-.66,1.6-1,1.17-.65,1.75-.92a13.28,13.28,0,0,1,1.82-.7,7,7,0,0,1,2-.32,8.31,8.31,0,0,1,2.17.28,5.64,5.64,0,0,1,1.76.84,3.81,3.81,0,0,1,1.12,1.26,3.15,3.15,0,0,1,.39,1.54,3.25,3.25,0,0,1-.08.69,5.39,5.39,0,0,1-.17.63L40,41.84l.1-.09c.57-.57,1.14-1.12,1.7-1.65l1.53-1.45,1.16-1.06.43-.38c.29-.26.64-.56,1.06-.9s.88-.71,1.39-1.08,1-.76,1.62-1.13a20.57,20.57,0,0,1,1.81-1,13.53,13.53,0,0,1,1.88-.77,7.13,7.13,0,0,1,2.18-.37,4,4,0,0,1,1.76.36,2.91,2.91,0,0,1,1.06.82,2.53,2.53,0,0,1,.48,1,4.09,4.09,0,0,1,.11,1,6.72,6.72,0,0,1-.18,1.53,10.17,10.17,0,0,1-.4,1.34c0,.23-1.94,8-1.94,8-.22.88-1.22,5-1.22,5-.18.74-.34,1.4-.49,2s-.27,1.05-.37,1.38c0,.17-.13.39-.24.67a4.24,4.24,0,0,1-.57,1,3.89,3.89,0,0,1-1.12.94,4.28,4.28,0,0,1-2.11.5,3.43,3.43,0,0,1-1.55-.36,3.74,3.74,0,0,1-.94-.65,3.08,3.08,0,0,1-.61-.81,2.14,2.14,0,0,1-.25-.81l0-.14,4.61-15.09c-.66.47-1.33,1-2,1.56s-1.61,1.41-2.4,2.17-1.57,1.53-2.28,2.3-1.21,1.27-1.87,2l-2,2c-.66.67-1.3,1.35-1.93,2s-1.17,1.31-1.68,1.91a8,8,0,0,0-.68,1A13.21,13.21,0,0,1,35.11,56a7.07,7.07,0,0,1-1.19,1.34,3.56,3.56,0,0,1-2.39.87A5.17,5.17,0,0,1,30,58a3,3,0,0,1-1.12-.6,1.85,1.85,0,0,1-.56-.8,2.05,2.05,0,0,1-.14-.79,3.37,3.37,0,0,1,.13-.93c.07-.26.15-.51.23-.75.33-1,.68-1.9,1-2.84s2.29-5.91,2.29-5.91c.4-1,.81-2.15,1.23-3.32.1-.32.23-.7.37-1.11s.26-.81.38-1.23a11.08,11.08,0,0,0,.29-1.17q.06-.3.09-.57a9.32,9.32,0,0,0-1.68,1,17,17,0,0,0-1.81,1.55c-.62.6-1.21,1.23-1.77,1.87s-1.08,1.28-1.57,1.91-.9,1.2-1.25,1.7l-.38.49-.55.75c-.24.33-.53.76-.87,1.27s-.75,1.17-1.22,2-1,1.76-1.63,2.87-1.32,2.41-2.09,3.91a2.7,2.7,0,0,1-1.3,1.12A4.49,4.49,0,0,1,16.26,58.85Z"/><path class="cls-2" d="M14,55.64a22.75,22.75,0,0,1,1.24-2.72q.8-1.5,1.83-3.12c.7-1.09,1.46-2.19,2.29-3.31s1.7-2.2,2.59-3.26,1.82-2.06,2.76-3a34.89,34.89,0,0,1,2.79-2.52l1-.76c.4-.3.84-.61,1.33-.93s1-.64,1.54-1A18,18,0,0,1,33,34.21a12.35,12.35,0,0,1,1.59-.62A5.18,5.18,0,0,1,36,33.36a5.88,5.88,0,0,1,1.62.21,3.88,3.88,0,0,1,1.26.6,2.77,2.77,0,0,1,.82.92A2.52,2.52,0,0,1,40,36.28a2.48,2.48,0,0,1-.06.54c0,.19-.09.37-.15.57l-2.59,9c.23-.25.56-.58,1-1L39.61,44l1.66-1.62c.57-.57,1.14-1.11,1.69-1.64s1.06-1,1.53-1.44l1.14-1.06.42-.37,1-.87c.41-.33.85-.68,1.34-1s1-.73,1.56-1.08a13.75,13.75,0,0,1,1.65-.95,12.73,12.73,0,0,1,1.66-.69,5,5,0,0,1,1.56-.27,2.16,2.16,0,0,1,.94.18,1.72,1.72,0,0,1,.61.48,1.8,1.8,0,0,1,.32.7,3.86,3.86,0,0,1,.1.84,6,6,0,0,1-.17,1.37,10.42,10.42,0,0,1-.37,1.25c-.08.3-.18.73-.32,1.29s-.28,1.2-.46,1.93-.37,1.51-.57,2.35-.41,1.7-.62,2.57l-.63,2.58-.59,2.37c-.18.74-.34,1.4-.49,2s-.27,1-.36,1.35c-.05.15-.12.36-.22.61a2.87,2.87,0,0,1-.45.76,2.63,2.63,0,0,1-.77.65,2.34,2.34,0,0,1-1.18.27,1.65,1.65,0,0,1-.71-.17,2.28,2.28,0,0,1-.6-.43,2,2,0,0,1-.42-.55,1.71,1.71,0,0,1-.18-.54l4.86-15.92.11-.4a1.08,1.08,0,0,0,0-.34.88.88,0,0,0-.06-.33c0-.09-.07-.18-.1-.27l-.14-.26a21,21,0,0,0-2.26,1.4c-.8.56-1.61,1.19-2.42,1.88S46.11,42,45.3,42.73,43.7,44.29,43,45.07c-.57.62-1.19,1.26-1.85,1.94l-2,2q-1,1-1.95,2c-.63.68-1.2,1.34-1.72,2a9.31,9.31,0,0,0-.77,1.16,16,16,0,0,1-.87,1.39,6.87,6.87,0,0,1-1,1.16,1.83,1.83,0,0,1-1.25.48,3.25,3.25,0,0,1-.9-.11,1.69,1.69,0,0,1-.57-.3,1,1,0,0,1-.3-.44,1.53,1.53,0,0,1-.09-.54,2.74,2.74,0,0,1,.1-.74c.07-.24.14-.48.22-.71.33-.94.67-1.88,1-2.82l1.11-2.86,1.18-3c.4-1,.81-2.16,1.24-3.35.1-.33.23-.7.37-1.12s.27-.83.39-1.25.23-.84.31-1.23a5.47,5.47,0,0,0,.11-1.07,2,2,0,0,0-.09-.67.35.35,0,0,0-.35-.25,4.27,4.27,0,0,0-1.82.45,11.16,11.16,0,0,0-1.94,1.16A19.37,19.37,0,0,0,29.6,40c-.64.63-1.25,1.27-1.83,1.93s-1.11,1.31-1.61,2-.92,1.22-1.28,1.74l-.34.44c-.15.19-.34.45-.58.79s-.54.77-.89,1.3-.76,1.19-1.24,2-1,1.76-1.64,2.88-1.33,2.43-2.1,3.93a1.52,1.52,0,0,1-.74.63,2.58,2.58,0,0,1-1.09.24,2.88,2.88,0,0,1-1.78-.45,1.37,1.37,0,0,1-.57-1.11A2.39,2.39,0,0,1,14,55.64Z"/><path class="cls-2" d="M82.24,58.71a15,15,0,0,1-3.61-.39c-1.08-.27-18-.67-18.74-1.18a5.1,5.1,0,0,1-1.64-1.84,4.94,4.94,0,0,1-.51-2.23,7.07,7.07,0,0,1,.46-2.42,10.26,10.26,0,0,1,1.18-2.26A14.32,14.32,0,0,1,61.45,46c.84-.79,17.86-1.58,19-2.34a26,26,0,0,1,4.09-2.14A9.37,9.37,0,0,1,86,41.09a11.53,11.53,0,0,1,1.33-.22,6.23,6.23,0,0,1,3.08-.71,8.64,8.64,0,0,1,3.93.83,7.26,7.26,0,0,1,2.5,2.08l.51.74a5.41,5.41,0,0,1,.45.86,6.32,6.32,0,0,1,.28.93,5.62,5.62,0,0,1,.11,1.13,7.12,7.12,0,0,1-.65,2.89,11.2,11.2,0,0,1-1.8,2.79A16.94,16.94,0,0,1,92.91,55a22.24,22.24,0,0,1-3.62,2.21,14.35,14.35,0,0,1-3.18,1.11A17.77,17.77,0,0,1,82.24,58.71Zm4.89-12.56a5.9,5.9,0,0,0-1.07.4,10.18,10.18,0,0,0-1.36.76,16.38,16.38,0,0,0-1.33,1,11.51,11.51,0,0,0-2,2.17,3.57,3.57,0,0,0-.47.86,3.39,3.39,0,0,0-.17.59,3.15,3.15,0,0,0,0,.52,1.78,1.78,0,0,0,.14.7,1,1,0,0,0,.32.4,1.8,1.8,0,0,0,.59.27,4.37,4.37,0,0,0,1.08.11,6.79,6.79,0,0,0,2.57-.48,10.06,10.06,0,0,0,4.16-3.16,7.13,7.13,0,0,0,1-1.76c.14-.37.26-.71.35-1a2.45,2.45,0,0,0,.12-.71.76.76,0,0,0-.1-.39c-.14-.22-.31-.46-.52-.73h0A9.16,9.16,0,0,1,89,46C88.51,46,87.89,46.1,87.13,46.15Z"/><path class="cls-2" d="M59.61,50.89a9.72,9.72,0,0,1,1.08-2.09c.49-.73,17.13-1.48,17.93-2.23a19.13,19.13,0,0,1,2.86-2.2,25.21,25.21,0,0,1,3.86-2A6.59,6.59,0,0,1,86.42,42a7.33,7.33,0,0,1,1.49-.2,4,4,0,0,1,2.45-.68,6.74,6.74,0,0,1,3.07.63,6,6,0,0,1,2.07,1.74q.25.34.48.69a4.44,4.44,0,0,1,.37.72,4.79,4.79,0,0,1,.24.81,4.22,4.22,0,0,1,.1,1,6.4,6.4,0,0,1-.59,2.6,10.48,10.48,0,0,1-1.65,2.58,17,17,0,0,1-2.61,2.41,22.49,22.49,0,0,1-3.39,2.07,12.73,12.73,0,0,1-2.79,1,15.57,15.57,0,0,1-3.42.35,13,13,0,0,1-3.12-.33c-.88-.22-17.61-.54-18.19-1A3.87,3.87,0,0,1,59.62,55a4.15,4.15,0,0,1-.43-1.9A6.4,6.4,0,0,1,59.61,50.89Zm19.87.21a4.43,4.43,0,0,0-.2.7,3.55,3.55,0,0,0-.06.64,2.54,2.54,0,0,0,.2,1,2,2,0,0,0,.65.79,3.2,3.2,0,0,0,1.1.51,5.93,5.93,0,0,0,1.63.19,8.77,8.77,0,0,0,3.3-.62,10.79,10.79,0,0,0,2.72-1.56,11.13,11.13,0,0,0,2-2,8.06,8.06,0,0,0,1.13-2c.14-.37.26-.73.36-1.06a3.2,3.2,0,0,0,.15-.92,1.44,1.44,0,0,0-.22-.78q-.22-.36-.57-.81l-.42-.57a5.66,5.66,0,0,1-.37-.59,2.92,2.92,0,0,1-.4.39,2,2,0,0,1-.63.31A8.36,8.36,0,0,1,88.7,45c-.48.07-1.11.14-1.89.19a7.88,7.88,0,0,0-1.56.55,12.49,12.49,0,0,0-1.55.87A14.62,14.62,0,0,0,81,48.85c-.36.41-.68.8-1,1.19A4.29,4.29,0,0,0,79.48,51.1Z"/><path class="cls-2" d="M115.11,58.48a4.12,4.12,0,0,1-2.27-.51,1.69,1.69,0,0,1-.8-1.47,4.76,4.76,0,0,1,.23-1.31,14.07,14.07,0,0,1,.6-1.53c.25-.54.54-1.11.86-1.72s.69-1.21,1.07-1.84.58-1,.86-1.47.53-.93.75-1.38a9.56,9.56,0,0,0,.5-1.22,2.92,2.92,0,0,0,.18-.94.66.66,0,0,0,0-.25,4.69,4.69,0,0,0-1.19.18,15.14,15.14,0,0,0-1.71.63c-.62.28-1.27.61-1.93,1s-1.33.76-2,1.15c-.38.23-.72.42-1,.6a5,5,0,0,1-.79.35c-.12.17-.25.37-.38.59-.24.39-.46.81-.68,1.26s-.45,1-.65,1.43-.37.92-.5,1.33a4.17,4.17,0,0,0-.17.59c-.05.23-.11.46-.17.72s-.14.52-.23.81-.2.61-.33,1a2,2,0,0,1-.73.94,3.34,3.34,0,0,1-.94.48,3.92,3.92,0,0,1-1,.22,4.68,4.68,0,0,1-.59,0,5,5,0,0,1-2.32-.49,2,2,0,0,1-1.14-1.92,5.17,5.17,0,0,1,0-.54,2.58,2.58,0,0,1,.19-.75c.33-1,.67-1.93,1-2.76s.66-1.61,1-2.32.67-1.38,1-2l1-1.87c.36-.64.72-1.29,1.11-2s.78-1.4,1.21-2.21a2.36,2.36,0,0,1,1.5-1A6.31,6.31,0,0,1,108.5,40a5.24,5.24,0,0,1,2.28.45,2,2,0,0,1,1.14,1.21l.92-.37a19.22,19.22,0,0,1,2.49-.76,11.84,11.84,0,0,1,2.69-.32,8.14,8.14,0,0,1,4.5,1.1,3.71,3.71,0,0,1,1.71,3.3,6.93,6.93,0,0,1-.55,2.53,30.48,30.48,0,0,1-1.29,2.81c-.51,1-1.06,2-1.65,3.08s-1.11,2.13-1.59,3.2a5.08,5.08,0,0,1-.52.91,3,3,0,0,1-.86.8,4,4,0,0,1-1.27.47A7.35,7.35,0,0,1,115.11,58.48Z"/><path class="cls-2" d="M117,43.83a6.33,6.33,0,0,0-1.75.27,15,15,0,0,0-1.94.72q-1,.45-2,1c-.69.38-1.37.78-2,1.18l-1,.56a4.63,4.63,0,0,1-.94.38,7.55,7.55,0,0,0-.68,1c-.25.41-.48.85-.72,1.32s-.45,1-.66,1.47-.39,1-.53,1.39a4.46,4.46,0,0,0-.18.67c0,.21-.11.44-.17.68s-.13.5-.22.78-.19.59-.31.94a1.15,1.15,0,0,1-.38.49A2.08,2.08,0,0,1,103,57a2.94,2.94,0,0,1-.54.12,3.27,3.27,0,0,1-.4,0,3.09,3.09,0,0,1-1.45-.29,1.14,1.14,0,0,1-.56-1.12,4.12,4.12,0,0,1,0-.48,1.78,1.78,0,0,1,.14-.55c.34-1,.67-1.94,1-2.76s.64-1.57,1-2.27.66-1.36,1-2,.68-1.24,1-1.86l1.09-2c.39-.68.79-1.42,1.23-2.24a1.22,1.22,0,0,1,.74-.46A4.33,4.33,0,0,1,108.5,41a3.43,3.43,0,0,1,1.46.27.87.87,0,0,1,.57.79.85.85,0,0,1,0,.18,1.16,1.16,0,0,1-.14.27l-1,1.68c.65-.36,1.33-.71,2-1.06a21.19,21.19,0,0,1,2.18-1,17.64,17.64,0,0,1,2.25-.7,10.19,10.19,0,0,1,2.23-.26,6.33,6.33,0,0,1,3.5.83,2.86,2.86,0,0,1,1.27,2.57,6.23,6.23,0,0,1-.51,2.27A26.6,26.6,0,0,1,121,49.56c-.5,1-1,2-1.63,3.06s-1.13,2.16-1.62,3.27a4.25,4.25,0,0,1-.44.75,1.62,1.62,0,0,1-.52.49,2,2,0,0,1-.71.27,5.66,5.66,0,0,1-1,.08,2.54,2.54,0,0,1-1.27-.23.85.85,0,0,1-.35-.75,4.09,4.09,0,0,1,.2-1.11,11.27,11.27,0,0,1,.56-1.43c.24-.52.52-1.08.84-1.67s.67-1.19,1-1.8L117,49c.29-.5.54-1,.77-1.44a11.66,11.66,0,0,0,.55-1.32,3.71,3.71,0,0,0,.21-1.16,1.34,1.34,0,0,0-.32-.88A1.49,1.49,0,0,0,117,43.83Z"/><path class="cls-2" d="M135.89,57.85a10.93,10.93,0,0,1-3.31-.47,7.55,7.55,0,0,1-2.48-1.29,5.5,5.5,0,0,1-1.5-1.85,5.12,5.12,0,0,1-.49-2.19,10.58,10.58,0,0,1,.47-3c.19-.61.38-1.2.58-1.78a9.07,9.07,0,0,1-1.3-.36,4.48,4.48,0,0,1-1.28-.73,1.55,1.55,0,0,1-.49-1.92,2.53,2.53,0,0,1,.4-.66,2.74,2.74,0,0,1,.81-.67,3.27,3.27,0,0,1,1.54-.37h2.57v0c.2-.61.4-1.17.58-1.64l.46-1.16c.12-.3.21-.55.28-.75a.78.78,0,0,0,.06-.24,1.67,1.67,0,0,0,0-.32c0-.14,0-.34,0-.61v-.16a3,3,0,0,1,0-.46,3.42,3.42,0,0,1,.29-.79,2.43,2.43,0,0,1,.83-1,3.51,3.51,0,0,1,2.15-.59,5,5,0,0,1,1.8.31,3.51,3.51,0,0,1,1.21.78,2.8,2.8,0,0,1,.61,1,2.73,2.73,0,0,1,.19,1,2.78,2.78,0,0,1-.16,1l-1.14,3,2-.26c.69-.09,1.29-.18,1.79-.26l1.36-.22,1-.15a7.27,7.27,0,0,1,.95-.08c.32,0,.64,0,1,.05a5.52,5.52,0,0,1,1.09.22,2.74,2.74,0,0,1,1,.59,1.43,1.43,0,0,1,.47,1.06,1.83,1.83,0,0,1-.39,1.14,3,3,0,0,1-.89.8,5,5,0,0,1-1.17.53,6.71,6.71,0,0,1-1.18.26l-.93.14-2.79.45c-.5.09-2.8.5-3.32.58l-1.39.21-.58.07c-.17.38-.32.76-.46,1.12-.21.58-.39,1.11-.53,1.6s-.24.92-.31,1.3a5.14,5.14,0,0,0-.09.82,2.47,2.47,0,0,0,.08.63.76.76,0,0,0,.19.33.38.38,0,0,0,.21.12,1.61,1.61,0,0,0,.54.06,4.68,4.68,0,0,0,1.71-.33,10.49,10.49,0,0,0,2-1,17,17,0,0,0,1.92-1.46c.64-.56,1.22-1.1,1.76-1.61a2.65,2.65,0,0,1,1.89-.7,4.06,4.06,0,0,1,.67.06,3.7,3.7,0,0,1,.82.24,2.4,2.4,0,0,1,.75.5,1.22,1.22,0,0,1,.38.87,1.31,1.31,0,0,1-.06.41,8.79,8.79,0,0,1-1.29,2.26l-1.61,2a5.4,5.4,0,0,1-.94.89c-.35.25-.72.5-1.12.73s-.8.45-1.22.66l-1.16.53a9.35,9.35,0,0,1-2.43.67A16.83,16.83,0,0,1,135.89,57.85Z"/><path class="cls-2" d="M129.56,52.05a9.82,9.82,0,0,1,.44-2.81c.3-1,.61-1.9.94-2.8a7.57,7.57,0,0,1-1.24-.13,5.91,5.91,0,0,1-1.14-.3,2.74,2.74,0,0,1-.85-.48.84.84,0,0,1-.32-.65,1,1,0,0,1,.09-.37,1.58,1.58,0,0,1,.27-.44,1.49,1.49,0,0,1,.45-.37,1.24,1.24,0,0,1,.64-.16H132a.67.67,0,0,0,.61-.26,3.24,3.24,0,0,0,.26-.53q.3-.93.57-1.62l.46-1.16c.12-.31.22-.57.29-.77a1.52,1.52,0,0,0,.1-.47c0-.14,0-.28,0-.41a3.6,3.6,0,0,1,0-.53v-.16a2.75,2.75,0,0,1,0-.34,2.34,2.34,0,0,1,.22-.59,1.47,1.47,0,0,1,.52-.58,1.75,1.75,0,0,1,1.09-.28,2.91,2.91,0,0,1,1.08.18,2,2,0,0,1,.72.47,1.77,1.77,0,0,1,.42.66,2.11,2.11,0,0,1,.14.74,2,2,0,0,1-.12.72l-1.7,4.51c.84-.09,1.59-.18,2.24-.27l2-.26c.72-.09,1.34-.19,1.86-.27L144,42.1l1-.14a4.22,4.22,0,0,1,.64-.06,6.56,6.56,0,0,1,.76,0,3,3,0,0,1,.67.14,1.12,1.12,0,0,1,.48.27.6.6,0,0,1,.19.47,1.09,1.09,0,0,1-.22.68,2.09,2.09,0,0,1-.58.52,3.37,3.37,0,0,1-.79.35,5.45,5.45,0,0,1-.89.2l-1,.15-1.3.21-1.49.24-1.49.26-1.83.32c-.51.09-.94.15-1.3.19L136,46l-.55,0c-.3.62-.55,1.22-.77,1.81s-.4,1.14-.55,1.65a12.68,12.68,0,0,0-.33,1.37,5.77,5.77,0,0,0-.1.94,3.2,3.2,0,0,0,.11.83,1.72,1.72,0,0,0,.4.69,2.08,2.08,0,0,0,.76.46,3.75,3.75,0,0,0,1.2.16,6.59,6.59,0,0,0,2.43-.46,12.39,12.39,0,0,0,2.28-1.19,17.38,17.38,0,0,0,2.05-1.57c.65-.57,1.24-1.11,1.79-1.63a1,1,0,0,1,.72-.29,2.55,2.55,0,0,1,.34,0,1.66,1.66,0,0,1,.38.11.89.89,0,0,1,.32.21.4.4,0,0,1,.13.31.84.84,0,0,1,0,.19,8.13,8.13,0,0,1-1.16,2c-.52.68-1.06,1.35-1.6,2a4.17,4.17,0,0,1-.74.69,9.42,9.42,0,0,1-1,.65c-.36.21-.73.41-1.12.6s-.75.36-1.1.51a7.71,7.71,0,0,1-1.93.53,16,16,0,0,1-2,.14,8.59,8.59,0,0,1-2.7-.38,5.8,5.8,0,0,1-2-1A4.35,4.35,0,0,1,130,53.92,4.23,4.23,0,0,1,129.56,52.05Z"/><path class="cls-2" d="M158.35,58.38c-.41,0-.9,0-1.45-.05a14.86,14.86,0,0,1-1.81-.22,12.81,12.81,0,0,1-1.89-.49,6.93,6.93,0,0,1-1.82-.93,4.73,4.73,0,0,1-1.29-1.43,3.82,3.82,0,0,1-.49-2,5.36,5.36,0,0,1,.14-1.21,1.48,1.48,0,0,1-.68-1.24,2.32,2.32,0,0,1,.84-1.78,4,4,0,0,1,1.56-.85c.15-.19.34-.42.57-.67a17.26,17.26,0,0,1,1.42-1.4,18.91,18.91,0,0,1,1.92-1.51,15.3,15.3,0,0,1,2.45-1.43,16.61,16.61,0,0,1,3-1.08,14.24,14.24,0,0,1,3.51-.43,13.13,13.13,0,0,1,2.81.27,7.23,7.23,0,0,1,2.17.84,3.86,3.86,0,0,1,1.36,1.33,3,3,0,0,1,.43,1.57,3.39,3.39,0,0,1-.26,1.33,4.48,4.48,0,0,1-1.53,2,11.58,11.58,0,0,1-2.41,1.37,18.25,18.25,0,0,1-2.9.93c-1,.24-2,.44-3,.6s-1.95.28-2.86.36l-1.39.12v0a1.84,1.84,0,0,0-.12.63c0,.3.13.47.46.63a5.2,5.2,0,0,0,2.13.34,10.92,10.92,0,0,0,1.76-.14,14.22,14.22,0,0,0,1.68-.39c.54-.16,1.06-.34,1.54-.53s1-.38,1.35-.58a18.53,18.53,0,0,1,1.76-.71,5.82,5.82,0,0,1,2-.38,2.48,2.48,0,0,1,2,.71,1.47,1.47,0,0,1,.35.92c0,.11,0,.22,0,.32a2,2,0,0,1-.05.31,3.19,3.19,0,0,1-.64,1.16,4.51,4.51,0,0,1-1.22,1,20.88,20.88,0,0,1-5.46,2.06A27.31,27.31,0,0,1,158.35,58.38Zm5.23-12.16a3.72,3.72,0,0,0-1.33.25,8.83,8.83,0,0,0-1.57.78l-.37.24a13.84,13.84,0,0,0,1.7-.4,5.18,5.18,0,0,0,1.3-.57,1.21,1.21,0,0,0,.35-.3Z"/><path class="cls-2" d="M150.51,50.84a1.53,1.53,0,0,1,.53-1.17,2.83,2.83,0,0,1,1.43-.65c.17-.23.44-.55.79-1a16.67,16.67,0,0,1,1.33-1.31,22.45,22.45,0,0,1,1.81-1.43,16.65,16.65,0,0,1,2.24-1.3,15.27,15.27,0,0,1,2.64-1,11.63,11.63,0,0,1,3-.37,10.89,10.89,0,0,1,2.36.22,5.7,5.7,0,0,1,1.66.63,2.91,2.91,0,0,1,1,1,2.31,2.31,0,0,1,.33,1.2,2.85,2.85,0,0,1-.21,1,3.52,3.52,0,0,1-1.22,1.58,9.67,9.67,0,0,1-2.09,1.18,17,17,0,0,1-2.61.85c-.94.22-1.89.41-2.83.56s-1.85.27-2.72.35-1.62.14-2.26.18a2.83,2.83,0,0,0-.36.74,2.42,2.42,0,0,0-.16.86,1.59,1.59,0,0,0,1.08,1.45,7,7,0,0,0,3,.52,12.85,12.85,0,0,0,2.1-.17,17.27,17.27,0,0,0,1.91-.44c.6-.18,1.16-.37,1.69-.58s1-.41,1.45-.62,1.09-.47,1.6-.65a4,4,0,0,1,1.34-.27,1,1,0,0,1,.75.2.74.74,0,0,1,.16.43,2,2,0,0,1,0,.25.88.88,0,0,1,0,.2,2.34,2.34,0,0,1-.46.84,3.41,3.41,0,0,1-.89.73,19.06,19.06,0,0,1-5,1.88,25,25,0,0,1-5.45.56c-.37,0-.81,0-1.32,0a15.33,15.33,0,0,1-1.57-.2,9.08,9.08,0,0,1-1.61-.42,5.42,5.42,0,0,1-1.42-.72,3.67,3.67,0,0,1-1-1.11,3.11,3.11,0,0,1-.39-1.6,5.63,5.63,0,0,1,.31-1.69,1.15,1.15,0,0,1-.57-.22A.61.61,0,0,1,150.51,50.84Zm14.61-4.46a.3.3,0,0,0,0-.15v-.14a.69.69,0,0,0-.47-.65,2.54,2.54,0,0,0-1.12-.22,5.68,5.68,0,0,0-2,.37,10.1,10.1,0,0,0-1.86.93,9.69,9.69,0,0,0-1.56,1.19,8.56,8.56,0,0,0-1,1.15c1.12-.06,2.15-.17,3.08-.31a16.86,16.86,0,0,0,2.44-.55,7,7,0,0,0,1.68-.74A2,2,0,0,0,165.12,46.38Z"/><path class="cls-2" d="M189.46,58.48a4.12,4.12,0,0,1-2.27-.51,1.68,1.68,0,0,1-.79-1.47,4.41,4.41,0,0,1,.23-1.31,12.12,12.12,0,0,1,.59-1.53c.25-.54.54-1.11.87-1.72s.68-1.21,1.06-1.84.58-1,.86-1.47.53-.93.75-1.38a11.48,11.48,0,0,0,.51-1.22,3.18,3.18,0,0,0,.17-.94.66.66,0,0,0,0-.25,4.77,4.77,0,0,0-1.2.18,14.34,14.34,0,0,0-1.7.63c-.63.28-1.28.61-1.93,1s-1.34.76-2,1.15c-.38.23-.72.42-1.05.6a5.35,5.35,0,0,1-.78.35,6,6,0,0,0-.39.59c-.23.39-.46.81-.68,1.26s-.44,1-.65,1.43-.37.92-.5,1.33a6.12,6.12,0,0,0-.17.59c-.05.23-.1.46-.17.72s-.14.52-.23.81-.2.61-.33,1a2,2,0,0,1-.73.94,3.29,3.29,0,0,1-.93.48,4.09,4.09,0,0,1-1,.22,4.68,4.68,0,0,1-.59,0,4.9,4.9,0,0,1-2.31-.49,2,2,0,0,1-1.14-1.92c0-.17,0-.35,0-.54a3,3,0,0,1,.19-.75c.33-1,.67-1.93,1-2.76s.66-1.61,1-2.32.67-1.38,1-2l1-1.87c.35-.64.72-1.29,1.1-2s.78-1.4,1.21-2.21a2.39,2.39,0,0,1,1.5-1,6.36,6.36,0,0,1,1.87-.27,5.31,5.31,0,0,1,2.29.45,2,2,0,0,1,1.14,1.21l.91-.37a19.7,19.7,0,0,1,2.49-.76,11.92,11.92,0,0,1,2.7-.32,8.17,8.17,0,0,1,4.5,1.1,3.73,3.73,0,0,1,1.71,3.3,7,7,0,0,1-.56,2.53,30.48,30.48,0,0,1-1.29,2.81c-.51,1-1.06,2-1.64,3.08s-1.12,2.13-1.6,3.2a5.08,5.08,0,0,1-.52.91,3,3,0,0,1-.86.8,4,4,0,0,1-1.27.47A7.27,7.27,0,0,1,189.46,58.48Z"/><path class="cls-2" d="M191.39,43.83a6.38,6.38,0,0,0-1.75.27,14.9,14.9,0,0,0-1.93.72c-.67.3-1.35.64-2.05,1s-1.37.78-2,1.18c-.34.21-.67.39-1,.56a4.55,4.55,0,0,1-.93.38,6.65,6.65,0,0,0-.69,1c-.24.41-.48.85-.71,1.32s-.46,1-.67,1.47-.39,1-.53,1.39a6.08,6.08,0,0,0-.18.67c-.05.21-.1.44-.17.68s-.13.5-.22.78-.19.59-.31.94a1.07,1.07,0,0,1-.38.49,2.08,2.08,0,0,1-.53.28,2.94,2.94,0,0,1-.54.12,3.19,3.19,0,0,1-.4,0,3,3,0,0,1-1.44-.29,1.12,1.12,0,0,1-.56-1.12,4,4,0,0,1,0-.48,1.78,1.78,0,0,1,.14-.55c.34-1,.67-1.94,1-2.76s.64-1.57,1-2.27.66-1.36,1-2,.68-1.24,1-1.86l1.1-2c.38-.68.79-1.42,1.22-2.24a1.25,1.25,0,0,1,.74-.46,4.33,4.33,0,0,1,1.27-.18,3.43,3.43,0,0,1,1.46.27.87.87,0,0,1,.57.79.48.48,0,0,1,0,.18,1.11,1.11,0,0,1-.13.27l-1,1.68c.65-.36,1.33-.71,2-1.06a22.19,22.19,0,0,1,2.18-1,17.29,17.29,0,0,1,2.26-.7,10,10,0,0,1,2.23-.26,6.36,6.36,0,0,1,3.5.83,2.86,2.86,0,0,1,1.26,2.57,6.41,6.41,0,0,1-.5,2.27,29.15,29.15,0,0,1-1.27,2.73c-.5,1-1.05,2-1.63,3.06s-1.12,2.16-1.62,3.27a5,5,0,0,1-.43.75,1.75,1.75,0,0,1-.53.49,2,2,0,0,1-.71.27,5.5,5.5,0,0,1-1,.08,2.47,2.47,0,0,1-1.26-.23.83.83,0,0,1-.35-.75,4,4,0,0,1,.19-1.11A13,13,0,0,1,188.6,54c.25-.52.53-1.08.85-1.67s.66-1.19,1-1.8l.88-1.48c.29-.5.54-1,.77-1.44a10.07,10.07,0,0,0,.55-1.32,3.71,3.71,0,0,0,.21-1.16,1.34,1.34,0,0,0-.32-.88A1.49,1.49,0,0,0,191.39,43.83Z"/><path class="cls-2" d="M208.44,58.38c-.41,0-.89,0-1.45-.05a14.48,14.48,0,0,1-1.8-.22,12.62,12.62,0,0,1-1.9-.49,6.93,6.93,0,0,1-1.82-.93,4.87,4.87,0,0,1-1.29-1.43,3.82,3.82,0,0,1-.49-2,6,6,0,0,1,.14-1.21,1.48,1.48,0,0,1-.68-1.24,2.32,2.32,0,0,1,.84-1.78,4,4,0,0,1,1.56-.85c.15-.19.34-.42.57-.67a17.26,17.26,0,0,1,1.42-1.4,18.91,18.91,0,0,1,1.92-1.51,15.75,15.75,0,0,1,2.45-1.43,16.91,16.91,0,0,1,3-1.08,14.24,14.24,0,0,1,3.51-.43,13.13,13.13,0,0,1,2.81.27,7.23,7.23,0,0,1,2.17.84,3.86,3.86,0,0,1,1.36,1.33,3.05,3.05,0,0,1,.44,1.57,3.4,3.4,0,0,1-.27,1.33,4.41,4.41,0,0,1-1.53,2,11.33,11.33,0,0,1-2.41,1.37,18.25,18.25,0,0,1-2.9.93c-1,.24-2,.44-3,.6s-1.95.28-2.86.36l-1.39.12v0a1.84,1.84,0,0,0-.12.63c0,.3.13.47.46.63a5.2,5.2,0,0,0,2.13.34,10.92,10.92,0,0,0,1.76-.14,13.78,13.78,0,0,0,1.68-.39c.54-.16,1.06-.34,1.54-.53s1-.38,1.35-.58a18.53,18.53,0,0,1,1.76-.71,5.86,5.86,0,0,1,2-.38,2.46,2.46,0,0,1,2,.71,1.47,1.47,0,0,1,.35.92c0,.11,0,.22,0,.32a2,2,0,0,1-.05.31,3.19,3.19,0,0,1-.64,1.16,4.51,4.51,0,0,1-1.22,1,20.88,20.88,0,0,1-5.46,2.06A27.31,27.31,0,0,1,208.44,58.38Zm5.23-12.16a3.63,3.63,0,0,0-1.32.25,8.6,8.6,0,0,0-1.58.78l-.37.24a13.41,13.41,0,0,0,1.7-.4,5,5,0,0,0,1.3-.57,1.43,1.43,0,0,0,.36-.3Z"/><path class="cls-2" d="M200.6,50.84a1.51,1.51,0,0,1,.54-1.17,2.76,2.76,0,0,1,1.42-.65c.17-.23.44-.55.79-1a18.55,18.55,0,0,1,1.33-1.31,22.45,22.45,0,0,1,1.81-1.43,16.17,16.17,0,0,1,2.25-1.3,14.87,14.87,0,0,1,2.63-1,11.74,11.74,0,0,1,3-.37,10.89,10.89,0,0,1,2.36.22,5.7,5.7,0,0,1,1.66.63,2.82,2.82,0,0,1,1,1,2.31,2.31,0,0,1,.33,1.2,2.66,2.66,0,0,1-.21,1,3.52,3.52,0,0,1-1.22,1.58,9.67,9.67,0,0,1-2.09,1.18,17,17,0,0,1-2.61.85c-.94.22-1.88.41-2.83.56s-1.84.27-2.72.35-1.62.14-2.26.18a2.83,2.83,0,0,0-.36.74,2.64,2.64,0,0,0-.15.86,1.58,1.58,0,0,0,1.07,1.45,7,7,0,0,0,3,.52,13,13,0,0,0,2.11-.17,17.08,17.08,0,0,0,1.9-.44c.6-.18,1.16-.37,1.69-.58s1-.41,1.45-.62,1.09-.47,1.6-.65a4,4,0,0,1,1.34-.27,1,1,0,0,1,.75.2.68.68,0,0,1,.16.43,2,2,0,0,1,0,.25.88.88,0,0,1,0,.2,2.2,2.2,0,0,1-.46.84,3.41,3.41,0,0,1-.89.73,19.13,19.13,0,0,1-5,1.88,25.14,25.14,0,0,1-5.46.56c-.37,0-.81,0-1.31,0a15.17,15.17,0,0,1-1.58-.2,9.08,9.08,0,0,1-1.61-.42,5.2,5.2,0,0,1-1.41-.72,3.57,3.57,0,0,1-1-1.11,3.21,3.21,0,0,1-.38-1.6,5.59,5.59,0,0,1,.3-1.69,1.15,1.15,0,0,1-.57-.22A.61.61,0,0,1,200.6,50.84Zm14.61-4.46a.23.23,0,0,0,0-.15v-.14a.68.68,0,0,0-.47-.65,2.54,2.54,0,0,0-1.12-.22,5.72,5.72,0,0,0-2,.37,10.1,10.1,0,0,0-1.86.93,9.69,9.69,0,0,0-1.56,1.19,8.56,8.56,0,0,0-1,1.15c1.12-.06,2.15-.17,3.09-.31A17,17,0,0,0,212.7,48a7.33,7.33,0,0,0,1.69-.74A2,2,0,0,0,215.21,46.38Z"/><path class="cls-2" d="M210.11,65.51a4.08,4.08,0,0,1-.89-.11,3.25,3.25,0,0,1-.92-.38,2.41,2.41,0,0,1-.67-.6,1.5,1.5,0,0,1-.3-.9,1.7,1.7,0,0,1,.12-.61,4.42,4.42,0,0,1,.48-1c.22-.36,16.56-.68,17-.93a5.81,5.81,0,0,1,1.55-.55c.51-.12,1.15-.23,1.92-.35.45-.06.85-.12,1.23-.2a3.79,3.79,0,0,0,.55-.14,10.73,10.73,0,0,0,1.71-1.29A8.34,8.34,0,0,0,233.15,57a9,9,0,0,0,.88-1.56c0-.07.07-.14.1-.22l-.52.23a16.17,16.17,0,0,1-2.29.76,10.24,10.24,0,0,1-2.57.33,6.23,6.23,0,0,1-2-.36,8.43,8.43,0,0,1-1.77-.83,6.1,6.1,0,0,1-1.43-1.22,2.55,2.55,0,0,1-.66-1.67,3.64,3.64,0,0,1,.17-1c.1-.31.18-.58.26-.82a9.06,9.06,0,0,1,1.22-2.29,13.72,13.72,0,0,1,1.81-2,20.54,20.54,0,0,1,2.23-1.83,29.27,29.27,0,0,1,2.5-1.58,14,14,0,0,1,3.5-1.42,15.33,15.33,0,0,1,3.77-.45c.53,0,1,0,1.54.05a10.21,10.21,0,0,1,1.61.26,5.8,5.8,0,0,1,1.54.63,4.86,4.86,0,0,1,1.24,1,1.75,1.75,0,0,1,.31.52,1.57,1.57,0,0,1,.11.52,5.68,5.68,0,0,1-.12.78c-.07.35-.17.77-.29,1.28s-.26,1.07-.42,1.69l-.5,1.88c-.18.63-.35,1.25-.52,1.86s-.34,1.17-.5,1.66a25.84,25.84,0,0,1-1,2.7,18.75,18.75,0,0,1-1.51,2.77,17.06,17.06,0,0,1-2.13,2.58c-.83.83-17.81,1.58-18.93,2.21a16,16,0,0,1-3.83,1.53A19,19,0,0,1,210.11,65.51Zm27.27-20.17a10.75,10.75,0,0,0-1.14.5c-.49.24-1,.53-1.5.84s-1,.65-1.46,1-.88.65-1.26,1a7.61,7.61,0,0,0-.79.74,12.4,12.4,0,0,0-.85,1,3.73,3.73,0,0,0-.55,1c0,.1-.07.21-.1.31a4,4,0,0,0,.5-.16,13.19,13.19,0,0,0,1.85-.85,18.08,18.08,0,0,0,1.81-1.16,8.42,8.42,0,0,0,1.28-1.13c.16-.18.36-.4.61-.7s.48-.58.72-.91.45-.65.64-1A3,3,0,0,0,237.38,45.34Z"/><path class="cls-2" d="M210.11,64.51a1.76,1.76,0,0,1-.42-.06,1.63,1.63,0,0,1-.43-.18,1.38,1.38,0,0,1-.34-.3.77.77,0,0,1-.14-.45,1.33,1.33,0,0,1,.07-.37,4.67,4.67,0,0,1,.4-.86c.14-.22,16.34-.4,16.61-.55a3.86,3.86,0,0,1,1.07-.38c.45-.1,1-.21,1.78-.32.46-.06.9-.13,1.31-.21a6.08,6.08,0,0,0,1-.3,13.25,13.25,0,0,0,2-1.5,9.84,9.84,0,0,0,1.4-1.61,10.26,10.26,0,0,0,1-1.7c.25-.58.5-1.17.73-1.77a4.35,4.35,0,0,0,.25-.63q.1-.33.27-.75c-.6.35-1.21.71-1.85,1.06a20.8,20.8,0,0,1-2,.95,15.3,15.3,0,0,1-2,.69,8.7,8.7,0,0,1-2.07.26,4.05,4.05,0,0,1-1.36-.26A6.75,6.75,0,0,1,226,54.6a4.75,4.75,0,0,1-1.14-1,1.75,1.75,0,0,1-.47-1.17,2.94,2.94,0,0,1,.14-.83c.09-.3.18-.57.26-.81a7.73,7.73,0,0,1,1.09-2.06,14.2,14.2,0,0,1,1.68-1.9,18.13,18.13,0,0,1,2.11-1.72A27.43,27.43,0,0,1,232,43.62a12,12,0,0,1,3.08-1.25,13.26,13.26,0,0,1,3.27-.39c.48,0,.94,0,1.39.05a7.21,7.21,0,0,1,1.26.2,4.24,4.24,0,0,1,1.1.45,3.65,3.65,0,0,1,.94.78,1.17,1.17,0,0,1,.15.27.73.73,0,0,1,.06.26,4.81,4.81,0,0,1-.11.64c-.07.34-.16.76-.28,1.26s-.25,1.06-.42,1.67-.33,1.24-.5,1.87-.34,1.25-.51,1.86-.34,1.15-.49,1.63a27.8,27.8,0,0,1-1,2.63,18,18,0,0,1-1.45,2.64,15.74,15.74,0,0,1-2,2.43c-.76.77-17.65,1.43-18.66,2A14.54,14.54,0,0,1,214.41,64,16.74,16.74,0,0,1,210.11,64.51Zm18.32-13.35a3.1,3.1,0,0,0-.13.4,1.37,1.37,0,0,0-.06.39,1,1,0,0,0,.19.62.76.76,0,0,0,.67.25,5.39,5.39,0,0,0,1.81-.37,16.07,16.07,0,0,0,2.08-1,19.32,19.32,0,0,0,2-1.26,9.3,9.3,0,0,0,1.46-1.29l.62-.71c.25-.3.51-.62.77-1s.48-.7.69-1a3,3,0,0,0,.37-.93.9.9,0,0,0-.16-.5,2,2,0,0,1-.28-.66h-.21a4.17,4.17,0,0,0-1.29.25,13.59,13.59,0,0,0-1.53.66c-.53.26-1.07.57-1.62.91s-1.06.68-1.54,1-.92.69-1.32,1a9.14,9.14,0,0,0-.92.86q-.5.54-.9,1.08A4.72,4.72,0,0,0,228.43,51.16Z"/><path class="cls-2" d="M249.73,58.45a3.77,3.77,0,0,1-2.63-.84,2.16,2.16,0,0,1-.78-1.64,2,2,0,0,1,.17-.83c.17-.68.41-1.51.67-2.42s.54-1.82.82-2.74l.82-2.72c.24-.83.46-1.6.63-2.3,0-.08,0-.16,0-.23v-.27a6.27,6.27,0,0,1,.11-1.13,6.17,6.17,0,0,1,.29-1,2.68,2.68,0,0,1,1-1.27,3.52,3.52,0,0,1,2-.51,4.48,4.48,0,0,1,1.88.35,2.77,2.77,0,0,1,1.13.86,2.7,2.7,0,0,1,.36.67c.26-.15.54-.29.81-.43a13.24,13.24,0,0,1,2-.75,9.2,9.2,0,0,1,2.47-.33,8.94,8.94,0,0,1,1,.06c.31,0,.62.09.94.16a10.54,10.54,0,0,1,1.09.24,7.31,7.31,0,0,1,1.3.51,5.47,5.47,0,0,1,1.67,1.3,2.6,2.6,0,0,1,.73,1.74,1.85,1.85,0,0,1-.22.85,2.69,2.69,0,0,1-.58.78,3.71,3.71,0,0,1-.93.63,3.66,3.66,0,0,1-1.54.32,6.14,6.14,0,0,1-1.44-.19,5.08,5.08,0,0,1-1.43-.56,2.8,2.8,0,0,1-.57-.46,4.73,4.73,0,0,1-.38-.41l-.06-.06a4.06,4.06,0,0,0-1.24.28,9.7,9.7,0,0,0-1.73.88,13.69,13.69,0,0,0-1.57,1.18c-.44.38-.82.73-1.17,1.05-.29.82-.62,1.68-1,2.6s-.73,1.92-1.08,2.95V55c0,.34,0,.69,0,1a2.88,2.88,0,0,1-.39,1.2l-.07.11-.1.1a3.43,3.43,0,0,1-1.24.71A5.22,5.22,0,0,1,249.73,58.45Z"/><path class="cls-2" d="M247.88,55.4c.2-.75.44-1.58.7-2.48l.82-2.74.82-2.72c.26-.89.49-1.71.67-2.45,0-.11,0-.2,0-.28v-.27a5.72,5.72,0,0,1,.09-1,5.85,5.85,0,0,1,.26-.92,1.93,1.93,0,0,1,.57-.83,1.89,1.89,0,0,1,1-.21,2.7,2.7,0,0,1,1.08.18,1.59,1.59,0,0,1,1,1.19,4.47,4.47,0,0,1,.07.82c0,.15,0,.32,0,.5a4.22,4.22,0,0,0,0,.43l1.39-1a12.49,12.49,0,0,1,1.57-.88,9.86,9.86,0,0,1,1.75-.65,6.75,6.75,0,0,1,1.92-.26,5,5,0,0,1,.78.05l.79.12c.31.06.63.13,1,.22a4.92,4.92,0,0,1,1,.38,4.24,4.24,0,0,1,1.3,1,1.87,1.87,0,0,1,.53,1.23,1.09,1.09,0,0,1-.15.52,1.88,1.88,0,0,1-.38.52,2.13,2.13,0,0,1-.57.39,1.73,1.73,0,0,1-.73.15,4.34,4.34,0,0,1-1-.14,3.25,3.25,0,0,1-.95-.36,1.91,1.91,0,0,1-.34-.27c-.12-.12-.22-.24-.33-.36l-.28-.33a1.26,1.26,0,0,0-.19-.2l-.26,0h-.26a6.13,6.13,0,0,0-2.26.42,11.15,11.15,0,0,0-2,1,14.28,14.28,0,0,0-1.72,1.29c-.52.46-1,.87-1.36,1.23-.31.87-.66,1.8-1,2.78s-.76,2-1.13,3.09V55c0,.32,0,.65-.05,1a2,2,0,0,1-.28.89,2.05,2.05,0,0,1-.74.41,3.3,3.3,0,0,1-1.1.17,2.13,2.13,0,0,1-1.47-.44,1.37,1.37,0,0,1-.49-1A1.48,1.48,0,0,1,247.88,55.4Z"/><path class="cls-2" d="M274.1,58.71a15,15,0,0,1-3.61-.39,8.25,8.25,0,0,1-2.73-1.18,5,5,0,0,1-1.65-1.84,4.94,4.94,0,0,1-.51-2.23,7.32,7.32,0,0,1,.46-2.42,10.71,10.71,0,0,1,1.18-2.26A14.32,14.32,0,0,1,269.31,46a21.21,21.21,0,0,1,3-2.34,26.12,26.12,0,0,1,4.1-2.14,9.19,9.19,0,0,1,1.36-.41,11.53,11.53,0,0,1,1.33-.22,6.23,6.23,0,0,1,3.08-.71,8.61,8.61,0,0,1,3.93.83,7.17,7.17,0,0,1,2.5,2.08c.19.26.35.5.51.74a4.69,4.69,0,0,1,.45.86,6.32,6.32,0,0,1,.28.93,5.62,5.62,0,0,1,.11,1.13,7.12,7.12,0,0,1-.65,2.89,11.44,11.44,0,0,1-1.79,2.79A17,17,0,0,1,284.77,55a22.24,22.24,0,0,1-3.62,2.21A14.18,14.18,0,0,1,278,58.31,17.77,17.77,0,0,1,274.1,58.71ZM279,46.15a5.55,5.55,0,0,0-1.06.4,11,11,0,0,0-1.37.76,16.38,16.38,0,0,0-1.33,1,11.51,11.51,0,0,0-2,2.17,3.49,3.49,0,0,0-.46.86,2.69,2.69,0,0,0-.17.59,2.35,2.35,0,0,0,0,.52,1.78,1.78,0,0,0,.13.7,1,1,0,0,0,.32.4,1.8,1.8,0,0,0,.59.27,4.42,4.42,0,0,0,1.08.11,6.79,6.79,0,0,0,2.57-.48,9.71,9.71,0,0,0,2.36-1.36,9.58,9.58,0,0,0,1.8-1.8,6.9,6.9,0,0,0,1-1.76c.13-.37.25-.71.35-1a2.45,2.45,0,0,0,.12-.71.77.77,0,0,0-.11-.39,7.37,7.37,0,0,0-.52-.73h0a9.27,9.27,0,0,1-1.36.29C280.38,46,279.76,46.1,279,46.15Z"/><path class="cls-2" d="M267.47,50.89a9.72,9.72,0,0,1,1.08-2.09,14.06,14.06,0,0,1,1.93-2.23,19.13,19.13,0,0,1,2.86-2.2,24.88,24.88,0,0,1,3.87-2,6.73,6.73,0,0,1,1.07-.31,7.33,7.33,0,0,1,1.49-.2,4,4,0,0,1,2.45-.68,6.74,6.74,0,0,1,3.07.63,5.85,5.85,0,0,1,2.07,1.74q.25.34.48.69a3.77,3.77,0,0,1,.37.72,5.92,5.92,0,0,1,.25.81,4.88,4.88,0,0,1,.09,1,6.39,6.39,0,0,1-.58,2.6,10.83,10.83,0,0,1-1.66,2.58,16.92,16.92,0,0,1-2.6,2.41,22.61,22.61,0,0,1-3.4,2.07,12.73,12.73,0,0,1-2.79,1,15.57,15.57,0,0,1-3.42.35,13,13,0,0,1-3.12-.33,6.5,6.5,0,0,1-2.19-1A4,4,0,0,1,267.48,55a4.15,4.15,0,0,1-.43-1.9A6.4,6.4,0,0,1,267.47,50.89Zm3.87.21a3.51,3.51,0,0,0-.19.7,3.55,3.55,0,0,0-.06.64,2.37,2.37,0,0,0,.2,1,1.86,1.86,0,0,0,.64.79,3.17,3.17,0,0,0,1.11.51,5.81,5.81,0,0,0,1.62.19,8.77,8.77,0,0,0,3.3-.62,11.3,11.3,0,0,0,4.72-3.56,7.74,7.74,0,0,0,1.13-2c.14-.37.26-.73.36-1.06a3.2,3.2,0,0,0,.15-.92,1.44,1.44,0,0,0-.22-.78,8.33,8.33,0,0,0-.57-.81l-.42-.57c-.14-.2-.26-.4-.37-.59a2.92,2.92,0,0,1-.4.39,2,2,0,0,1-.63.31,8.51,8.51,0,0,1-1.14.25c-.49.07-1.12.14-1.89.19a7.75,7.75,0,0,0-1.57.55,12.49,12.49,0,0,0-1.55.87,14.62,14.62,0,0,0-2.69,2.26,13.35,13.35,0,0,0-.95,1.19A4,4,0,0,0,271.34,51.1Z"/></g><g id="Layer_4" data-name="Layer 4"><text class="cls-3" transform="translate(42.65 86.54) scale(1.5 1)"><tspan class="cls-4">H</tspan><tspan class="cls-5" x="19.97" y="0">o</tspan><tspan class="cls-6" x="34.38" y="0">l</tspan><tspan class="cls-7" x="41.4" y="0">i</tspan><tspan class="cls-8" x="48.11" y="0">d</tspan><tspan class="cls-9" x="62.98" y="0">a</tspan><tspan x="76.23" y="0">y</tspan></text></g></g></svg>