<svg xmlns="http://www.w3.org/2000/svg" viewBox="0 0 392 61.21"><defs><style>.cls-1{fill:#f2f2f2;}</style></defs><title>logo-lt</title><g id="Layer_2" data-name="Layer 2"><g id="Layer_1_copy_2" data-name="Layer 1 copy 2"><path class="cls-1" d="M.09,45.31c.42-2.35.84-4.54,1.24-6.57s.79-4,1.17-5.83.74-3.66,1.1-5.41.7-3.52,1-5.33a13.43,13.43,0,0,0,.23-2,16.73,16.73,0,0,1,.2-2,1.66,1.66,0,0,1,.31-.64,2.68,2.68,0,0,1,.51-.5,2.29,2.29,0,0,1,.59-.33,1.59,1.59,0,0,1,.59-.12,2.21,2.21,0,0,1,1,.19,1.79,1.79,0,0,1,.65.53A2.15,2.15,0,0,1,9,18a5.48,5.48,0,0,1,.1,1,9.12,9.12,0,0,1-.24,2.06c-.16.69-.35,1.45-.58,2.28C9,22.66,9.68,22,10.39,21.3a16.63,16.63,0,0,1,2.19-1.75,11.49,11.49,0,0,1,2.3-1.2,6.62,6.62,0,0,1,2.45-.46A2.9,2.9,0,0,1,19.52,19a4.48,4.48,0,0,1,.78,1.41,7.53,7.53,0,0,1,.35,2.14c.61-.58,1.25-1.17,1.91-1.76a20.91,20.91,0,0,1,2-1.6,11.61,11.61,0,0,1,2-1.14,5,5,0,0,1,2-.44,4.78,4.78,0,0,1,2.37.53,4,4,0,0,1,1.48,1.42,6,6,0,0,1,.77,2.06,13.27,13.27,0,0,1,.23,2.5,25.65,25.65,0,0,1-.19,3c-.13,1-.28,2-.43,2.92-.42,2.33-.88,4.54-1.4,6.61s-1.07,4.19-1.67,6.32l-.45,1.59A11.19,11.19,0,0,1,28.74,46,4.31,4.31,0,0,1,28,47.22a1.28,1.28,0,0,1-1,.46,2.12,2.12,0,0,1-1.74-.6,2.74,2.74,0,0,1-.47-1.71c0-.21,0-.44,0-.7a4.52,4.52,0,0,1,.11-.75,9.09,9.09,0,0,1,.39-1.31c.19-.57.41-1.19.65-1.85s.47-1.33.7-2,.4-1.26.51-1.76c.19-.86.4-1.86.65-3s.49-2.28.72-3.44.42-2.25.57-3.28a18.63,18.63,0,0,0,.23-2.52,6.82,6.82,0,0,0-.07-.9,2.94,2.94,0,0,0-.22-.79,1.48,1.48,0,0,0-.45-.54,1.24,1.24,0,0,0-.74-.21,3.26,3.26,0,0,0-1.54.51,13,13,0,0,0-1.84,1.34A20.54,20.54,0,0,0,22.66,26a17,17,0,0,0-1.54,2.07,7.73,7.73,0,0,1-.86,1.17,3.55,3.55,0,0,1-.81.69c0,.08-.1.35-.22.8s-.25,1-.4,1.63-.32,1.31-.5,2.05l-.48,2c-.15.63-.27,1.16-.37,1.59s-.15.67-.15.71c-.1.56-.19,1.14-.26,1.73s-.14,1.16-.19,1.7-.11,1.12-.17,1.74a8.24,8.24,0,0,1-.3,1.71A3.14,3.14,0,0,1,15.73,47a1.67,1.67,0,0,1-1.3.52,1.19,1.19,0,0,1-.78-.31,2.58,2.58,0,0,1-.61-.76,4.59,4.59,0,0,1-.41-1.06,5.34,5.34,0,0,1-.17-1.19c.33-1.81.65-3.43,1-4.88s.63-2.83.95-4.16.61-2.65.91-4,.58-2.8.87-4.41c.07-.38.13-.76.17-1.13a9.29,9.29,0,0,0,.06-1,2.92,2.92,0,0,0-.21-1.19.78.78,0,0,0-.75-.47,3.51,3.51,0,0,0-1.75.5A8.64,8.64,0,0,0,11.79,25c-.67.71-1.41,1.6-2.24,2.68S7.78,30.09,6.71,31.6a16.37,16.37,0,0,0-.45,1.69c-.18.82-.37,1.69-.57,2.62s-.36,1.78-.52,2.57-.26,1.32-.3,1.58c-.16.85-.27,1.56-.32,2.13s-.11,1.09-.15,1.55c0,.24-.08.64-.13,1.19A11.11,11.11,0,0,1,4,46.6a5.16,5.16,0,0,1-.64,1.49,1.22,1.22,0,0,1-1.07.65A2,2,0,0,1,.63,48,2.88,2.88,0,0,1,0,46.09c0-.14,0-.27,0-.39S.06,45.45.09,45.31Z"/><path class="cls-1" d="M37.49,35.76a27.23,27.23,0,0,1,1-3.9,27.94,27.94,0,0,1,1.77-4.18,28.82,28.82,0,0,1,2.63-4.12,24.64,24.64,0,0,1,3.55-3.77,4.62,4.62,0,0,1,1-.59,4,4,0,0,1,1.38-.37A2.57,2.57,0,0,1,51,17.56a3.79,3.79,0,0,1,2.82,1.19A9.22,9.22,0,0,1,55.76,22c.15.44.3.87.44,1.3a11.9,11.9,0,0,1,.34,1.34c.09.47.17,1,.22,1.52A16.77,16.77,0,0,1,56.85,28a22.58,22.58,0,0,1-.54,4.84,26.44,26.44,0,0,1-1.52,4.82,28.23,28.23,0,0,1-2.39,4.51A24.91,24.91,0,0,1,49.28,46a8.77,8.77,0,0,1-2.56,1.82,7.47,7.47,0,0,1-3.14.65,6.29,6.29,0,0,1-2.87-.62,5.56,5.56,0,0,1-2-1.76,8,8,0,0,1-1.2-2.74,14.52,14.52,0,0,1-.4-3.56A23,23,0,0,1,37.49,35.76Zm3.56.39c-.09.46-.15.9-.19,1.31s0,.81,0,1.19A9,9,0,0,0,41,40.5,4.21,4.21,0,0,0,41.58,42a2.92,2.92,0,0,0,1,1,3,3,0,0,0,1.49.35,4.71,4.71,0,0,0,3-1.16,11.93,11.93,0,0,0,2.49-2.91,20.4,20.4,0,0,0,1.84-3.75,21.77,21.77,0,0,0,1-3.69c.13-.7.24-1.36.33-2A12,12,0,0,0,53,28.08a5,5,0,0,0-.21-1.47c-.13-.45-.31-.95-.52-1.52-.13-.34-.26-.69-.39-1.07s-.24-.73-.34-1.1a5.12,5.12,0,0,1-.36.74,2,2,0,0,1-.58.57,4,4,0,0,1-1,.47,11.35,11.35,0,0,1-1.74.36,5.7,5.7,0,0,0-1.44,1,12.84,12.84,0,0,0-1.42,1.62,21.38,21.38,0,0,0-1.33,2A24.48,24.48,0,0,0,42.45,32c-.34.75-.63,1.49-.88,2.21A12.27,12.27,0,0,0,41.05,36.15Z"/><path class="cls-1" d="M75.54,22.56a3.29,3.29,0,0,0-1.61.5,10.76,10.76,0,0,0-1.78,1.34,26.26,26.26,0,0,0-1.87,1.91c-.64.72-1.26,1.45-1.88,2.22-.31.38-.61.73-.9,1a3.35,3.35,0,0,1-.86.7A16.36,16.36,0,0,0,66,32.1c-.22.75-.44,1.57-.65,2.47s-.42,1.81-.61,2.74-.36,1.8-.49,2.6c-.07.43-.12.84-.17,1.24s-.09.83-.15,1.28-.12.94-.2,1.46-.18,1.1-.29,1.75a2.53,2.53,0,0,1-.34.92,2.08,2.08,0,0,1-.5.52,1.27,1.27,0,0,1-.49.23,2.29,2.29,0,0,1-.36,0,1.75,1.75,0,0,1-1.33-.55,3.09,3.09,0,0,1-.52-2.11c0-.28,0-.57,0-.89a8.78,8.78,0,0,1,.13-1q.48-2.87.91-5.16c.3-1.52.59-2.94.89-4.24s.61-2.54.91-3.69.63-2.32.95-3.5.65-2.39,1-3.64.72-2.65,1.12-4.17a1.41,1.41,0,0,1,.68-.86,2.13,2.13,0,0,1,1.16-.35,1.83,1.83,0,0,1,1.34.51,1.94,1.94,0,0,1,.53,1.48,2,2,0,0,1,0,.33,3.83,3.83,0,0,1-.13.51l-.94,3.14c.6-.67,1.22-1.33,1.87-2a19.66,19.66,0,0,1,2-1.8,11.29,11.29,0,0,1,2.06-1.29,4.79,4.79,0,0,1,2-.5,3.79,3.79,0,0,1,3.22,1.55,8.09,8.09,0,0,1,1.16,4.81,23.32,23.32,0,0,1-.46,4.25q-.47,2.37-1.16,5.1T77.7,39q-.81,3-1.49,6.11a12.11,12.11,0,0,1-.4,1.41,3.42,3.42,0,0,1-.48.92,1.66,1.66,0,0,1-.66.5,2.44,2.44,0,0,1-.91.15,1.36,1.36,0,0,1-1.16-.44,2.43,2.43,0,0,1-.32-1.4,13.3,13.3,0,0,1,.19-2.06c.12-.82.29-1.71.51-2.68s.48-2,.77-3.12.61-2.23,1-3.38c.27-.92.54-1.84.8-2.77s.5-1.81.71-2.68.37-1.69.5-2.47a13.19,13.19,0,0,0,.19-2.17,4.18,4.18,0,0,0-.29-1.64A1.07,1.07,0,0,0,75.54,22.56Z"/><path class="cls-1" d="M87,37.93a34.52,34.52,0,0,1,.41-5.26q.4-2.73.85-5.23a3.88,3.88,0,0,1-1.13-.24,3.8,3.8,0,0,1-1-.57,2.9,2.9,0,0,1-.78-.89,2.42,2.42,0,0,1-.3-1.22,3.43,3.43,0,0,1,.09-.69,4.94,4.94,0,0,1,.25-.83,2.14,2.14,0,0,1,.41-.69.8.8,0,0,1,.58-.29h2.88c.27,0,.45-.16.55-.5a8.74,8.74,0,0,0,.24-1c.19-1.16.36-2.17.53-3s.3-1.58.41-2.17.21-1.08.27-1.45a5,5,0,0,0,.1-.89c0-.26,0-.51,0-.75s0-.57,0-1V11c0-.17,0-.38,0-.64a8.36,8.36,0,0,1,.2-1.11A3.28,3.28,0,0,1,92,8.13a1.15,1.15,0,0,1,1-.51A1.52,1.52,0,0,1,94,8a2.4,2.4,0,0,1,.66.88,5.22,5.22,0,0,1,.39,1.23,8.17,8.17,0,0,1,.13,1.39,7.84,7.84,0,0,1-.11,1.35l-1.57,8.44c.78-.18,1.46-.35,2.06-.51l1.8-.49q1-.27,1.71-.51l1.23-.41.87-.27a2.13,2.13,0,0,1,.59-.1,3.39,3.39,0,0,1,.7.07,1.81,1.81,0,0,1,.62.26,1.38,1.38,0,0,1,.44.51,2,2,0,0,1,.17.87,3.82,3.82,0,0,1-.2,1.28,3.58,3.58,0,0,1-.53,1,2.84,2.84,0,0,1-.73.66,3.29,3.29,0,0,1-.81.38c-.23.06-.53.15-.89.27l-1.2.39L98,25.06c-.47.16-.93.32-1.37.49l-1.68.6c-.47.16-.86.28-1.19.36l-.81.18a2.67,2.67,0,0,1-.5.06c-.27,1.14-.51,2.27-.71,3.37s-.37,2.14-.5,3.09S91,35,90.91,35.77s-.1,1.34-.1,1.76a11.12,11.12,0,0,0,.11,1.56,4.49,4.49,0,0,0,.36,1.28,2.18,2.18,0,0,0,.7.85,1.77,1.77,0,0,0,1.1.32,3.54,3.54,0,0,0,2.23-.87,11.84,11.84,0,0,0,2.1-2.22,26.82,26.82,0,0,0,1.88-2.93c.6-1.07,1.14-2.08,1.64-3.05.18-.36.4-.54.67-.54a1,1,0,0,1,.31.06,1,1,0,0,1,.35.21,1.17,1.17,0,0,1,.29.39,1.31,1.31,0,0,1,.12.58,2.93,2.93,0,0,1,0,.36,21.57,21.57,0,0,1-1.06,3.75q-.72,1.88-1.47,3.78a6.67,6.67,0,0,1-.68,1.29,12.08,12.08,0,0,1-.91,1.22,13.81,13.81,0,0,1-1,1.12c-.36.35-.69.67-1,1a4.44,4.44,0,0,1-1.78,1,6.86,6.86,0,0,1-1.86.27,4.39,4.39,0,0,1-2.48-.71,5.89,5.89,0,0,1-1.82-1.92,10.16,10.16,0,0,1-1.13-2.85A15.49,15.49,0,0,1,87,37.93Z"/><path class="cls-1" d="M106.28,35.67a4.5,4.5,0,0,1,.49-2.2,2.51,2.51,0,0,1,1.31-1.21c.16-.44.4-1,.73-1.79S109.55,28.9,110,28a29.86,29.86,0,0,1,1.66-2.67,17.47,17.47,0,0,1,2.06-2.44,10.57,10.57,0,0,1,2.43-1.79,5.65,5.65,0,0,1,2.75-.7,5.06,5.06,0,0,1,2.17.43A4.11,4.11,0,0,1,122.62,22a5.11,5.11,0,0,1,.9,1.79,8.11,8.11,0,0,1,.3,2.25,10.42,10.42,0,0,1-.19,2A8.09,8.09,0,0,1,122.51,31a10,10,0,0,1-1.92,2.21,11,11,0,0,1-2.4,1.58,18.83,18.83,0,0,1-2.59,1.06,20.45,20.45,0,0,1-2.5.64c-.8.16-1.5.27-2.08.35a7.89,7.89,0,0,0-.33,1.37,9,9,0,0,0-.14,1.61,3.59,3.59,0,0,0,1,2.71,3.72,3.72,0,0,0,2.73,1,6,6,0,0,0,1.93-.32,9.18,9.18,0,0,0,1.74-.81,14.46,14.46,0,0,0,1.56-1.09c.48-.39.93-.77,1.33-1.16a14.78,14.78,0,0,1,1.47-1.22,2.19,2.19,0,0,1,1.23-.49.65.65,0,0,1,.69.37,2.14,2.14,0,0,1,.14.8c0,.16,0,.32,0,.47a2,2,0,0,1,0,.38,6.06,6.06,0,0,1-.43,1.56,4.81,4.81,0,0,1-.81,1.36,14.1,14.1,0,0,1-4.58,3.52,12,12,0,0,1-5,1.06,8.27,8.27,0,0,1-1.21-.1,5.84,5.84,0,0,1-1.44-.36,6.21,6.21,0,0,1-1.48-.78,5.09,5.09,0,0,1-1.3-1.35,7.26,7.26,0,0,1-.92-2.08,10.8,10.8,0,0,1-.36-3,21.07,21.07,0,0,1,.28-3.17.9.9,0,0,1-.52-.4A1.69,1.69,0,0,1,106.28,35.67Zm13.42-8.35a1,1,0,0,0,0-.27v-.27a1.63,1.63,0,0,0-.43-1.22,1.46,1.46,0,0,0-1-.41,3,3,0,0,0-1.86.7,9.05,9.05,0,0,0-1.71,1.73,14.61,14.61,0,0,0-1.43,2.23,17.85,17.85,0,0,0-1,2.15,15.36,15.36,0,0,0,2.83-.59,9.44,9.44,0,0,0,2.24-1A6,6,0,0,0,118.94,29,3.89,3.89,0,0,0,119.7,27.32Z"/><path class="cls-1" d="M143.83,22.56a3.29,3.29,0,0,0-1.61.5,10.76,10.76,0,0,0-1.78,1.34,26.26,26.26,0,0,0-1.87,1.91c-.64.72-1.26,1.45-1.88,2.22-.31.38-.61.73-.9,1a3.53,3.53,0,0,1-.86.7,16.36,16.36,0,0,0-.63,1.83c-.22.75-.44,1.57-.65,2.47s-.42,1.81-.61,2.74-.36,1.8-.49,2.6c-.07.43-.13.84-.17,1.24s-.09.83-.15,1.28-.12.94-.2,1.46-.18,1.1-.29,1.75a2.53,2.53,0,0,1-.34.92,2.08,2.08,0,0,1-.5.52,1.27,1.27,0,0,1-.49.23,2.29,2.29,0,0,1-.36,0,1.79,1.79,0,0,1-1.34-.55,3.16,3.16,0,0,1-.51-2.11c0-.28,0-.57,0-.89a8.78,8.78,0,0,1,.13-1q.48-2.87.91-5.16c.3-1.52.59-2.94.89-4.24s.61-2.54.91-3.69.63-2.32.95-3.5.65-2.39,1-3.64.73-2.65,1.13-4.17a1.41,1.41,0,0,1,.68-.86,2.13,2.13,0,0,1,1.16-.35,1.83,1.83,0,0,1,1.34.51,2,2,0,0,1,.53,1.48c0,.06,0,.17,0,.33s-.08.33-.13.51l-.94,3.14c.6-.67,1.22-1.33,1.87-2a19.66,19.66,0,0,1,2-1.8,11.29,11.29,0,0,1,2.06-1.29,4.79,4.79,0,0,1,2-.5A3.8,3.8,0,0,1,148,19.11a8.09,8.09,0,0,1,1.16,4.81,23.32,23.32,0,0,1-.46,4.25q-.47,2.37-1.16,5.1T146,39q-.81,3-1.49,6.11a12.11,12.11,0,0,1-.4,1.41,3.42,3.42,0,0,1-.48.92,1.66,1.66,0,0,1-.66.5,2.44,2.44,0,0,1-.91.15,1.36,1.36,0,0,1-1.16-.44,2.43,2.43,0,0,1-.32-1.4,14.47,14.47,0,0,1,.18-2.06c.13-.82.3-1.71.52-2.68s.48-2,.77-3.12.61-2.23,1-3.38c.27-.92.54-1.84.8-2.77s.5-1.81.71-2.68.37-1.69.5-2.47a13.19,13.19,0,0,0,.19-2.17,4.18,4.18,0,0,0-.29-1.64A1.07,1.07,0,0,0,143.83,22.56Z"/><path class="cls-1" d="M152.29,35.67a4.5,4.5,0,0,1,.49-2.2,2.47,2.47,0,0,1,1.31-1.21c.16-.44.4-1,.73-1.79S155.55,28.9,156,28a27.73,27.73,0,0,1,1.66-2.67,16.82,16.82,0,0,1,2.06-2.44,10.74,10.74,0,0,1,2.42-1.79,5.72,5.72,0,0,1,2.76-.7,5,5,0,0,1,2.16.43A4.07,4.07,0,0,1,168.63,22a5.11,5.11,0,0,1,.9,1.79,8.11,8.11,0,0,1,.3,2.25,9.65,9.65,0,0,1-.2,2A8.08,8.08,0,0,1,168.52,31a10.21,10.21,0,0,1-1.92,2.21,11.45,11.45,0,0,1-2.4,1.58,18.94,18.94,0,0,1-2.6,1.06,19.86,19.86,0,0,1-2.49.64c-.81.16-1.5.27-2.08.35a8.81,8.81,0,0,0-.34,1.37,10,10,0,0,0-.14,1.61,3.6,3.6,0,0,0,1,2.71,3.71,3.71,0,0,0,2.72,1,5.88,5.88,0,0,0,1.93-.32,9,9,0,0,0,1.75-.81,14.46,14.46,0,0,0,1.56-1.09c.48-.39.92-.77,1.32-1.16a17.49,17.49,0,0,1,1.47-1.22,2.24,2.24,0,0,1,1.24-.49.65.65,0,0,1,.68.37,2.15,2.15,0,0,1,.15.8c0,.16,0,.32,0,.47s0,.28,0,.38a6.49,6.49,0,0,1-.43,1.56,5.05,5.05,0,0,1-.81,1.36,14.2,14.2,0,0,1-4.58,3.52,12,12,0,0,1-5,1.06,8.17,8.17,0,0,1-1.21-.1,5.8,5.8,0,0,1-1.45-.36,6.4,6.4,0,0,1-1.48-.78,5.06,5.06,0,0,1-1.29-1.35,7.55,7.55,0,0,1-.93-2.08,11.23,11.23,0,0,1-.35-3,19.84,19.84,0,0,1,.28-3.17.92.92,0,0,1-.53-.4A1.77,1.77,0,0,1,152.29,35.67Zm13.42-8.35a.93.93,0,0,0,0-.27v-.27a1.59,1.59,0,0,0-.43-1.22,1.44,1.44,0,0,0-1-.41,3,3,0,0,0-1.85.7,9.39,9.39,0,0,0-1.72,1.73,14.56,14.56,0,0,0-1.42,2.23,16.58,16.58,0,0,0-1,2.15,15.19,15.19,0,0,0,2.83-.59,9.09,9.09,0,0,0,2.24-1A5.84,5.84,0,0,0,165,29,3.89,3.89,0,0,0,165.71,27.32Z"/><path class="cls-1" d="M175.72,61.21a.86.86,0,0,1-.38-.1,1.16,1.16,0,0,1-.4-.34,1.92,1.92,0,0,1-.31-.57,2.3,2.3,0,0,1-.13-.83,4.2,4.2,0,0,1,.06-.69,13.68,13.68,0,0,1,.37-1.61,2.94,2.94,0,0,1,.55-1,3,3,0,0,1,1-.71,13.28,13.28,0,0,1,1.63-.58c.43-.13.83-.26,1.21-.41a3.17,3.17,0,0,0,.94-.56A18.06,18.06,0,0,0,182.1,51a19.94,19.94,0,0,0,1.29-3,29.76,29.76,0,0,0,.88-3.18c.23-1.08.46-2.18.67-3.31.09-.38.16-.78.23-1.19s.14-.88.24-1.4c-.54.66-1.11,1.33-1.69,2a20.07,20.07,0,0,1-1.8,1.78A9.72,9.72,0,0,1,180,43.93a4,4,0,0,1-1.9.5,2.27,2.27,0,0,1-1.25-.48,6.22,6.22,0,0,1-1.32-1.26,7.89,7.89,0,0,1-1-1.83,5.58,5.58,0,0,1-.43-2.18,10,10,0,0,1,.13-1.57c.09-.56.16-1.06.24-1.5a22.54,22.54,0,0,1,1-3.86A29.4,29.4,0,0,1,178.94,25a30.83,30.83,0,0,1,2.18-2.82A9.93,9.93,0,0,1,184,19.82a6.58,6.58,0,0,1,3-.72,8.73,8.73,0,0,1,1.27.09,3.43,3.43,0,0,1,2.18,1.22,6,6,0,0,1,.86,1.46,3.88,3.88,0,0,1,.14.5,3.25,3.25,0,0,1,.05.49c0,.16,0,.56-.1,1.19s-.15,1.42-.25,2.35-.24,2-.39,3.14-.3,2.32-.46,3.49-.32,2.33-.47,3.47-.31,2.15-.45,3c-.25,1.59-.55,3.23-.91,4.91s-.81,3.34-1.33,4.94A35.12,35.12,0,0,1,185.26,54a17.2,17.2,0,0,1-2.44,3.75,11.06,11.06,0,0,1-3.15,2.56A8.24,8.24,0,0,1,175.72,61.21Zm2.12-24.94c0,.24-.08.49-.11.74a4.62,4.62,0,0,0-.06.74,3.51,3.51,0,0,0,.17,1.14.64.64,0,0,0,.63.48,3,3,0,0,0,1.66-.7,13.11,13.11,0,0,0,1.91-1.8,24.24,24.24,0,0,0,1.8-2.35,15.62,15.62,0,0,0,1.34-2.41l.57-1.32c.23-.57.47-1.17.7-1.83s.45-1.3.64-1.95a9.61,9.61,0,0,0,.34-1.74,2.85,2.85,0,0,0-.15-.94A6.75,6.75,0,0,1,187,23.1h-.19a2.13,2.13,0,0,0-1.18.47,10.42,10.42,0,0,0-1.41,1.22,21.78,21.78,0,0,0-1.49,1.7c-.5.64-1,1.28-1.41,1.93s-.85,1.29-1.21,1.9a13.67,13.67,0,0,0-.85,1.61c-.3.66-.58,1.33-.82,2A13.2,13.2,0,0,0,177.84,36.27Z"/><path class="cls-1" d="M195.71,44.19c.19-1.4.4-2.95.65-4.64s.49-3.39.75-5.12.5-3.42.75-5.09.45-3.19.62-4.58a5.06,5.06,0,0,1,0-.53v-.49c0-.62,0-1.25.08-1.87s.14-1.2.24-1.72a4.66,4.66,0,0,1,.52-1.55,1.09,1.09,0,0,1,.94-.41,1.41,1.41,0,0,1,1,.35,2.32,2.32,0,0,1,.59.92,4.6,4.6,0,0,1,.28,1.31,15,15,0,0,1,.07,1.52c0,.28,0,.59,0,.94s0,.61,0,.81c.4-.58.83-1.18,1.28-1.79a12.35,12.35,0,0,1,1.44-1.66,7.89,7.89,0,0,1,1.6-1.22,3.57,3.57,0,0,1,1.77-.48,2.84,2.84,0,0,1,.72.09,5.07,5.07,0,0,1,.72.24,5.8,5.8,0,0,1,.89.41,3.75,3.75,0,0,1,.89.7,6.43,6.43,0,0,1,1.19,1.89,5.82,5.82,0,0,1,.48,2.3,4,4,0,0,1-.13,1,4,4,0,0,1-.35,1,2.59,2.59,0,0,1-.53.73.93.93,0,0,1-.66.28,2.12,2.12,0,0,1-.89-.25,2.56,2.56,0,0,1-.87-.68,2.71,2.71,0,0,1-.31-.51c-.11-.22-.21-.44-.3-.67l-.26-.61a2.85,2.85,0,0,0-.18-.38l-.23,0-.24,0a3.31,3.31,0,0,0-2.08.78A10.94,10.94,0,0,0,204.22,27a20.38,20.38,0,0,0-1.57,2.41c-.48.85-.9,1.62-1.26,2.3q-.42,2.45-.95,5.2c-.35,1.83-.7,3.76-1,5.77v.75c0,.6,0,1.21,0,1.84a7.13,7.13,0,0,1-.26,1.65,2.09,2.09,0,0,1-.68.77,1.69,1.69,0,0,1-1,.32,1.46,1.46,0,0,1-1.35-.83,4,4,0,0,1-.45-1.94A5.58,5.58,0,0,1,195.71,44.19Z"/><path class="cls-1" d="M213.7,35.76a28.74,28.74,0,0,1,1-3.9,28.16,28.16,0,0,1,4.4-8.3,24.64,24.64,0,0,1,3.55-3.77,4.62,4.62,0,0,1,1-.59,3.94,3.94,0,0,1,1.37-.37,2.57,2.57,0,0,1,2.25-1.27,3.76,3.76,0,0,1,2.82,1.19A9.08,9.08,0,0,1,232,22c.16.44.31.87.44,1.3a10.08,10.08,0,0,1,.34,1.34c.1.47.17,1,.23,1.52a17,17,0,0,1,.08,1.84,22.55,22.55,0,0,1-.53,4.84A28.1,28.1,0,0,1,231,37.65a29.06,29.06,0,0,1-2.39,4.51A24.91,24.91,0,0,1,225.5,46a8.81,8.81,0,0,1-2.57,1.82,7.41,7.41,0,0,1-3.14.65,6.25,6.25,0,0,1-2.86-.62,5.5,5.5,0,0,1-2-1.76,8.37,8.37,0,0,1-1.2-2.74,15,15,0,0,1-.39-3.56A23.89,23.89,0,0,1,213.7,35.76Zm3.56.39c-.08.46-.14.9-.18,1.31s-.05.81-.05,1.19a9,9,0,0,0,.18,1.85A4.21,4.21,0,0,0,217.8,42a2.92,2.92,0,0,0,1,1,3,3,0,0,0,1.49.35,4.7,4.7,0,0,0,3-1.16,11.75,11.75,0,0,0,2.5-2.91,19.75,19.75,0,0,0,1.83-3.75,20.88,20.88,0,0,0,1-3.69c.13-.7.24-1.36.34-2a11.92,11.92,0,0,0,.13-1.71,5,5,0,0,0-.2-1.47c-.13-.45-.31-.95-.52-1.52-.13-.34-.26-.69-.39-1.07s-.24-.73-.34-1.1a5.09,5.09,0,0,1-.37.74,1.86,1.86,0,0,1-.58.57,3.85,3.85,0,0,1-1.05.47,10.94,10.94,0,0,1-1.73.36,5.37,5.37,0,0,0-1.44,1,12.88,12.88,0,0,0-1.43,1.62c-.46.63-.9,1.3-1.33,2A22.06,22.06,0,0,0,218.67,32c-.34.75-.63,1.49-.88,2.21A12.38,12.38,0,0,0,217.26,36.15Z"/><path class="cls-1" d="M273,49a1.94,1.94,0,0,1-1.82-.81,4.28,4.28,0,0,1-.5-2.23,13.79,13.79,0,0,1,.11-1.63c.07-.58.16-1.18.28-1.8.2-1.07.42-2.13.67-3.18s.5-2.12.75-3.2.5-2.14.73-3.22.45-2.15.64-3.24a3.84,3.84,0,0,0,0-.39,1.24,1.24,0,0,0-.15-.66.5.5,0,0,0-.45-.24,2.29,2.29,0,0,0-1,.27,3.78,3.78,0,0,0-.91.6,26.44,26.44,0,0,0-4.5,5.45,34.85,34.85,0,0,0-1.71,3.09c-.54,1.1-1.1,2.29-1.68,3.6a34.28,34.28,0,0,0-1.12,3.33c-.24.91-.47,1.65-.67,2.21a3.32,3.32,0,0,1-.7,1.22,1.6,1.6,0,0,1-1.16.38,1.25,1.25,0,0,1-1.21-.69,4,4,0,0,1-.35-1.81,11.23,11.23,0,0,1,.19-2l7.07-39.82a6.44,6.44,0,0,1,.22-.79,3.23,3.23,0,0,1,.41-.78,2.32,2.32,0,0,1,.61-.6,1.37,1.37,0,0,1,.8-.24,6.29,6.29,0,0,1,.73,0,2.48,2.48,0,0,1,.7.18,1.14,1.14,0,0,1,.51.44,1.33,1.33,0,0,1,.21.78c0,.08,0,.25,0,.5s-.07.54-.13.86q-1.16,6.54-2.47,13.62l-2.67,14.3a43,43,0,0,1,2.72-4.14A23.93,23.93,0,0,1,270,25.21,13,13,0,0,1,273,23.09a7.62,7.62,0,0,1,3.32-.77,1.88,1.88,0,0,1,1.69,1,4.68,4.68,0,0,1,.6,2.49,6.72,6.72,0,0,1-.13,1.35c-.17.93-.36,1.83-.57,2.73s-.44,1.79-.67,2.69l-.69,2.76c-.23.94-.43,1.89-.6,2.88a35.63,35.63,0,0,0-.47,3.6c-.08,1.13-.14,2-.17,2.72a12.84,12.84,0,0,1-.19,1.69,6,6,0,0,1-.44,1.43,2.93,2.93,0,0,1-.73,1A1.5,1.5,0,0,1,273,49Z"/><path class="cls-1" d="M282.23,35.76a27.23,27.23,0,0,1,1-3.9A27.94,27.94,0,0,1,285,27.68a28.82,28.82,0,0,1,2.63-4.12,24.64,24.64,0,0,1,3.55-3.77,4.62,4.62,0,0,1,1-.59,4,4,0,0,1,1.38-.37,2.55,2.55,0,0,1,2.25-1.27,3.79,3.79,0,0,1,2.82,1.19A9.21,9.21,0,0,1,300.49,22c.16.44.31.87.44,1.3a11.87,11.87,0,0,1,.35,1.34c.09.47.16,1,.22,1.52a16.77,16.77,0,0,1,.09,1.84,22.58,22.58,0,0,1-.54,4.84,27.25,27.25,0,0,1-1.52,4.82,29.06,29.06,0,0,1-2.39,4.51A24.91,24.91,0,0,1,294,46a8.77,8.77,0,0,1-2.56,1.82,7.47,7.47,0,0,1-3.14.65,6.26,6.26,0,0,1-2.87-.62,5.48,5.48,0,0,1-2-1.76,8,8,0,0,1-1.2-2.74,14.52,14.52,0,0,1-.4-3.56A23,23,0,0,1,282.23,35.76Zm3.56.39c-.09.46-.15.9-.19,1.31s-.05.81-.05,1.19a9,9,0,0,0,.18,1.85,4.21,4.21,0,0,0,.59,1.48,2.92,2.92,0,0,0,1,1,3,3,0,0,0,1.49.35,4.66,4.66,0,0,0,3-1.16,11.75,11.75,0,0,0,2.5-2.91,20.4,20.4,0,0,0,1.84-3.75,21.77,21.77,0,0,0,1-3.69c.12-.7.23-1.36.33-2a12,12,0,0,0,.14-1.71,5,5,0,0,0-.21-1.47c-.13-.45-.31-.95-.52-1.52-.13-.34-.26-.69-.39-1.07s-.24-.73-.34-1.1a5.09,5.09,0,0,1-.37.74,1.82,1.82,0,0,1-.57.57,4,4,0,0,1-1.05.47,11.35,11.35,0,0,1-1.74.36,5.7,5.7,0,0,0-1.44,1,12.09,12.09,0,0,0-1.42,1.62,21.38,21.38,0,0,0-1.33,2A22.16,22.16,0,0,0,287.19,32c-.34.75-.63,1.49-.88,2.21A12.27,12.27,0,0,0,285.79,36.15Z"/><path class="cls-1" d="M311.55,6a15.65,15.65,0,0,1,.35-2.22,6.06,6.06,0,0,1,.63-1.71,1.15,1.15,0,0,1,1-.67,1.94,1.94,0,0,1,.76.18,3.14,3.14,0,0,1,.79.49,3,3,0,0,1,.64.77,2,2,0,0,1,.25,1,3,3,0,0,1-.06.55c0,.21-.08.42-.11.62l-5.36,30.19c-.21,1.2-.39,2.35-.54,3.44s-.25,2-.32,2.7v.72c0,.61,0,1.26-.08,2a13.14,13.14,0,0,1-.32,2,4.9,4.9,0,0,1-.66,1.53,1.27,1.27,0,0,1-1.08.62,1.57,1.57,0,0,1-1-.35,2.74,2.74,0,0,1-.71-.89,4.42,4.42,0,0,1-.4-1.16,5.42,5.42,0,0,1-.13-1.16c0-.32,0-.71.06-1.19s.1-1,.16-1.47.13-1,.21-1.54.14-1,.21-1.34l5.53-30.85C311.43,7.54,311.48,6.8,311.55,6Z"/><path class="cls-1" d="M316.22,41.78c.21-1.16.47-2.52.77-4.06s.62-3.19,1-4.92.67-3.49,1-5.3.67-3.56,1-5.27a1.77,1.77,0,0,1,.15-.41,3,3,0,0,1,.36-.57,2.25,2.25,0,0,1,.6-.49,1.62,1.62,0,0,1,.86-.22,2.45,2.45,0,0,1,.71.11,1.87,1.87,0,0,1,.61.32,1.49,1.49,0,0,1,.43.55,1.84,1.84,0,0,1,.16.8v.2a1.11,1.11,0,0,1,0,.19l-.6,3.2q-1,5.36-2.05,10.75t-2,10.82c0,.12-.07.27-.12.45a3.19,3.19,0,0,1-.24.54,1.62,1.62,0,0,1-.36.45.8.8,0,0,1-.52.18,1.64,1.64,0,0,1-1-.31,2.77,2.77,0,0,1-.72-.8,3.46,3.46,0,0,1-.45-1.06,4.25,4.25,0,0,1-.15-1.08v-.27a.93.93,0,0,1,0-.27Zm5.6-31.18a13,13,0,0,1,.38-1.53,4,4,0,0,1,1-1.63,4.34,4.34,0,0,1,.83-.5,2,2,0,0,1,.71-.22.67.67,0,0,1,.44.21,3.39,3.39,0,0,1,.4.45A6.8,6.8,0,0,1,326,8a.75.75,0,0,1,.69.55,3.52,3.52,0,0,1,.16,1.14,5.75,5.75,0,0,1-.06.87c0,.26-.08.48-.11.64a3.13,3.13,0,0,1-.49,1.16,4.29,4.29,0,0,1-1.82,1.49,2.5,2.5,0,0,1-.9.21,1.13,1.13,0,0,1-.77-.24,4.29,4.29,0,0,1-.67-1,2.14,2.14,0,0,1-.27-.71,3.73,3.73,0,0,1,0-.43,5.15,5.15,0,0,1,0-.59C321.76,10.93,321.79,10.76,321.82,10.6Z"/><path class="cls-1" d="M326.79,37a31.67,31.67,0,0,1,.74-3.25,25.78,25.78,0,0,1,1.15-3.22,22.08,22.08,0,0,1,1.63-3.12,18.93,18.93,0,0,1,2.21-2.91,22.2,22.2,0,0,1,1.81-1.82,14.55,14.55,0,0,1,1.94-1.49,10.9,10.9,0,0,1,2-1,5.58,5.58,0,0,1,2-.38,4.41,4.41,0,0,1,1.26.17,4.58,4.58,0,0,1,1,.46q.21-1,1.15-5.66T345.94,1.9A4.11,4.11,0,0,1,346.6.54a1.29,1.29,0,0,1,1-.54,3.34,3.34,0,0,1,.84.11,1.64,1.64,0,0,1,.73.42,2.23,2.23,0,0,1,.51.86,4.22,4.22,0,0,1,.2,1.41L345.6,27c-.13.68-.26,1.6-.37,2.76s-.22,2.37-.32,3.66-.18,2.55-.24,3.81-.08,2.33-.08,3.24a20.72,20.72,0,0,1-.28,3.34c-.09.48-.18.89-.27,1.22a2.54,2.54,0,0,1-.37.81,1.46,1.46,0,0,1-.59.46,2.57,2.57,0,0,1-.89.13,2.12,2.12,0,0,1-1-.18,1.17,1.17,0,0,1-.51-.5,1.68,1.68,0,0,1-.21-.72c0-.27,0-.56,0-.87s0-.64,0-1a3.41,3.41,0,0,0-.19-1c-.17.16-.4.38-.7.64l-.91.79-.87.76-.6.49c-.33.27-.7.54-1.12.83a11.65,11.65,0,0,1-1.34.82,8.9,8.9,0,0,1-1.5.61,5.35,5.35,0,0,1-1.57.24,4.19,4.19,0,0,1-1.88-.45,4.69,4.69,0,0,1-1.63-1.38A7.38,7.38,0,0,1,327,43.21a11.93,11.93,0,0,1-.43-3.36c0-.46,0-.91.06-1.37A14.19,14.19,0,0,1,326.79,37Zm3.71-.24a9.77,9.77,0,0,0-.17,1.75,10.66,10.66,0,0,0,.11,1.64,4.3,4.3,0,0,0,.39,1.34,2.58,2.58,0,0,0,.77.92,2.13,2.13,0,0,0,1.26.34,2.21,2.21,0,0,0,.92-.21,6.18,6.18,0,0,0,1-.52,10.44,10.44,0,0,0,.9-.66l.72-.62c.54-.5,1-1,1.51-1.48a10.77,10.77,0,0,0,2.23-3.45,12.63,12.63,0,0,0,.67-2.39c.15-.81.27-1.54.38-2.2s.2-1.31.29-1.95.16-1.28.23-1.94.15-1.39.22-2.2a1.5,1.5,0,0,0-.29-.34.8.8,0,0,0-.55-.17,5.25,5.25,0,0,0-1.89.41,10.61,10.61,0,0,0-2.11,1.16A13.6,13.6,0,0,0,335,28,17.37,17.37,0,0,0,333,30.41a17,17,0,0,0-1.55,2.94A15,15,0,0,0,330.5,36.72Z"/><path class="cls-1" d="M361.18,46a17.46,17.46,0,0,1,.15-2.09,25.65,25.65,0,0,0,.15-3c-.47.48-1,1-1.57,1.71s-1.16,1.3-1.78,1.9A13,13,0,0,1,356.3,46a3.1,3.1,0,0,1-1.7.61,2.9,2.9,0,0,1-1.23-.27,3.08,3.08,0,0,1-1-.72,8.56,8.56,0,0,1-1.64-2.53,7.89,7.89,0,0,1-.51-3,14.24,14.24,0,0,1,.1-1.57c.06-.54.16-1.17.29-1.87a32,32,0,0,1,2.8-8.81A24.51,24.51,0,0,1,358.35,21a5.3,5.3,0,0,1,2.27-1.43,8,8,0,0,1,2.25-.32,7.74,7.74,0,0,1,1.11.09l1.1.18c.33-.1.6-.17.8-.21a3.52,3.52,0,0,1,.66-.06,2.17,2.17,0,0,1,1.07.24,1.88,1.88,0,0,1,.69.65,3,3,0,0,1,.37.93,4.94,4.94,0,0,1,.12,1.1,6.54,6.54,0,0,1-.17,1.49c-.12.47-.23.95-.35,1.43L365.44,41c-.05.86-.1,1.66-.15,2.38a13.77,13.77,0,0,1-.25,2c-.05.18-.1.4-.16.67a3.33,3.33,0,0,1-.31.79,2.83,2.83,0,0,1-.54.65,1.26,1.26,0,0,1-.84.27,3.82,3.82,0,0,1-1.06-.12,1.38,1.38,0,0,1-.61-.35,1.17,1.17,0,0,1-.28-.54A4,4,0,0,1,361.18,46Zm-7.12-9.1c-.06.28-.12.68-.18,1.21a11.67,11.67,0,0,0-.1,1.56,5.85,5.85,0,0,0,.17,1.46.74.74,0,0,0,.75.65,2.83,2.83,0,0,0,1.69-.56,8.34,8.34,0,0,0,1.47-1.34c.61-.7,1.23-1.49,1.87-2.36a29.77,29.77,0,0,0,1.8-2.76,24.92,24.92,0,0,0,1.5-3,15.15,15.15,0,0,0,1-3c.11-.58.21-1.26.29-2a19.64,19.64,0,0,0,.11-2.05,2.53,2.53,0,0,0-.12-.77.5.5,0,0,0-.5-.37,4.43,4.43,0,0,0-2.11.57,9,9,0,0,0-2.05,1.54,14.42,14.42,0,0,0-1.87,2.27,21.3,21.3,0,0,0-1.62,2.8,24.75,24.75,0,0,0-1.26,3.07A24.3,24.3,0,0,0,354.06,36.9Z"/><path class="cls-1" d="M371.78,61.21a.84.84,0,0,1-.58-.24,2,2,0,0,1-.44-.63,4.34,4.34,0,0,1-.29-.86,4.18,4.18,0,0,1-.1-.92,4.28,4.28,0,0,1,.1-1,3.27,3.27,0,0,1,.27-.73,2.07,2.07,0,0,1,.34-.5,2.2,2.2,0,0,1,.34-.27l1.2-.39a10.14,10.14,0,0,0,1.49-.62,13.44,13.44,0,0,0,1.71-1,11.88,11.88,0,0,0,1.88-1.7c.64-.71,1.32-1.53,2-2.46a22.61,22.61,0,0,0,2-3.28,33.19,33.19,0,0,0,1.85-4.31A35.41,35.41,0,0,0,385,36.69l-.93,1.43c-.35.53-.73,1.08-1.13,1.63s-.81,1.08-1.24,1.6a17.42,17.42,0,0,1-1.29,1.38,6.93,6.93,0,0,1-1.25,1,2.29,2.29,0,0,1-1.15.36,3.45,3.45,0,0,1-2.44-.92,8.35,8.35,0,0,1-1.87-3,6.65,6.65,0,0,1-.36-1.57,14.13,14.13,0,0,1-.13-2c0-1.08,0-2.14.11-3.16s.17-2.09.32-3.2.31-2.26.5-3.48.41-2.55.66-4q0-.57.06-1.08a7.65,7.65,0,0,0,.05-.81,2.68,2.68,0,0,1,0-.49,2.83,2.83,0,0,1,.24-1,3.07,3.07,0,0,1,.5-.78,2.29,2.29,0,0,1,.62-.52,1.36,1.36,0,0,1,.65-.18,4,4,0,0,1,.9.11,1.17,1.17,0,0,1,.71.47,4.19,4.19,0,0,1,.55,1.41,7.88,7.88,0,0,1,.18,1.57,6.32,6.32,0,0,1-.18,1.08,12.54,12.54,0,0,1-.53,1.69q-.51,2.71-.84,4.59c-.21,1.26-.38,2.3-.5,3.14s-.21,1.49-.26,2-.07.86-.07,1.12a7.27,7.27,0,0,0,.38,2.59c.26.65.58,1,.95,1a1.93,1.93,0,0,0,.74-.18,3.48,3.48,0,0,0,.89-.6,19.5,19.5,0,0,0,3.1-3.42,22.31,22.31,0,0,0,2.23-4.1,35.66,35.66,0,0,0,1.6-4.93c.45-1.78.87-3.75,1.24-5.9a1,1,0,0,1,.2-.42,1.67,1.67,0,0,1,.39-.36,2.77,2.77,0,0,1,.48-.26,1.26,1.26,0,0,1,.49-.1,2,2,0,0,1,1.75.85,3.9,3.9,0,0,1,.61,2.31,12.33,12.33,0,0,1-.19,1.75c-.13.8-.28,1.65-.45,2.54s-.35,1.75-.53,2.56-.32,1.41-.42,1.79l-1,4.19c-.48,1.89-.9,3.63-1.28,5.21s-.78,3.07-1.21,4.45a38,38,0,0,1-1.45,3.9,24.93,24.93,0,0,1-1.94,3.58,29.47,29.47,0,0,1-2.7,3.51,42.08,42.08,0,0,1-3.73,3.66,17,17,0,0,1-2.61,1.82A5.39,5.39,0,0,1,371.78,61.21Z"/></g></g></svg>