<svg xmlns="http://www.w3.org/2000/svg" viewBox="0 0 286.5 98.32"><defs><style>.cls-1{fill:#006837;}.cls-2,.cls-3{fill:#fff;}.cls-3{font-size:27.65px;font-family:MVBoli, MV Boli;}.cls-4{letter-spacing:-0.01em;}.cls-5{letter-spacing:-0.01em;}.cls-6{letter-spacing:0em;}.cls-7{letter-spacing:-0.01em;}.cls-8{letter-spacing:-0.01em;}.cls-9{letter-spacing:-0.01em;}</style></defs><title>logo-mne_1</title><g id="Layer_2" data-name="Layer 2"><g id="mont"><path class="cls-1" d="M38.3,95.18c1.6.53,1.8,1.47,1.47,2.6-.17.56-.54.75-1,.26a10.33,10.33,0,0,0-5-3.08A5.47,5.47,0,0,1,30,91.34a4,4,0,0,1,.09-1.64,3.16,3.16,0,0,0-1.7-3.55,4.63,4.63,0,0,1-1-.91.68.68,0,0,1-.14-.51c.09-.36.48-.9.37-1A6.16,6.16,0,0,0,25.7,82c-.66-.28-1.48,0-1.68-1.12-.07-.35-1-.54-1.05-.9-.31-1.51-1.83-1.69-2.63-2.62a5.56,5.56,0,0,1-.78-1.9c-.28-.86-.36-1.94-1.65-1.72-1,.17-2.2-.45-3.13.49-.06.07-.51-.09-.64-.26C13.07,72.51,12,71.05,11,69.52c-.28-.44-.16-1.12-.41-1.6-.08-.16-1-.06-1.06,0-.08,1.24-1.16.91-1.59.73a6.46,6.46,0,0,1-2-1.55c-.54-.57-.94-1.27-1.42-1.89,0-.07-.28,0-.4,0a3.69,3.69,0,0,1-1.28-.54C2,63.83,1.23,63,.45,62.09c-.19-.21-.49-.61-.45-.66.93-1-.06-2.16.2-3.19a1.92,1.92,0,0,1,.88-1.07c1-.57,2.06-1,3-1.57.16-.09,0-.7,0-1.08a4,4,0,0,1,.08-1.21c.28-.8.74-1.54,1-2.35.52-1.8.16-3-2-3.48-1.36-.29-2-1.91-1.8-3.29,0-.12,0-.32.09-.34,1.49-.56.68-1.48.45-2.37a1.58,1.58,0,0,1,.33-1.18,2.11,2.11,0,0,0,.1-2.94c-.58-.74-.23-3.56.47-4.36a2.68,2.68,0,0,0,.72-1.3A1.32,1.32,0,0,1,5,30.4c1.09,0,2.19,0,3.28,0,.85,0,1.29-.31,1.18-1.24-.2-1.6-.37-3.2-.51-4.81a4.21,4.21,0,0,1,1.44-3.57c.78-.74,1.64-1.51,1-2.83-.08-.18.15-.66.37-.79,1.09-.67,2.21-1.29,3.35-1.88.49-.25,1.07-.34,1.59-.57s1.18-.59.64-1.44c-.35-.55-.21-1,.47-1.21a4.86,4.86,0,0,1,2.44-.31C21,12,22.14,13.06,22,13.53c-.31,1.38.41,2,1.2,2.74.13.13,0,.56.1.7a16.3,16.3,0,0,0,1.31,1.17c.23-.32.45-.65.68-1a17.7,17.7,0,0,1,1.44-1.86,1.38,1.38,0,0,0,.34-1.9A23.18,23.18,0,0,1,26,10.34c-.09-.26-.13-.63-.32-.75a2.15,2.15,0,0,1-1-1.93c0-.32-.71-.78-1.16-.87C22.1,6.49,22.05,6.4,22.23,5a2.68,2.68,0,0,0-.5-1.6c-.38-.58-1-1,.22-1.33A2.12,2.12,0,0,0,23,.74c.31-.95.69-.93,1.22-.27a12,12,0,0,1,1.14,1.76c.34.62.62,1.08,1.47.63a32.86,32.86,0,0,1,3-1.35,1.48,1.48,0,0,1,.81,0,8.39,8.39,0,0,1,1.75.39,1.35,1.35,0,0,1,.77.82A5.16,5.16,0,0,0,37,7a2.11,2.11,0,0,1,1.1.63C39,8.73,40.29,9,41.48,9.42c.3.12.72.37.77.62.23,1.18.44,2.23,1.75,2.82.64.28.9,1.34,1.93,1.09a3,3,0,0,1,.22.83c.05,1.94.67,2.73,2.45,3.59A4.53,4.53,0,0,1,50.36,20c.78,1.24,1.58,2.14,3.24,2.1a9.36,9.36,0,0,1,2.83.78c.1,0,.18.26.2.4a1.74,1.74,0,0,0,1.81,1.75.62.62,0,0,1,.38.38c.19.83.54.64,1.21.44s1.25.29,1.9.4a2,2,0,0,0,1.16,0c.78-.43,1.12-.16,1.52.54a14.41,14.41,0,0,0,1.59,2.09c.66.76,1.34,1.51,2.06,2.21S70,32.7,71,33.5c.1.08.35.15.43.09,1.72-1.23,2.86.61,4.29.86,1.12.2,2.12,1,3.22,1.43a2.41,2.41,0,0,1,1.86,2.6A13.23,13.23,0,0,0,81,40.11c.07.51.06,1,.09,1.53l-1.37,0c-.85,0-1.84-.54-2.43.54a1.28,1.28,0,0,0-.2.8c.52,2-.56,3.44-2.51,2.83a6,6,0,0,0-2.84-.53c-.44.07-1-.54-1.47-.77a2.29,2.29,0,0,0-3.23,2.09c0,2.06,0,2.06,2.08,3a3,3,0,0,1,1.06,2.86c-.09.23,0,.52,0,.78a4.93,4.93,0,0,1-.3.67c-.1.2-.32.44-.29.61.47,2.31.48,2.3-1.82,3.31a1.36,1.36,0,0,0-.69.78,2,2,0,0,1-2.77,1.44,1.22,1.22,0,0,0-1.74.43c-.49,1-1.44,1-2.22,1.35-.18.08-.48.07-.56.2-.83,1.5-1.67.33-2.11-.18a10,10,0,0,1-2-3.34c-.24-.79.31-1.81.52-2.73,0-.11.19-.23.17-.3-.42-1.24-.86-2.47-1.3-3.7a.62.62,0,0,0-.26-.21c-.59.57-1.18,1.15-1.75,1.75-.12.14-.13.47-.25.5-1.17.28-2.91,2.32-2.76,3.49a2.36,2.36,0,0,1-1.15,2.33,5.54,5.54,0,0,0-1,1.52c-.65,1.1-1.27,2.21-1.93,3.3a16.15,16.15,0,0,1-1.15,1.6,7.45,7.45,0,0,1-1.62,1.69,2.66,2.66,0,0,0-1.43,2.33,5.13,5.13,0,0,1-.81,2.31c-1.37,2.21-2.86,4.34-4.25,6.54a1.09,1.09,0,0,0,.22,1q1.44,1.56,3,3a1.71,1.71,0,0,1,.51,1.8,42.8,42.8,0,0,0-.51,5.87c0,.76.61,1.56-.7,1.78a1,1,0,0,0-.11.79C39.82,94,39.67,94.62,38.3,95.18Z"/></g><g id="Layer_3" data-name="Layer 3"><path class="cls-2" d="M12,50.35A5.14,5.14,0,0,1,9,49.56a2.16,2.16,0,0,1-1-1.77,2.6,2.6,0,0,1,.16-.87,21.91,21.91,0,0,1,1.37-2.84c.58-1,1.24-2.09,2-3.19s1.58-2.23,2.48-3.36,1.83-2.23,2.8-3.3,2-2.11,3-3.07,2.06-1.84,3.06-2.6l1.09-.78q.68-.48,1.5-1c.54-.33,1.1-.66,1.7-1A20.22,20.22,0,0,1,29,24.88a14.56,14.56,0,0,1,1.93-.7,7.88,7.88,0,0,1,2.14-.32,9.37,9.37,0,0,1,2.31.28,6.13,6.13,0,0,1,1.88.84,3.84,3.84,0,0,1,1.19,1.26,3.06,3.06,0,0,1,.41,1.54,2.71,2.71,0,0,1-.08.69,4,4,0,0,1-.18.63l-1.3,4.24.1-.09c.61-.57,1.22-1.12,1.81-1.65l1.64-1.45,1.23-1.06.46-.38c.31-.26.69-.56,1.13-.9s.94-.71,1.48-1.08,1.12-.76,1.73-1.13a21,21,0,0,1,1.92-1,15.05,15.05,0,0,1,2-.77,8,8,0,0,1,2.32-.37,4.52,4.52,0,0,1,1.87.36,3.09,3.09,0,0,1,1.13.82,2.46,2.46,0,0,1,.51,1,4.09,4.09,0,0,1,.12,1,6.22,6.22,0,0,1-.19,1.53,11.77,11.77,0,0,1-.43,1.34l-2.07,8.05-1.29,5c-.2.74-.37,1.4-.53,2s-.29,1.05-.39,1.38c-.06.17-.14.39-.26.67a3.79,3.79,0,0,1-.61,1,4,4,0,0,1-1.19.94,4.75,4.75,0,0,1-2.24.5,3.87,3.87,0,0,1-1.66-.36,4.1,4.1,0,0,1-1-.65,3.26,3.26,0,0,1-.65-.81,2.21,2.21,0,0,1-.27-.81v-.14l4.9-15.09c-.7.47-1.41,1-2.11,1.56-.85.68-1.71,1.41-2.56,2.17s-1.67,1.53-2.43,2.3-1.28,1.27-2,2l-2.13,2c-.71.67-1.39,1.35-2.05,2S34.33,44.44,33.79,45a7,7,0,0,0-.72,1,15.61,15.61,0,0,1-1,1.46,7.36,7.36,0,0,1-1.26,1.34,4,4,0,0,1-2.55.87,5.85,5.85,0,0,1-1.59-.2,3.24,3.24,0,0,1-1.19-.6,1.87,1.87,0,0,1-.6-.8,2.06,2.06,0,0,1-.15-.79,3.38,3.38,0,0,1,.14-.93c.08-.26.16-.51.25-.75.35-1,.72-1.9,1.1-2.84l2.44-5.91c.43-1,.87-2.15,1.31-3.32.11-.32.24-.7.4-1.11s.28-.81.41-1.23a11.19,11.19,0,0,0,.3-1.17,4.28,4.28,0,0,0,.1-.57,10,10,0,0,0-1.79,1,18,18,0,0,0-1.93,1.55c-.66.6-1.29,1.23-1.88,1.87s-1.16,1.28-1.67,1.91-1,1.2-1.34,1.7l-.4.49c-.15.18-.34.43-.59.75s-.56.76-.93,1.27-.79,1.17-1.29,2-1.08,1.76-1.74,2.87-1.4,2.41-2.23,3.91A2.78,2.78,0,0,1,14,49.94,5,5,0,0,1,12,50.35Z"/><path class="cls-2" d="M9.63,47.14a21.2,21.2,0,0,1,1.31-2.72c.57-1,1.22-2,2-3.12s1.54-2.19,2.43-3.31,1.81-2.2,2.76-3.26,1.93-2.06,2.93-3a38.07,38.07,0,0,1,3-2.52l1.05-.76c.43-.3.9-.61,1.42-.93s1.07-.64,1.64-1a18.43,18.43,0,0,1,1.73-.85,12.94,12.94,0,0,1,1.69-.62,5.79,5.79,0,0,1,1.52-.23,6.59,6.59,0,0,1,1.72.21,4.29,4.29,0,0,1,1.35.6,2.82,2.82,0,0,1,.87.92,2.43,2.43,0,0,1,.31,1.19,2.48,2.48,0,0,1-.06.54c-.05.19-.1.37-.17.57l-2.76,9,1-1,1.52-1.42,1.76-1.62c.61-.57,1.21-1.11,1.8-1.64s1.13-1,1.63-1.44l1.22-1.06.45-.37,1.09-.87c.43-.33.91-.68,1.43-1s1.07-.73,1.65-1.08a15.17,15.17,0,0,1,1.77-.95,13.45,13.45,0,0,1,1.77-.69,5.58,5.58,0,0,1,1.66-.27,2.37,2.37,0,0,1,1,.18,1.7,1.7,0,0,1,1,1.18,3.33,3.33,0,0,1,.1.84A6,6,0,0,1,55,28a10.24,10.24,0,0,1-.4,1.25c-.09.3-.2.73-.34,1.29s-.3,1.2-.5,1.93-.39,1.51-.6,2.35-.44,1.7-.66,2.57-.45,1.73-.68,2.58l-.62,2.37c-.19.74-.36,1.4-.52,2s-.29,1-.38,1.35c0,.15-.13.36-.24.61a3,3,0,0,1-.47.76,2.87,2.87,0,0,1-.82.65,2.67,2.67,0,0,1-1.26.27,1.83,1.83,0,0,1-.76-.17,2.32,2.32,0,0,1-.64-.43,2.09,2.09,0,0,1-.45-.55,1.53,1.53,0,0,1-.19-.54l5.18-15.92c0-.15.09-.29.12-.4a1.47,1.47,0,0,0,.05-.34.88.88,0,0,0-.06-.33,1.53,1.53,0,0,1-.11-.27,3,3,0,0,0-.16-.26,21.82,21.82,0,0,0-2.39,1.4c-.86.56-1.72,1.19-2.59,1.88s-1.74,1.43-2.61,2.21-1.7,1.56-2.47,2.34c-.62.62-1.28,1.26-2,1.94l-2.13,2q-1.07,1-2.07,2c-.67.68-1.28,1.34-1.83,2a7.45,7.45,0,0,0-.82,1.16c-.28.47-.59.93-.93,1.39a7.19,7.19,0,0,1-1.1,1.16,2,2,0,0,1-1.33.48,3.59,3.59,0,0,1-.95-.11,1.73,1.73,0,0,1-.61-.3,1.09,1.09,0,0,1-.33-.44,1.53,1.53,0,0,1-.1-.54,2.76,2.76,0,0,1,.11-.74l.24-.71c.35-.94.71-1.88,1.1-2.82s.77-1.89,1.18-2.86l1.25-3c.43-1,.87-2.16,1.32-3.35l.4-1.12c.15-.41.29-.83.42-1.25s.24-.84.32-1.23a4.92,4.92,0,0,0,.13-1.07,2,2,0,0,0-.1-.67.38.38,0,0,0-.37-.25,4.79,4.79,0,0,0-1.94.45,12,12,0,0,0-2.07,1.16,21.71,21.71,0,0,0-2.06,1.66c-.68.63-1.33,1.27-1.94,1.93s-1.19,1.31-1.72,2-1,1.22-1.36,1.74l-.36.44c-.16.19-.37.45-.63.79s-.57.77-.94,1.3-.81,1.19-1.32,2-1.09,1.76-1.75,2.88S14.78,47,14,48.48a1.58,1.58,0,0,1-.78.63,2.9,2.9,0,0,1-1.16.24,3.22,3.22,0,0,1-1.9-.45,1.33,1.33,0,0,1-.61-1.11A1.87,1.87,0,0,1,9.63,47.14Z"/><path class="cls-2" d="M65.23,50.21a16.88,16.88,0,0,1-3.84-.39,9.13,9.13,0,0,1-2.91-1.18,5.18,5.18,0,0,1-1.75-1.84,4.6,4.6,0,0,1-.55-2.23,6.91,6.91,0,0,1,.49-2.42,10,10,0,0,1,1.26-2.26,14.14,14.14,0,0,1,2.2-2.41,23.21,23.21,0,0,1,3.24-2.34A28.12,28.12,0,0,1,67.73,33a10.34,10.34,0,0,1,1.46-.41,12.94,12.94,0,0,1,1.41-.22,7,7,0,0,1,3.29-.71,9.68,9.68,0,0,1,4.18.83,7.57,7.57,0,0,1,2.66,2.08c.2.26.38.5.54.74a4.84,4.84,0,0,1,.48.86,6.33,6.33,0,0,1,.3.93,5,5,0,0,1,.12,1.13,6.87,6.87,0,0,1-.69,2.89,11.25,11.25,0,0,1-1.92,2.79,17.68,17.68,0,0,1-3,2.58,23.87,23.87,0,0,1-3.86,2.21,15.68,15.68,0,0,1-3.39,1.11A20,20,0,0,1,65.23,50.21Zm5.22-12.56a6.22,6.22,0,0,0-1.14.4,12,12,0,0,0-1.46.76q-.73.46-1.41,1a13,13,0,0,0-1.2,1.08A12.73,12.73,0,0,0,64.29,42a3.73,3.73,0,0,0-.49.86,2.77,2.77,0,0,0-.18.59,3.15,3.15,0,0,0,0,.52,1.78,1.78,0,0,0,.14.7,1.09,1.09,0,0,0,.34.4,2.06,2.06,0,0,0,.63.27,5,5,0,0,0,1.15.11,7.7,7.7,0,0,0,2.74-.48,11,11,0,0,0,2.52-1.36A10.33,10.33,0,0,0,73,41.78,7,7,0,0,0,74.08,40c.14-.37.27-.71.37-1a2.19,2.19,0,0,0,.13-.71.77.77,0,0,0-.11-.39c-.15-.22-.33-.46-.55-.73h0a10.71,10.71,0,0,1-1.46.29C71.92,37.53,71.26,37.6,70.45,37.65Z"/><path class="cls-2" d="M58.17,42.39a9.89,9.89,0,0,1,1.16-2.09,13.33,13.33,0,0,1,2.05-2.23,19.87,19.87,0,0,1,3.05-2.2,27.15,27.15,0,0,1,4.11-2,7.75,7.75,0,0,1,1.14-.31,8.44,8.44,0,0,1,1.59-.2,4.45,4.45,0,0,1,2.62-.68,7.63,7.63,0,0,1,3.27.63A6.39,6.39,0,0,1,79.36,35c.18.23.35.46.5.69a3.39,3.39,0,0,1,.4.72,4,4,0,0,1,.26.81,4.22,4.22,0,0,1,.1,1,6,6,0,0,1-.62,2.6,10.47,10.47,0,0,1-1.76,2.58,17.72,17.72,0,0,1-2.78,2.41,24,24,0,0,1-3.61,2.07,14.27,14.27,0,0,1-3,1,17.5,17.5,0,0,1-3.64.35,14.73,14.73,0,0,1-3.32-.33,7.23,7.23,0,0,1-2.33-1,3.82,3.82,0,0,1-1.86-3.36A6,6,0,0,1,58.17,42.39Zm4.13.21a3.65,3.65,0,0,0-.21.7,3.58,3.58,0,0,0-.07.64,2.39,2.39,0,0,0,.22,1,1.89,1.89,0,0,0,.68.79,3.56,3.56,0,0,0,1.18.51,6.62,6.62,0,0,0,1.73.19,9.91,9.91,0,0,0,3.52-.62,11.74,11.74,0,0,0,2.89-1.56,11.09,11.09,0,0,0,2.13-2,8,8,0,0,0,1.21-2c.15-.37.27-.73.38-1.06a2.92,2.92,0,0,0,.16-.92,1.45,1.45,0,0,0-.23-.78,9.53,9.53,0,0,0-.61-.81l-.45-.57c-.15-.2-.28-.4-.4-.59a2.56,2.56,0,0,1-.42.39,2.22,2.22,0,0,1-.67.31,9.81,9.81,0,0,1-1.22.25c-.51.07-1.19.14-2,.19a8.58,8.58,0,0,0-1.67.55,14.49,14.49,0,0,0-1.65.87,14.66,14.66,0,0,0-2.86,2.26,13,13,0,0,0-1,1.19A4,4,0,0,0,62.3,42.6Z"/><path class="cls-2" d="M100.24,50a4.6,4.6,0,0,1-2.41-.51A1.66,1.66,0,0,1,97,48a4.46,4.46,0,0,1,.24-1.31,11.47,11.47,0,0,1,.64-1.53c.26-.54.57-1.11.92-1.72s.72-1.21,1.13-1.84.62-1,.92-1.47.56-.93.79-1.38a8.82,8.82,0,0,0,.54-1.22,2.71,2.71,0,0,0,.19-.94.66.66,0,0,0,0-.25,5.26,5.26,0,0,0-1.27.18,16.51,16.51,0,0,0-1.82.63c-.66.28-1.35.61-2,1s-1.42.76-2.12,1.15c-.4.23-.77.42-1.12.6a5.42,5.42,0,0,1-.83.35c-.13.17-.27.37-.41.59-.25.39-.49.81-.73,1.26s-.47,1-.69,1.43-.39.92-.53,1.33a4.29,4.29,0,0,0-.18.59c0,.23-.11.46-.18.72s-.15.52-.25.81-.21.61-.35,1a2,2,0,0,1-.78.94,3.63,3.63,0,0,1-1,.48,4.45,4.45,0,0,1-1.06.22,5.27,5.27,0,0,1-.63,0,5.58,5.58,0,0,1-2.47-.49,2,2,0,0,1-1.21-1.92,5.17,5.17,0,0,1,0-.54,2.63,2.63,0,0,1,.2-.75c.35-1,.71-1.93,1-2.76s.7-1.61,1.06-2.32.71-1.38,1.08-2,.72-1.24,1.1-1.87.76-1.29,1.17-2,.83-1.4,1.29-2.21a2.54,2.54,0,0,1,1.6-1,7.14,7.14,0,0,1,2-.27,5.89,5.89,0,0,1,2.43.45,2,2,0,0,1,1.22,1.21l1-.37a22,22,0,0,1,2.65-.76,13.5,13.5,0,0,1,2.87-.32,9.14,9.14,0,0,1,4.8,1.1,3.66,3.66,0,0,1,1.82,3.3,6.66,6.66,0,0,1-.59,2.53A27.73,27.73,0,0,1,108,41.4c-.54,1-1.12,2-1.75,3.08s-1.18,2.13-1.7,3.2a5.09,5.09,0,0,1-.55.91,3,3,0,0,1-.92.8,4.39,4.39,0,0,1-1.35.47A8.21,8.21,0,0,1,100.24,50Z"/><path class="cls-2" d="M102.3,35.33a7.09,7.09,0,0,0-1.86.27,16,16,0,0,0-2.07.72c-.71.3-1.44.64-2.17,1s-1.47.78-2.18,1.18c-.36.21-.71.39-1,.56a5.37,5.37,0,0,1-1,.38,6.59,6.59,0,0,0-.73,1c-.26.41-.51.85-.76,1.32s-.48,1-.71,1.47-.41,1-.56,1.39a6.3,6.3,0,0,0-.2.67c0,.21-.11.44-.17.68s-.15.5-.24.78-.2.59-.33.94a1.19,1.19,0,0,1-.4.49,2.16,2.16,0,0,1-.57.28,3.23,3.23,0,0,1-.57.12,3.82,3.82,0,0,1-.43,0,3.44,3.44,0,0,1-1.54-.29,1.11,1.11,0,0,1-.6-1.12,4.12,4.12,0,0,1,0-.48,2.17,2.17,0,0,1,.15-.55c.36-1,.72-1.94,1.06-2.76s.68-1.57,1-2.27.7-1.36,1-2l1.1-1.86q.55-.95,1.17-2c.4-.68.84-1.42,1.3-2.24a1.31,1.31,0,0,1,.79-.46,4.89,4.89,0,0,1,1.35-.18,3.81,3.81,0,0,1,1.55.27.87.87,0,0,1,.61.79.48.48,0,0,1,0,.18,1.16,1.16,0,0,1-.14.27l-1.1,1.68c.7-.36,1.42-.71,2.18-1.06a22.6,22.6,0,0,1,2.32-1,19.75,19.75,0,0,1,2.4-.7,11.46,11.46,0,0,1,2.37-.26,7.09,7.09,0,0,1,3.73.83,2.8,2.8,0,0,1,1.35,2.57,5.94,5.94,0,0,1-.54,2.27,26.16,26.16,0,0,1-1.34,2.73q-.81,1.45-1.74,3.06c-.62,1.07-1.2,2.16-1.73,3.27a4.24,4.24,0,0,1-.46.75,1.74,1.74,0,0,1-.56.49,2.14,2.14,0,0,1-.76.27,6.24,6.24,0,0,1-1.05.08,2.83,2.83,0,0,1-1.35-.23.84.84,0,0,1-.37-.75,3.79,3.79,0,0,1,.21-1.11,10.54,10.54,0,0,1,.6-1.43c.26-.52.55-1.08.89-1.67s.71-1.19,1.11-1.8.63-1,.93-1.48.58-1,.82-1.44a10.58,10.58,0,0,0,.59-1.32,3.47,3.47,0,0,0,.22-1.16,1.3,1.3,0,0,0-.33-.88A1.68,1.68,0,0,0,102.3,35.33Z"/><path class="cls-2" d="M122.37,49.35a12.29,12.29,0,0,1-3.52-.47,8.23,8.23,0,0,1-2.64-1.29,5.48,5.48,0,0,1-1.6-1.85,4.87,4.87,0,0,1-.52-2.19,10,10,0,0,1,.5-3c.2-.61.4-1.2.62-1.78a10,10,0,0,1-1.39-.36,4.85,4.85,0,0,1-1.36-.73,1.64,1.64,0,0,1-.68-1.28,1.68,1.68,0,0,1,.15-.64,2.67,2.67,0,0,1,.43-.66,2.91,2.91,0,0,1,.87-.67,3.62,3.62,0,0,1,1.63-.37h2.74l0,0c.21-.61.42-1.17.61-1.64l.49-1.16.3-.75a.78.78,0,0,0,.06-.24c0-.11,0-.22,0-.32a4.6,4.6,0,0,1,0-.61v-.16a3,3,0,0,1,0-.46,3.21,3.21,0,0,1,.31-.79,2.47,2.47,0,0,1,.89-.95,3.91,3.91,0,0,1,2.29-.59,5.58,5.58,0,0,1,1.91.31,3.8,3.8,0,0,1,1.29.78,2.77,2.77,0,0,1,.65,1,2.74,2.74,0,0,1,.2,1,2.57,2.57,0,0,1-.17,1l-1.21,3,2.09-.26,1.9-.26,1.45-.22,1-.15a8.26,8.26,0,0,1,1-.08c.34,0,.69,0,1,.05a6.46,6.46,0,0,1,1.16.22,3.07,3.07,0,0,1,1.09.59,1.38,1.38,0,0,1,.49,1.06,1.79,1.79,0,0,1-.41,1.14,3.16,3.16,0,0,1-1,.8,5.39,5.39,0,0,1-1.24.53,7.61,7.61,0,0,1-1.26.26l-1,.14-3,.45-3.53.58-1.49.21-.61.07c-.19.38-.35.76-.49,1.12-.23.58-.42,1.11-.57,1.6a11.83,11.83,0,0,0-.33,1.3,4.35,4.35,0,0,0-.1.82,2.08,2.08,0,0,0,.09.63.77.77,0,0,0,.2.33.42.42,0,0,0,.22.12,1.92,1.92,0,0,0,.58.06,5.31,5.31,0,0,0,1.82-.33,11.26,11.26,0,0,0,2.12-1,17.54,17.54,0,0,0,2-1.46c.68-.56,1.3-1.1,1.88-1.61a2.93,2.93,0,0,1,2-.7,4.76,4.76,0,0,1,.72.06,4.31,4.31,0,0,1,.87.24,2.49,2.49,0,0,1,.79.5,1.14,1.14,0,0,1,.41.87,1.31,1.31,0,0,1-.06.41,8.64,8.64,0,0,1-1.38,2.26c-.56.67-1.13,1.35-1.72,2a5.49,5.49,0,0,1-1,.89c-.37.25-.77.5-1.19.73s-.86.45-1.31.66-.84.37-1.23.53a10.47,10.47,0,0,1-2.59.67A19,19,0,0,1,122.37,49.35Z"/><path class="cls-2" d="M115.63,43.55a9.24,9.24,0,0,1,.47-2.81c.32-1,.65-1.9,1-2.8a8.67,8.67,0,0,1-1.32-.13,6.81,6.81,0,0,1-1.22-.3,3,3,0,0,1-.89-.48.79.79,0,0,1-.35-.65.89.89,0,0,1,.1-.37,1.63,1.63,0,0,1,.28-.44,1.54,1.54,0,0,1,.49-.37,1.35,1.35,0,0,1,.67-.16h3.33a.74.74,0,0,0,.65-.26,3.31,3.31,0,0,0,.27-.53c.22-.62.42-1.16.61-1.62s.35-.84.49-1.16.23-.57.31-.77a1.6,1.6,0,0,0,.11-.47,2.73,2.73,0,0,0,0-.41c0-.13,0-.3,0-.53v-.16a1.61,1.61,0,0,1,0-.34,2.09,2.09,0,0,1,.23-.59,1.49,1.49,0,0,1,.55-.58,2,2,0,0,1,1.17-.28,3.21,3.21,0,0,1,1.14.18,2.09,2.09,0,0,1,.77.47,1.85,1.85,0,0,1,.45.66,1.92,1.92,0,0,1,.15.74,1.81,1.81,0,0,1-.13.72l-1.81,4.51c.89-.09,1.69-.18,2.39-.27l2.08-.26c.77-.09,1.43-.19,2-.27L131,33.6l1-.14a4.82,4.82,0,0,1,.68-.06,7.32,7.32,0,0,1,.81,0,3.54,3.54,0,0,1,.72.14,1.24,1.24,0,0,1,.51.27.6.6,0,0,1,.2.47,1,1,0,0,1-.24.68,2.1,2.1,0,0,1-.61.52,3.79,3.79,0,0,1-.84.35,6.43,6.43,0,0,1-.95.2l-1,.15-1.39.21-1.58.24-1.59.26-2,.32c-.54.09-1,.15-1.38.19l-.93.1-.59,0c-.31.62-.59,1.22-.82,1.81s-.43,1.14-.58,1.65a11.07,11.07,0,0,0-.35,1.37,5,5,0,0,0-.11.94,2.82,2.82,0,0,0,.12.83,1.65,1.65,0,0,0,.42.69,2.24,2.24,0,0,0,.81.46,4.25,4.25,0,0,0,1.28.16,7.49,7.49,0,0,0,2.59-.46,13.25,13.25,0,0,0,2.42-1.19,19,19,0,0,0,2.19-1.57c.69-.57,1.32-1.11,1.9-1.63a1.08,1.08,0,0,1,.77-.29,2.81,2.81,0,0,1,.36,0,1.91,1.91,0,0,1,.41.11.89.89,0,0,1,.34.21.41.41,0,0,1,.14.31.47.47,0,0,1,0,.19,7.63,7.63,0,0,1-1.23,2c-.56.68-1.12,1.35-1.7,2a4.28,4.28,0,0,1-.79.69,10.47,10.47,0,0,1-1,.65q-.57.32-1.2.6l-1.16.51a8.72,8.72,0,0,1-2.07.53,18,18,0,0,1-2.16.14A9.64,9.64,0,0,1,119.5,48a6.45,6.45,0,0,1-2.12-1,4.46,4.46,0,0,1-1.3-1.52A4,4,0,0,1,115.63,43.55Z"/><path class="cls-2" d="M146.3,49.88c-.44,0-1,0-1.55-.05a16.79,16.79,0,0,1-1.93-.22,14.35,14.35,0,0,1-2-.49,7.74,7.74,0,0,1-1.94-.93,5.06,5.06,0,0,1-1.38-1.43,3.73,3.73,0,0,1-.52-2,4.92,4.92,0,0,1,.16-1.21,1.45,1.45,0,0,1-.73-1.24,2.28,2.28,0,0,1,.89-1.78,4.35,4.35,0,0,1,1.66-.85c.17-.19.37-.42.61-.67a19.82,19.82,0,0,1,1.51-1.4,20.23,20.23,0,0,1,2.05-1.51,16.94,16.94,0,0,1,2.6-1.43,19.13,19.13,0,0,1,3.15-1.08,16.11,16.11,0,0,1,3.74-.43,14.81,14.81,0,0,1,3,.27,8.27,8.27,0,0,1,2.32.84,4,4,0,0,1,1.44,1.33,2.9,2.9,0,0,1,.46,1.57,3.24,3.24,0,0,1-.28,1.33,4.47,4.47,0,0,1-1.63,2,12.19,12.19,0,0,1-2.57,1.37,20.23,20.23,0,0,1-3.08.93c-1,.24-2.12.44-3.17.6s-2.07.28-3,.36l-1.48.12,0,0a1.84,1.84,0,0,0-.12.63c0,.3.14.47.48.63a6,6,0,0,0,2.28.34,12.45,12.45,0,0,0,1.87-.14,15.68,15.68,0,0,0,1.79-.39c.58-.16,1.13-.34,1.64-.53s1-.38,1.44-.58c.65-.28,1.28-.52,1.87-.71a6.62,6.62,0,0,1,2.13-.38,2.7,2.7,0,0,1,2.14.71,1.39,1.39,0,0,1,.37.92c0,.11,0,.22,0,.32a1.9,1.9,0,0,1-.06.31,3.18,3.18,0,0,1-.68,1.16,4.77,4.77,0,0,1-1.3,1,23.26,23.26,0,0,1-5.82,2.06A30.73,30.73,0,0,1,146.3,49.88Zm5.57-12.16a4.17,4.17,0,0,0-1.42.25,9.54,9.54,0,0,0-1.68.78l-.39.24a15.08,15.08,0,0,0,1.81-.4,5.57,5.57,0,0,0,1.38-.57,1.25,1.25,0,0,0,.38-.3Z"/><path class="cls-2" d="M137.94,42.34a1.48,1.48,0,0,1,.57-1.17,3.07,3.07,0,0,1,1.52-.65c.18-.23.46-.55.85-1a17.26,17.26,0,0,1,1.41-1.31,23.65,23.65,0,0,1,1.93-1.43,17.4,17.4,0,0,1,2.39-1.3,16.56,16.56,0,0,1,2.81-1,13.1,13.1,0,0,1,3.19-.37,12.33,12.33,0,0,1,2.51.22,6.39,6.39,0,0,1,1.77.63,2.94,2.94,0,0,1,1,1,2.24,2.24,0,0,1,.35,1.2,2.67,2.67,0,0,1-.22,1,3.59,3.59,0,0,1-1.3,1.58A10.53,10.53,0,0,1,154.54,41a19.05,19.05,0,0,1-2.79.85c-1,.22-2,.41-3,.56s-2,.27-2.89.35-1.73.14-2.41.18a2.85,2.85,0,0,0-.39.74,2.42,2.42,0,0,0-.16.86A1.6,1.6,0,0,0,144,46a8,8,0,0,0,3.16.52,14.65,14.65,0,0,0,2.24-.17,19.58,19.58,0,0,0,2-.44c.63-.18,1.23-.37,1.8-.58s1.07-.41,1.54-.62,1.16-.47,1.7-.65a4.62,4.62,0,0,1,1.43-.27,1.12,1.12,0,0,1,.8.2.69.69,0,0,1,.17.43,2,2,0,0,1,0,.25.88.88,0,0,1,0,.2,2.3,2.3,0,0,1-.49.84,3.57,3.57,0,0,1-1,.73,21,21,0,0,1-5.31,1.88,28.26,28.26,0,0,1-5.8.56c-.4,0-.87,0-1.41,0s-1.1-.1-1.68-.2a10.16,10.16,0,0,1-1.71-.42A5.7,5.7,0,0,1,140,47.5a3.77,3.77,0,0,1-1.07-1.11,3,3,0,0,1-.41-1.6,5.13,5.13,0,0,1,.33-1.69,1.25,1.25,0,0,1-.61-.22A.6.6,0,0,1,137.94,42.34Zm15.57-4.46a.3.3,0,0,0,.05-.15v-.14a.7.7,0,0,0-.5-.65,2.87,2.87,0,0,0-1.19-.22,6.46,6.46,0,0,0-2.16.37,11.21,11.21,0,0,0-2,.93,10.23,10.23,0,0,0-1.66,1.19A9,9,0,0,0,145,40.36c1.2-.06,2.29-.17,3.29-.31a19,19,0,0,0,2.59-.55,7.92,7.92,0,0,0,1.79-.74A2.13,2.13,0,0,0,153.51,37.88Z"/><path class="cls-2" d="M179.42,50a4.62,4.62,0,0,1-2.41-.51,1.68,1.68,0,0,1-.85-1.47,4.2,4.2,0,0,1,.25-1.31,11.32,11.32,0,0,1,.63-1.53c.27-.54.58-1.11.92-1.72s.73-1.21,1.13-1.84l.93-1.47c.29-.47.56-.93.79-1.38a10.21,10.21,0,0,0,.54-1.22,2.92,2.92,0,0,0,.18-.94.66.66,0,0,0,0-.25,5.42,5.42,0,0,0-1.28.18,16.38,16.38,0,0,0-1.81.63c-.67.28-1.36.61-2.06,1s-1.42.76-2.11,1.15c-.4.23-.77.42-1.12.6a5.14,5.14,0,0,1-.84.35c-.13.17-.26.37-.41.59q-.37.59-.72,1.26c-.25.47-.47,1-.69,1.43s-.39.92-.54,1.33c-.07.21-.13.41-.18.59s-.11.46-.18.72-.15.52-.24.81-.21.61-.35,1a2.08,2.08,0,0,1-.78.94,3.55,3.55,0,0,1-1,.48,4.45,4.45,0,0,1-1.06.22,5.12,5.12,0,0,1-.62,0A5.58,5.58,0,0,1,163,49.1a2,2,0,0,1-1.21-1.92,5.17,5.17,0,0,1,0-.54,2.58,2.58,0,0,1,.19-.75c.36-1,.72-1.93,1.06-2.76s.7-1.61,1.05-2.32.72-1.38,1.08-2l1.1-1.87c.38-.64.77-1.29,1.18-2s.83-1.4,1.29-2.21a2.54,2.54,0,0,1,1.6-1,7.14,7.14,0,0,1,2-.27,6,6,0,0,1,2.43.45A2,2,0,0,1,176,33.11l1-.37a22,22,0,0,1,2.65-.76,13.43,13.43,0,0,1,2.87-.32,9.11,9.11,0,0,1,4.79,1.1,3.66,3.66,0,0,1,1.82,3.3,6.63,6.63,0,0,1-.58,2.53,30,30,0,0,1-1.38,2.81c-.54,1-1.13,2-1.75,3.08s-1.19,2.13-1.7,3.2a4.58,4.58,0,0,1-.56.91,3.05,3.05,0,0,1-.91.8,4.36,4.36,0,0,1-1.36.47A8.13,8.13,0,0,1,179.42,50Z"/><path class="cls-2" d="M181.49,35.33a7.16,7.16,0,0,0-1.87.27,16.4,16.4,0,0,0-2.06.72c-.72.3-1.44.64-2.18,1s-1.46.78-2.17,1.18c-.37.21-.72.39-1.05.56a5,5,0,0,1-1,.38,6.58,6.58,0,0,0-.74,1c-.25.41-.51.85-.75,1.32s-.49,1-.71,1.47-.41,1-.56,1.39a4.6,4.6,0,0,0-.2.67c-.05.21-.11.44-.18.68s-.14.5-.23.78-.2.59-.34.94a1.05,1.05,0,0,1-.4.49,2.16,2.16,0,0,1-.57.28,3.23,3.23,0,0,1-.57.12,3.57,3.57,0,0,1-.42,0A3.41,3.41,0,0,1,164,48.3a1.11,1.11,0,0,1-.6-1.12,4.12,4.12,0,0,1,0-.48,1.78,1.78,0,0,1,.14-.55c.37-1,.72-1.94,1.06-2.76s.68-1.57,1-2.27.7-1.36,1.06-2,.72-1.24,1.09-1.86l1.17-2c.41-.68.84-1.42,1.31-2.24a1.31,1.31,0,0,1,.78-.46,4.92,4.92,0,0,1,1.36-.18,3.85,3.85,0,0,1,1.55.27.87.87,0,0,1,.61.79.85.85,0,0,1-.05.18.91.91,0,0,1-.15.27l-1.09,1.68c.69-.36,1.42-.71,2.17-1.06a23.75,23.75,0,0,1,2.33-1,19.1,19.1,0,0,1,2.39-.7,11.56,11.56,0,0,1,2.38-.26,7.14,7.14,0,0,1,3.73.83,2.81,2.81,0,0,1,1.34,2.57,6.1,6.1,0,0,1-.53,2.27,28.55,28.55,0,0,1-1.35,2.73q-.79,1.45-1.74,3.06c-.62,1.07-1.19,2.16-1.72,3.27a4.92,4.92,0,0,1-.46.75,1.85,1.85,0,0,1-.56.49,2.21,2.21,0,0,1-.76.27,6.28,6.28,0,0,1-1.06.08,2.78,2.78,0,0,1-1.34-.23.82.82,0,0,1-.37-.75,3.79,3.79,0,0,1,.21-1.11,11.81,11.81,0,0,1,.59-1.43c.26-.52.56-1.08.9-1.67s.71-1.19,1.11-1.8l.93-1.48c.31-.5.58-1,.82-1.44a10.45,10.45,0,0,0,.58-1.32,3.5,3.5,0,0,0,.23-1.16,1.26,1.26,0,0,0-.34-.88A1.64,1.64,0,0,0,181.49,35.33Z"/><path class="cls-2" d="M199.64,49.88c-.44,0-.95,0-1.55-.05a16.88,16.88,0,0,1-1.92-.22,14.15,14.15,0,0,1-2-.49,7.51,7.51,0,0,1-1.93-.93,4.93,4.93,0,0,1-1.38-1.43,3.64,3.64,0,0,1-.52-2,5.4,5.4,0,0,1,.15-1.21,1.46,1.46,0,0,1-.72-1.24,2.28,2.28,0,0,1,.89-1.78,4.35,4.35,0,0,1,1.66-.85c.17-.19.37-.42.61-.67a18.09,18.09,0,0,1,1.51-1.4,21.21,21.21,0,0,1,2-1.51,17.54,17.54,0,0,1,2.61-1.43,18.82,18.82,0,0,1,3.15-1.08,16.11,16.11,0,0,1,3.74-.43,14.88,14.88,0,0,1,3,.27,8.08,8.08,0,0,1,2.31.84,4,4,0,0,1,1.45,1.33,2.9,2.9,0,0,1,.46,1.57,3.24,3.24,0,0,1-.28,1.33,4.54,4.54,0,0,1-1.63,2,12.19,12.19,0,0,1-2.57,1.37,20.58,20.58,0,0,1-3.08.93c-1.06.24-2.12.44-3.17.6s-2.07.28-3,.36l-1.49.12v0a1.84,1.84,0,0,0-.12.63c0,.3.13.47.48.63a5.93,5.93,0,0,0,2.28.34,12.45,12.45,0,0,0,1.87-.14A16.16,16.16,0,0,0,204.2,45c.58-.16,1.13-.34,1.64-.53s1-.38,1.44-.58c.65-.28,1.27-.52,1.87-.71a6.57,6.57,0,0,1,2.13-.38,2.7,2.7,0,0,1,2.14.71,1.39,1.39,0,0,1,.37.92c0,.11,0,.22,0,.32s0,.23-.06.31a3.18,3.18,0,0,1-.68,1.16,4.77,4.77,0,0,1-1.3,1,23.26,23.26,0,0,1-5.82,2.06A30.76,30.76,0,0,1,199.64,49.88Zm5.57-12.16a4.16,4.16,0,0,0-1.41.25,9.54,9.54,0,0,0-1.68.78l-.39.24a14.88,14.88,0,0,0,1.8-.4,5.5,5.5,0,0,0,1.39-.57,1.25,1.25,0,0,0,.38-.3Z"/><path class="cls-2" d="M191.29,42.34a1.48,1.48,0,0,1,.57-1.17,3.07,3.07,0,0,1,1.52-.65q.27-.35.84-1a17.55,17.55,0,0,1,1.42-1.31,22,22,0,0,1,1.93-1.43,17.27,17.27,0,0,1,2.38-1.3,16.87,16.87,0,0,1,2.81-1,13.24,13.24,0,0,1,3.2-.37,12.33,12.33,0,0,1,2.51.22,6.2,6.2,0,0,1,1.76.63,2.9,2.9,0,0,1,1.05,1,2.24,2.24,0,0,1,.35,1.2,2.51,2.51,0,0,1-.23,1,3.49,3.49,0,0,1-1.29,1.58A10.53,10.53,0,0,1,207.89,41a19.43,19.43,0,0,1-2.79.85c-1,.22-2,.41-3,.56s-2,.27-2.89.35-1.74.14-2.42.18a2.84,2.84,0,0,0-.38.74,2.42,2.42,0,0,0-.16.86A1.6,1.6,0,0,0,197.38,46a7.92,7.92,0,0,0,3.16.52,14.74,14.74,0,0,0,2.24-.17,19.38,19.38,0,0,0,2-.44c.64-.18,1.24-.37,1.8-.58s1.08-.41,1.55-.62,1.16-.47,1.7-.65a4.57,4.57,0,0,1,1.43-.27,1.09,1.09,0,0,1,.79.2.65.65,0,0,1,.18.43,2,2,0,0,1,0,.25c0,.08,0,.15,0,.2a2.2,2.2,0,0,1-.5.84,3.52,3.52,0,0,1-.94.73,21.33,21.33,0,0,1-5.31,1.88,28.36,28.36,0,0,1-5.81.56c-.39,0-.86,0-1.4,0s-1.1-.1-1.68-.2a10.52,10.52,0,0,1-1.72-.42,5.79,5.79,0,0,1-1.5-.72,3.65,3.65,0,0,1-1.07-1.11,3,3,0,0,1-.41-1.6,5.37,5.37,0,0,1,.32-1.69,1.26,1.26,0,0,1-.6-.22A.58.58,0,0,1,191.29,42.34Zm15.56-4.46a.23.23,0,0,0,.05-.15v-.14a.69.69,0,0,0-.49-.65,2.92,2.92,0,0,0-1.2-.22,6.4,6.4,0,0,0-2.15.37,11.31,11.31,0,0,0-2,.93,10.58,10.58,0,0,0-1.65,1.19,9,9,0,0,0-1.12,1.15c1.19-.06,2.29-.17,3.28-.31a19.19,19.19,0,0,0,2.6-.55,7.92,7.92,0,0,0,1.79-.74A2,2,0,0,0,206.85,37.88Z"/><path class="cls-2" d="M218.46,57a4.62,4.62,0,0,1-1-.11,3.63,3.63,0,0,1-1-.38,2.44,2.44,0,0,1-.71-.6,1.4,1.4,0,0,1-.32-.9,1.7,1.7,0,0,1,.12-.61,4.4,4.4,0,0,1,.51-1,2.94,2.94,0,0,1,1.08-.93,6.28,6.28,0,0,1,1.64-.55c.54-.12,1.23-.23,2.05-.35.48-.06.9-.12,1.31-.2a4.5,4.5,0,0,0,.58-.14,11.67,11.67,0,0,0,1.83-1.29A9.43,9.43,0,0,0,226,48.49a9.3,9.3,0,0,0,.93-1.56c0-.07.07-.14.11-.22l-.56.23a17.52,17.52,0,0,1-2.43.76,11.66,11.66,0,0,1-2.74.33,7.11,7.11,0,0,1-2.14-.36,9.25,9.25,0,0,1-1.87-.83,6.28,6.28,0,0,1-1.53-1.22A2.5,2.5,0,0,1,215,44a3.35,3.35,0,0,1,.18-1c.1-.31.19-.58.28-.82a8.74,8.74,0,0,1,1.29-2.29,14.73,14.73,0,0,1,1.93-2,22.48,22.48,0,0,1,2.37-1.83,30.72,30.72,0,0,1,2.67-1.58,15.36,15.36,0,0,1,3.73-1.42,17.35,17.35,0,0,1,4-.45c.57,0,1.12,0,1.64.05a11.46,11.46,0,0,1,1.72.26,6.14,6.14,0,0,1,1.63.63,5.11,5.11,0,0,1,1.33,1,1.82,1.82,0,0,1,.33.52,1.35,1.35,0,0,1,.11.52,4.38,4.38,0,0,1-.12.78c-.08.35-.18.77-.31,1.28s-.27,1.07-.45,1.69l-.54,1.88q-.27.95-.54,1.86c-.19.61-.37,1.17-.53,1.66a26.78,26.78,0,0,1-1.09,2.7,17.83,17.83,0,0,1-1.62,2.77,16.39,16.39,0,0,1-2.26,2.58,14.29,14.29,0,0,1-3.12,2.21,17.72,17.72,0,0,1-4.08,1.53A21.41,21.41,0,0,1,218.46,57Zm12-20.17a11.56,11.56,0,0,0-1.21.5,17.57,17.57,0,0,0-1.6.84c-.55.32-1.07.65-1.56,1s-.93.65-1.34,1a8,8,0,0,0-.84.74,13.66,13.66,0,0,0-.91,1,3.78,3.78,0,0,0-.58,1c0,.1-.08.21-.11.31a4.92,4.92,0,0,0,.54-.16,13.84,13.84,0,0,0,2-.85,21.61,21.61,0,0,0,1.94-1.16,8.41,8.41,0,0,0,1.35-1.13c.18-.18.39-.4.66-.7s.51-.58.77-.91.48-.65.68-1A3.25,3.25,0,0,0,230.46,36.84Z"/><path class="cls-2" d="M218.46,56A2,2,0,0,1,218,56a1.83,1.83,0,0,1-.46-.18,1.31,1.31,0,0,1-.36-.3A.72.72,0,0,1,217,55a1.07,1.07,0,0,1,.08-.37,4.06,4.06,0,0,1,.42-.86,1.7,1.7,0,0,1,.65-.55,4.32,4.32,0,0,1,1.14-.38c.48-.1,1.11-.21,1.89-.32q.75-.09,1.41-.21a7.34,7.34,0,0,0,1.08-.3,14.35,14.35,0,0,0,2.15-1.5,10.09,10.09,0,0,0,1.49-1.61,9.34,9.34,0,0,0,1-1.7q.4-.87.78-1.77a4.39,4.39,0,0,0,.26-.63c.08-.22.17-.47.29-.75-.63.35-1.29.71-2,1.06s-1.37.67-2.08.95a17.21,17.21,0,0,1-2.18.69,9.79,9.79,0,0,1-2.2.26,4.54,4.54,0,0,1-1.45-.26,7.47,7.47,0,0,1-1.53-.67,5,5,0,0,1-1.22-1,1.75,1.75,0,0,1-.5-1.17,2.66,2.66,0,0,1,.15-.83l.27-.81a8.06,8.06,0,0,1,1.17-2.06,13.84,13.84,0,0,1,1.79-1.9,19.76,19.76,0,0,1,2.24-1.72c.81-.54,1.66-1,2.54-1.51A13.22,13.22,0,0,1,228,33.87a15,15,0,0,1,3.48-.39c.51,0,1,0,1.48.05a8,8,0,0,1,1.34.2,4.65,4.65,0,0,1,1.18.45,3.92,3.92,0,0,1,1,.78,1.2,1.2,0,0,1,.16.27.73.73,0,0,1,.06.26,4.81,4.81,0,0,1-.11.64l-.3,1.26c-.12.5-.27,1.06-.45,1.67s-.35,1.24-.53,1.87-.37,1.25-.55,1.86-.36,1.15-.52,1.63a22.26,22.26,0,0,1-1.06,2.63,16.93,16.93,0,0,1-1.54,2.64,15.08,15.08,0,0,1-2.13,2.43,13,13,0,0,1-2.83,2A16.37,16.37,0,0,1,223,55.5,18.93,18.93,0,0,1,218.46,56Zm2.46-13.35c0,.13-.09.27-.13.4a1.11,1.11,0,0,0-.07.39,1,1,0,0,0,.2.62.87.87,0,0,0,.72.25,6.13,6.13,0,0,0,1.93-.37,17,17,0,0,0,2.21-1,20.3,20.3,0,0,0,2.09-1.26,9.09,9.09,0,0,0,1.55-1.29c.17-.17.39-.41.66-.71s.55-.62.82-1a11.22,11.22,0,0,0,.74-1,3,3,0,0,0,.4-.93.79.79,0,0,0-.18-.5,2.57,2.57,0,0,1-.3-.66h-.22a4.75,4.75,0,0,0-1.37.25,15.5,15.5,0,0,0-1.63.66,19.12,19.12,0,0,0-1.72.91c-.58.33-1.13.68-1.64,1s-1,.69-1.41,1a9.7,9.7,0,0,0-1,.86q-.53.54-1,1.08A4.56,4.56,0,0,0,220.92,42.66Z"/><path class="cls-2" d="M243.61,50a4.14,4.14,0,0,1-2.79-.84,2.1,2.1,0,0,1-.84-1.64,2,2,0,0,1,.18-.83c.18-.68.43-1.51.72-2.42s.57-1.82.87-2.74.59-1.83.87-2.72.49-1.6.68-2.3a2,2,0,0,1,0-.23V36a6.27,6.27,0,0,1,.11-1.13,6.16,6.16,0,0,1,.32-1,2.76,2.76,0,0,1,1-1.27,4,4,0,0,1,2.17-.51,5,5,0,0,1,2,.35,2.88,2.88,0,0,1,1.2.86,2.26,2.26,0,0,1,.39.67c.28-.15.57-.29.87-.43a14.07,14.07,0,0,1,2.16-.75,10.54,10.54,0,0,1,3.74-.27c.32,0,.65.09,1,.16a11.5,11.5,0,0,1,1.16.24,7.93,7.93,0,0,1,1.39.51,5.85,5.85,0,0,1,1.78,1.3,2.53,2.53,0,0,1,.78,1.74,1.87,1.87,0,0,1-.23.85,2.71,2.71,0,0,1-.63.78,3.73,3.73,0,0,1-1,.63,4.09,4.09,0,0,1-1.63.32,6.94,6.94,0,0,1-1.54-.19,5.61,5.61,0,0,1-1.52-.56,2.71,2.71,0,0,1-.61-.46l-.41-.41,0-.06a4.64,4.64,0,0,0-1.33.28,10.39,10.39,0,0,0-1.84.88,14.16,14.16,0,0,0-1.67,1.18c-.47.38-.88.73-1.24,1.05-.32.82-.66,1.68-1,2.6s-.78,1.92-1.16,2.95v.28a9.45,9.45,0,0,1-.05,1,2.64,2.64,0,0,1-.41,1.2l-.07.11-.11.1a3.71,3.71,0,0,1-1.33.71A5.85,5.85,0,0,1,243.61,50Z"/><path class="cls-2" d="M241.64,46.9c.22-.75.47-1.58.75-2.48s.57-1.81.87-2.74.59-1.83.87-2.72.52-1.71.72-2.45a1.47,1.47,0,0,1,0-.28V36a4.92,4.92,0,0,1,.1-1,4.29,4.29,0,0,1,.27-.92,1.88,1.88,0,0,1,.61-.83,2.09,2.09,0,0,1,1.08-.21,3.1,3.1,0,0,1,1.16.18,1.86,1.86,0,0,1,.68.49,1.66,1.66,0,0,1,.32.7,4.47,4.47,0,0,1,.08.82,4.6,4.6,0,0,1,0,.5c0,.18,0,.33,0,.43.46-.31,1-.63,1.48-1a13.73,13.73,0,0,1,1.66-.88,11.14,11.14,0,0,1,1.87-.65,7.68,7.68,0,0,1,2-.26,5.69,5.69,0,0,1,.83.05c.28,0,.55.07.83.12s.68.13,1,.22a5.55,5.55,0,0,1,1,.38,4.48,4.48,0,0,1,1.38,1,1.82,1.82,0,0,1,.56,1.23,1.09,1.09,0,0,1-.15.52,2,2,0,0,1-.41.52,2.54,2.54,0,0,1-.61.39,1.92,1.92,0,0,1-.77.15,4.9,4.9,0,0,1-1-.14,3.58,3.58,0,0,1-1-.36,1.69,1.69,0,0,1-.36-.27l-.35-.36-.3-.33a1.17,1.17,0,0,0-.21-.2l-.27,0h-.28a6.94,6.94,0,0,0-2.41.42,12.77,12.77,0,0,0-2.14,1A14.75,14.75,0,0,0,249.69,39c-.56.46-1,.87-1.46,1.23-.33.87-.7,1.8-1.1,2.78s-.81,2-1.21,3.09v.4c0,.32,0,.65,0,1a1.89,1.89,0,0,1-.3.89,2.18,2.18,0,0,1-.78.41,3.86,3.86,0,0,1-1.18.17,2.41,2.41,0,0,1-1.57-.44,1.34,1.34,0,0,1-.52-1A1.5,1.5,0,0,1,241.64,46.9Z"/><path class="cls-2" d="M269.57,50.21a17,17,0,0,1-3.85-.39,9.13,9.13,0,0,1-2.91-1.18,5.18,5.18,0,0,1-1.75-1.84,4.72,4.72,0,0,1-.55-2.23,6.72,6.72,0,0,1,.5-2.42,10.34,10.34,0,0,1,1.25-2.26,14.66,14.66,0,0,1,2.21-2.41,22.5,22.5,0,0,1,3.23-2.34A28.57,28.57,0,0,1,272.06,33a10.75,10.75,0,0,1,1.46-.41,12.75,12.75,0,0,1,1.42-.22,7,7,0,0,1,3.28-.71,9.68,9.68,0,0,1,4.18.83,7.57,7.57,0,0,1,2.66,2.08c.2.26.38.5.55.74a5.51,5.51,0,0,1,.47.86,4.6,4.6,0,0,1,.3.93,5,5,0,0,1,.12,1.13,6.72,6.72,0,0,1-.69,2.89,11.47,11.47,0,0,1-1.91,2.79,18.08,18.08,0,0,1-3,2.58,24.41,24.41,0,0,1-3.87,2.21,15.77,15.77,0,0,1-3.38,1.11A20.06,20.06,0,0,1,269.57,50.21Zm5.21-12.56a6.22,6.22,0,0,0-1.14.4,12,12,0,0,0-1.46.76c-.48.31-1,.64-1.41,1a13,13,0,0,0-1.2,1.08,12.53,12.53,0,0,0-.94,1.09,3.5,3.5,0,0,0-.68,1.45,3.15,3.15,0,0,0-.05.52,1.63,1.63,0,0,0,.15.7,1,1,0,0,0,.33.4,2.06,2.06,0,0,0,.63.27,5.08,5.08,0,0,0,1.15.11,7.66,7.66,0,0,0,2.74-.48,10.83,10.83,0,0,0,2.52-1.36,10,10,0,0,0,1.91-1.8A6.74,6.74,0,0,0,278.41,40c.15-.37.27-.71.37-1a2.19,2.19,0,0,0,.13-.71.68.68,0,0,0-.11-.39,8.2,8.2,0,0,0-.55-.73h0a10.41,10.41,0,0,1-1.46.29C276.25,37.53,275.59,37.6,274.78,37.65Z"/><path class="cls-2" d="M262.5,42.39a9.89,9.89,0,0,1,1.16-2.09,13.77,13.77,0,0,1,2-2.23,20.37,20.37,0,0,1,3.05-2.2,27.15,27.15,0,0,1,4.11-2,7.6,7.6,0,0,1,1.15-.31,8.23,8.23,0,0,1,1.59-.2,4.39,4.39,0,0,1,2.61-.68,7.63,7.63,0,0,1,3.27.63,6.3,6.3,0,0,1,2.2,1.74q.27.34.51.69a3.89,3.89,0,0,1,.4.72,5.92,5.92,0,0,1,.26.81,4.84,4.84,0,0,1,.1,1,6,6,0,0,1-.63,2.6,10.47,10.47,0,0,1-1.76,2.58,17.62,17.62,0,0,1-2.77,2.41,24.11,24.11,0,0,1-3.62,2.07,14.37,14.37,0,0,1-3,1,17.64,17.64,0,0,1-3.64.35,14.6,14.6,0,0,1-3.32-.33,7.2,7.2,0,0,1-2.34-1,3.84,3.84,0,0,1-1.85-3.36A6.22,6.22,0,0,1,262.5,42.39Zm4.13.21a3.65,3.65,0,0,0-.21.7,3.55,3.55,0,0,0-.06.64,2.38,2.38,0,0,0,.21,1,2,2,0,0,0,.68.79,3.66,3.66,0,0,0,1.18.51,6.67,6.67,0,0,0,1.73.19,9.91,9.91,0,0,0,3.52-.62,11.81,11.81,0,0,0,2.9-1.56,11.33,11.33,0,0,0,2.12-2,7.7,7.7,0,0,0,1.21-2c.15-.37.28-.73.38-1.06a3,3,0,0,0,.17-.92,1.38,1.38,0,0,0-.24-.78,9.53,9.53,0,0,0-.61-.81l-.45-.57a6,6,0,0,1-.39-.59,3.1,3.1,0,0,1-.43.39,2.22,2.22,0,0,1-.67.31,9.43,9.43,0,0,1-1.22.25c-.51.07-1.18.14-2,.19a8.81,8.81,0,0,0-1.67.55,14.49,14.49,0,0,0-1.65.87,15.17,15.17,0,0,0-1.54,1.08,14.1,14.1,0,0,0-1.32,1.18,13,13,0,0,0-1,1.19A4.24,4.24,0,0,0,266.63,42.6Z"/></g><g id="Layer_4" data-name="Layer 4"><text class="cls-3" transform="translate(40.15 82.04) scale(1.5 1)"><tspan class="cls-4">H</tspan><tspan class="cls-5" x="19.97" y="0">o</tspan><tspan class="cls-6" x="34.38" y="0">l</tspan><tspan class="cls-7" x="41.4" y="0">i</tspan><tspan class="cls-8" x="48.11" y="0">d</tspan><tspan class="cls-9" x="62.98" y="0">a</tspan><tspan x="76.23" y="0">y</tspan></text></g></g></svg>