<svg xmlns="http://www.w3.org/2000/svg" viewBox="0 0 100 50"><defs><style>.cls-1{fill:#001163;}.cls-2{fill:#fff;}.cls-3{fill:#d00000;}</style></defs><title>eng</title><g id="Layer_2" data-name="Layer 2"><g id="VB_zastava" data-name="VB zastava"><polygon class="cls-1" points="0 34.95 0 47.53 21.8 34.95 0 34.95"/><polygon class="cls-1" points="100 47.52 100 34.95 78.24 34.95 100 47.52"/><polygon class="cls-1" points="100 15.56 100 2.92 78.12 15.56 100 15.56"/><polygon class="cls-1" points="40.1 0 17.7 0 40.1 12.93 40.1 0"/><polygon class="cls-1" points="0 2.9 0 15.56 21.92 15.56 0 2.9"/><polygon class="cls-1" points="82.33 0 60 0 60 12.89 82.33 0"/><polygon class="cls-1" points="18.46 50 40.1 50 40.1 37.5 18.46 50"/><polygon class="cls-1" points="60 37.54 60 50 81.58 50 60 37.54"/><polygon class="cls-2" points="56.06 35.27 56.06 50 60 50 60 37.54 56.06 35.27"/><polygon class="cls-2" points="60 12.89 60 0 56.06 0 56.06 15.17 60 12.89"/><polygon class="cls-2" points="40.1 37.5 40.1 50 43.94 50 43.94 35.29 40.1 37.5"/><polygon class="cls-2" points="43.94 15.15 43.94 0 40.1 0 40.1 12.93 43.94 15.15"/><polygon class="cls-2" points="78.24 34.95 100 34.95 100 30.91 71.24 30.91 78.24 34.95"/><polygon class="cls-2" points="71.2 19.55 100 19.55 100 15.56 78.12 15.56 71.2 19.55"/><polygon class="cls-2" points="28.8 30.91 0 30.91 0 34.95 21.8 34.95 28.8 30.91"/><polygon class="cls-2" points="21.92 15.56 0 15.56 0 19.55 28.83 19.55 21.92 15.56"/><polygon class="cls-2" points="60 15.56 78.12 15.56 100 2.92 100 0 82.33 0 60 12.89 60 15.56"/><polygon class="cls-2" points="40.1 34.95 21.8 34.95 0 47.53 0 50 18.46 50 40.1 37.5 40.1 34.95"/><polygon class="cls-2" points="40.1 34.95 40.1 37.5 43.94 35.29 43.94 34.95 40.1 34.95"/><polygon class="cls-2" points="60 15.56 60 12.89 56.06 15.17 56.06 15.56 60 15.56"/><polygon class="cls-2" points="71.2 19.55 78.12 15.56 60 15.56 60 19.55 71.2 19.55"/><polygon class="cls-2" points="28.8 30.91 21.8 34.95 40.1 34.95 40.1 30.91 28.8 30.91"/><rect class="cls-2" x="56.06" y="15.56" width="3.94" height="3.99"/><rect class="cls-2" x="40.1" y="30.91" width="3.84" height="4.04"/><polygon class="cls-2" points="40.1 15.56 40.1 12.93 17.7 0 0 0 0 2.9 21.92 15.56 40.1 15.56"/><polygon class="cls-2" points="60 34.95 60 37.54 81.58 50 100 50 100 47.52 78.24 34.95 60 34.95"/><polygon class="cls-2" points="56.06 34.95 56.06 35.27 60 37.54 60 34.95 56.06 34.95"/><polygon class="cls-2" points="43.94 15.15 40.1 12.93 40.1 15.56 43.94 15.56 43.94 15.15"/><polygon class="cls-2" points="60 34.95 78.24 34.95 71.24 30.91 60 30.91 60 34.95"/><polygon class="cls-2" points="40.1 15.56 21.92 15.56 28.83 19.55 40.1 19.55 40.1 15.56"/><rect class="cls-2" x="40.1" y="15.56" width="3.84" height="3.99"/><rect class="cls-2" x="56.06" y="30.91" width="3.94" height="4.04"/><polygon class="cls-3" points="55.51 34.95 44.52 34.95 43.94 35.29 43.94 50 56.06 50 56.06 35.27 55.51 34.95"/><polygon class="cls-3" points="44.65 15.56 55.39 15.56 56.06 15.17 56.06 0 43.94 0 43.94 15.15 44.65 15.56"/><polygon class="cls-3" points="55.39 15.56 44.65 15.56 50.02 18.66 55.39 15.56"/><polygon class="cls-3" points="44.52 34.95 55.51 34.95 50.02 31.78 44.52 34.95"/><polygon class="cls-3" points="56.06 15.17 55.39 15.56 56.06 15.56 56.06 15.17"/><polygon class="cls-3" points="43.94 35.29 44.52 34.95 43.94 34.95 43.94 35.29"/><polygon class="cls-3" points="48.51 30.91 43.94 30.91 43.94 34.95 44.52 34.95 50.02 31.78 48.51 30.91"/><polygon class="cls-3" points="51.56 19.55 56.06 19.55 56.06 15.56 55.39 15.56 50.02 18.66 51.56 19.55"/><polygon class="cls-3" points="44.65 15.56 43.94 15.15 43.94 15.56 44.65 15.56"/><polygon class="cls-3" points="55.51 34.95 56.06 35.27 56.06 34.95 55.51 34.95"/><polygon class="cls-3" points="43.94 19.55 48.48 19.55 50.02 18.66 44.65 15.56 43.94 15.56 43.94 19.55"/><polygon class="cls-3" points="56.06 30.91 51.52 30.91 50.02 31.78 55.51 34.95 56.06 34.95 56.06 30.91"/><polygon class="cls-3" points="50.02 18.66 48.48 19.55 51.56 19.55 50.02 18.66"/><polygon class="cls-3" points="50.02 31.78 51.52 30.91 48.51 30.91 50.02 31.78"/><polygon class="cls-3" points="38.65 25.22 28.83 19.55 0 19.55 0 30.91 28.8 30.91 38.65 25.22"/><polygon class="cls-3" points="61.38 25.22 71.24 30.91 100 30.91 100 19.55 71.2 19.55 61.38 25.22"/><polygon class="cls-3" points="60 24.42 61.38 25.22 71.2 19.55 60 19.55 60 24.42"/><polygon class="cls-3" points="40.1 26.05 38.65 25.22 28.8 30.91 40.1 30.91 40.1 26.05"/><polygon class="cls-3" points="60 24.42 60 19.55 56.06 19.55 56.06 22.15 60 24.42"/><polygon class="cls-3" points="40.1 26.05 40.1 30.91 43.94 30.91 43.94 28.27 40.1 26.05"/><polygon class="cls-3" points="60 30.91 71.24 30.91 61.38 25.22 60 26.02 60 30.91"/><polygon class="cls-3" points="40.1 19.55 28.83 19.55 38.65 25.22 40.1 24.38 40.1 19.55"/><polygon class="cls-3" points="60 26.02 56.06 28.29 56.06 30.91 60 30.91 60 26.02"/><polygon class="cls-3" points="43.94 19.55 40.1 19.55 40.1 24.38 43.94 22.17 43.94 19.55"/><polygon class="cls-3" points="40.1 24.38 38.65 25.22 40.1 26.05 40.1 24.38"/><polygon class="cls-3" points="60 26.02 61.38 25.22 60 24.42 60 26.02"/><polygon class="cls-3" points="43.94 22.17 40.1 24.38 40.1 26.05 43.94 28.27 43.94 22.17"/><polygon class="cls-3" points="56.06 28.29 60 26.02 60 24.42 56.06 22.15 56.06 28.29"/><polygon class="cls-3" points="56.06 19.55 51.56 19.55 56.06 22.15 56.06 19.55"/><polygon class="cls-3" points="43.94 30.91 48.51 30.91 43.94 28.27 43.94 30.91"/><polygon class="cls-3" points="51.52 30.91 56.06 30.91 56.06 28.29 51.52 30.91"/><polygon class="cls-3" points="48.48 19.55 43.94 19.55 43.94 22.17 48.48 19.55"/><polygon class="cls-3" points="56.06 22.15 51.56 19.55 48.48 19.55 43.94 22.17 43.94 28.27 48.51 30.91 51.52 30.91 56.06 28.29 56.06 22.15"/></g></g></svg>